<svg width="1920" height="904" viewBox="0 0 1920 904" fill="none" xmlns="http://www.w3.org/2000/svg">
<path d="M55.4099 854.51C54.4899 854.22 53.5699 853.92 52.6499 853.63C53.5699 853.92 54.4899 854.21 55.4099 854.51Z" fill="url(#paint0_linear)"/>
<path d="M1596.76 790.29C1595.81 789.99 1594.86 789.7 1593.92 789.4C1594.86 789.7 1595.81 790 1596.76 790.29Z" fill="url(#paint1_linear)"/>
<path d="M1033.42 740.5C1032.75 740.61 1032.07 740.72 1031.4 740.84C1032.07 740.73 1032.75 740.61 1033.42 740.5Z" fill="url(#paint2_linear)"/>
<path d="M312.03 902.56C309.71 902.46 307.4 902.36 305.12 902.25C307.41 902.37 309.71 902.47 312.03 902.56Z" fill="url(#paint3_linear)"/>
<path d="M1606.07 793.17C1605.03 792.85 1604 792.54 1602.96 792.22C1604 792.53 1605.03 792.85 1606.07 793.17Z" fill="url(#paint4_linear)"/>
<path d="M1024.24 742.1C1023.52 742.23 1022.81 742.36 1022.09 742.49C1022.81 742.36 1023.52 742.23 1024.24 742.1Z" fill="url(#paint5_linear)"/>
<path d="M1601.43 791.74C1600.44 791.43 1599.44 791.13 1598.45 790.82C1599.44 791.13 1600.43 791.43 1601.43 791.74Z" fill="url(#paint6_linear)"/>
<path d="M304.63 902.23C302.34 902.12 300.06 902 297.8 901.88C300.06 902.01 302.34 902.12 304.63 902.23Z" fill="url(#paint7_linear)"/>
<path d="M79.2301 861.96C78.0201 861.59 76.8101 861.22 75.6101 860.85C76.8101 861.21 78.0201 861.59 79.2301 861.96Z" fill="url(#paint8_linear)"/>
<path d="M1592.17 788.86C1591.24 788.57 1590.31 788.28 1589.39 787.98C1590.32 788.27 1591.24 788.57 1592.17 788.86Z" fill="url(#paint9_linear)"/>
<path d="M1049.38 737.94C1048.36 738.1 1047.34 738.25 1046.33 738.41C1047.34 738.25 1048.36 738.09 1049.38 737.94Z" fill="url(#paint10_linear)"/>
<path d="M1587.54 787.4C1586.67 787.12 1585.8 786.85 1584.93 786.57C1585.79 786.85 1586.66 787.12 1587.54 787.4Z" fill="url(#paint11_linear)"/>
<path d="M297.36 901.86C295.09 901.73 292.84 901.6 290.6 901.46C292.83 901.6 295.09 901.73 297.36 901.86Z" fill="url(#paint12_linear)"/>
<path d="M84.02 863.409C82.77 863.029 81.51 862.65 80.26 862.27C81.52 862.65 82.77 863.039 84.02 863.409Z" fill="url(#paint13_linear)"/>
<path d="M1041.61 739.15C1040.67 739.3 1039.72 739.45 1038.78 739.6C1039.72 739.45 1040.67 739.3 1041.61 739.15Z" fill="url(#paint14_linear)"/>
<path d="M74.4299 860.48C73.2599 860.12 72.0999 859.76 70.9299 859.4C72.0899 859.76 73.2599 860.12 74.4299 860.48Z" fill="url(#paint15_linear)"/>
<path d="M334.99 903.26C332.53 903.21 330.09 903.15 327.67 903.09C330.1 903.16 332.54 903.21 334.99 903.26Z" fill="url(#paint16_linear)"/>
<path d="M1003.03 746.17C1002.11 746.36 1001.19 746.55 1000.27 746.74C1001.18 746.55 1002.1 746.36 1003.03 746.17Z" fill="url(#paint17_linear)"/>
<path d="M1620.07 797.38C1618.94 797.05 1617.82 796.71 1616.69 796.38C1617.82 796.71 1618.94 797.04 1620.07 797.38Z" fill="url(#paint18_linear)"/>
<path d="M995.89 747.67C995.09 747.84 994.29 748.01 993.49 748.18C994.29 748 995.09 747.84 995.89 747.67Z" fill="url(#paint19_linear)"/>
<path d="M64.9299 857.52C63.8499 857.18 62.7699 856.84 61.6899 856.5C62.7599 856.84 63.8399 857.18 64.9299 857.52Z" fill="url(#paint20_linear)"/>
<path d="M1624.78 798.76C1623.62 798.42 1622.47 798.09 1621.32 797.75C1622.47 798.08 1623.62 798.42 1624.78 798.76Z" fill="url(#paint21_linear)"/>
<path d="M69.68 859C68.55 858.65 67.42 858.29 66.29 857.94C67.42 858.3 68.55 858.65 69.68 859Z" fill="url(#paint22_linear)"/>
<path d="M319.57 902.85C317.21 902.77 314.86 902.68 312.54 902.59C314.86 902.68 317.21 902.77 319.57 902.85Z" fill="url(#paint23_linear)"/>
<path d="M1582.75 785.88C1582 785.64 1581.25 785.4 1580.49 785.16C1581.24 785.4 1581.99 785.64 1582.75 785.88Z" fill="url(#paint24_linear)"/>
<path d="M1610.72 794.58C1609.66 794.26 1608.59 793.93 1607.53 793.61C1608.59 793.94 1609.65 794.26 1610.72 794.58Z" fill="url(#paint25_linear)"/>
<path d="M1017.11 743.41C1016.18 743.58 1015.26 743.76 1014.33 743.94C1015.26 743.76 1016.18 743.58 1017.11 743.41Z" fill="url(#paint26_linear)"/>
<path d="M327.23 903.08C324.82 903.02 322.43 902.94 320.05 902.86C322.42 902.94 324.82 903.01 327.23 903.08Z" fill="url(#paint27_linear)"/>
<path d="M1010.05 744.77C1009.09 744.96 1008.14 745.15 1007.19 745.34C1008.14 745.14 1009.09 744.95 1010.05 744.77Z" fill="url(#paint28_linear)"/>
<path d="M1615.38 795.98C1614.28 795.65 1613.19 795.32 1612.1 795C1613.19 795.33 1614.29 795.66 1615.38 795.98Z" fill="url(#paint29_linear)"/>
<path d="M290.18 901.43C287.94 901.29 285.71 901.14 283.49 900.99C285.71 901.15 287.94 901.29 290.18 901.43Z" fill="url(#paint30_linear)"/>
<path d="M269.31 899.9C267.1 899.71 264.91 899.52 262.73 899.32C264.91 899.52 267.1 899.71 269.31 899.9Z" fill="url(#paint31_linear)"/>
<path d="M113.66 872C112.1 871.57 110.54 871.14 108.99 870.7C110.55 871.14 112.1 871.57 113.66 872Z" fill="url(#paint32_linear)"/>
<path d="M1139.61 728.04C1138.48 728.12 1137.34 728.2 1136.22 728.29C1137.34 728.2 1138.47 728.12 1139.61 728.04Z" fill="url(#paint33_linear)"/>
<path d="M108.58 870.59C107.09 870.17 105.61 869.75 104.13 869.33C105.61 869.75 107.1 870.17 108.58 870.59Z" fill="url(#paint34_linear)"/>
<path d="M1149.14 727.39C1147.91 727.47 1146.68 727.55 1145.46 727.63C1146.69 727.55 1147.92 727.47 1149.14 727.39Z" fill="url(#paint35_linear)"/>
<path d="M1101 731.4C1099.87 731.52 1098.75 731.63 1097.63 731.75C1098.76 731.63 1099.88 731.51 1101 731.4Z" fill="url(#paint36_linear)"/>
<path d="M1092.42 732.31C1091.34 732.43 1090.26 732.55 1089.18 732.67C1090.26 732.55 1091.34 732.43 1092.42 732.31Z" fill="url(#paint37_linear)"/>
<path d="M1118.36 729.73C1117.57 729.8 1116.79 729.871 1116 729.951C1116.79 729.881 1117.57 729.8 1118.36 729.73Z" fill="url(#paint38_linear)"/>
<path d="M255.93 898.67C202.83 893.38 158.91 884.21 118.83 873.41C158.9 884.21 202.83 893.38 255.93 898.67Z" fill="url(#paint39_linear)"/>
<path d="M118.8 873.4C117.16 872.96 115.52 872.51 113.89 872.06C115.52 872.51 117.16 872.96 118.8 873.4Z" fill="url(#paint40_linear)"/>
<path d="M88.86 864.87C87.57 864.48 86.28 864.1 84.99 863.71C86.28 864.1 87.57 864.48 88.86 864.87Z" fill="url(#paint41_linear)"/>
<path d="M1158.67 726.8C1157.44 726.87 1156.21 726.95 1154.99 727.02C1156.21 726.95 1157.44 726.87 1158.67 726.8Z" fill="url(#paint42_linear)"/>
<path d="M1129.52 728.8C1128.74 728.86 1127.95 728.92 1127.18 728.98C1127.95 728.92 1128.74 728.86 1129.52 728.8Z" fill="url(#paint43_linear)"/>
<path d="M262.57 899.31C260.36 899.11 258.16 898.9 255.97 898.68C258.16 898.89 260.35 899.1 262.57 899.31Z" fill="url(#paint44_linear)"/>
<path d="M1109.62 730.54C1108.54 730.64 1107.47 730.75 1106.4 730.85C1107.48 730.75 1108.55 730.64 1109.62 730.54Z" fill="url(#paint45_linear)"/>
<path d="M1064.97 735.69C1064.05 735.82 1063.15 735.94 1062.23 736.07C1063.15 735.94 1064.06 735.81 1064.97 735.69Z" fill="url(#paint46_linear)"/>
<path d="M93.75 866.32C92.41 865.92 91.07 865.53 89.73 865.13C91.06 865.52 92.4 865.92 93.75 866.32Z" fill="url(#paint47_linear)"/>
<path d="M1629.51 800.12C1628.32 799.78 1627.13 799.44 1625.95 799.09C1627.14 799.44 1628.32 799.78 1629.51 800.12Z" fill="url(#paint48_linear)"/>
<path d="M276.17 900.46C273.95 900.29 271.75 900.11 269.57 899.93C271.75 900.11 273.95 900.28 276.17 900.46Z" fill="url(#paint49_linear)"/>
<path d="M1577.93 784.35C1577.3 784.15 1576.66 783.95 1576.03 783.74C1576.67 783.94 1577.3 784.14 1577.93 784.35Z" fill="url(#paint50_linear)"/>
<path d="M1057.14 736.79C1056.11 736.94 1055.1 737.09 1054.08 737.24C1055.1 737.09 1056.12 736.94 1057.14 736.79Z" fill="url(#paint51_linear)"/>
<path d="M1573.04 782.78C1572.57 782.63 1572.11 782.48 1571.64 782.33C1572.11 782.48 1572.57 782.63 1573.04 782.78Z" fill="url(#paint52_linear)"/>
<path d="M1168.28 726.27C1167.19 726.33 1166.12 726.39 1165.04 726.44C1166.12 726.39 1167.19 726.33 1168.28 726.27Z" fill="url(#paint53_linear)"/>
<path d="M1083.69 733.31C1082.77 733.42 1081.85 733.53 1080.93 733.64C1081.85 733.53 1082.77 733.42 1083.69 733.31Z" fill="url(#paint54_linear)"/>
<path d="M283.11 900.97C280.88 900.81 278.67 900.65 276.47 900.48C278.67 900.65 280.88 900.81 283.11 900.97Z" fill="url(#paint55_linear)"/>
<path d="M1073.04 734.62C1072.79 734.65 1072.54 734.69 1072.29 734.72C1072.54 734.69 1072.79 734.65 1073.04 734.62Z" fill="url(#paint56_linear)"/>
<path d="M98.65 867.75C97.26 867.35 95.87 866.94 94.49 866.54C95.87 866.94 97.26 867.35 98.65 867.75Z" fill="url(#paint57_linear)"/>
<path d="M103.57 869.17C102.14 868.76 100.71 868.35 99.29 867.94C100.72 868.35 102.14 868.76 103.57 869.17Z" fill="url(#paint58_linear)"/>
<path d="M487.66 0H0V836.86C0.02 836.87 0.04 836.87 0.05 836.88L0.1 281.43L487.66 0Z" fill="url(#paint59_linear)"/>
<path d="M909.78 770.97C908.94 771.25 908.1 771.53 907.26 771.81C908.1 771.53 908.94 771.25 909.78 770.97Z" fill="url(#paint60_linear)"/>
<path d="M1673.61 811.69C1672.1 811.33 1670.61 810.98 1669.11 810.61C1670.61 810.98 1672.11 811.34 1673.61 811.69Z" fill="url(#paint61_linear)"/>
<path d="M904.3 772.8C903.42 773.1 902.55 773.39 901.68 773.69C902.55 773.39 903.42 773.09 904.3 772.8Z" fill="url(#paint62_linear)"/>
<path d="M898.88 774.65C898 774.95 897.12 775.26 896.24 775.56C897.11 775.25 897.99 774.95 898.88 774.65Z" fill="url(#paint63_linear)"/>
<path d="M752.83 833.38C751.13 834.07 749.42 834.75 747.71 835.43C749.43 834.75 751.13 834.07 752.83 833.38Z" fill="url(#paint64_linear)"/>
<path d="M1678.72 812.88C1677.17 812.52 1675.63 812.16 1674.09 811.8C1675.63 812.17 1677.17 812.53 1678.72 812.88Z" fill="url(#paint65_linear)"/>
<path d="M893.48 776.52C892.61 776.82 891.74 777.13 890.88 777.44C891.75 777.13 892.61 776.83 893.48 776.52Z" fill="url(#paint66_linear)"/>
<path d="M923.05 766.72C922.26 766.97 921.47 767.21 920.69 767.46C921.47 767.2 922.26 766.96 923.05 766.72Z" fill="url(#paint67_linear)"/>
<path d="M45.78 851.43C45.2 851.24 44.62 851.06 44.04 850.87C44.62 851.06 45.2 851.25 45.78 851.43Z" fill="url(#paint68_linear)"/>
<path d="M1668.55 810.48C1667.08 810.12 1665.63 809.77 1664.17 809.41C1665.63 809.77 1667.09 810.13 1668.55 810.48Z" fill="url(#paint69_linear)"/>
<path d="M1663.54 809.25C1662.12 808.9 1660.7 808.54 1659.29 808.18C1660.7 808.54 1662.12 808.9 1663.54 809.25Z" fill="url(#paint70_linear)"/>
<path d="M928.95 764.9C928.1 765.16 927.25 765.42 926.4 765.68C927.24 765.42 928.1 765.16 928.95 764.9Z" fill="url(#paint71_linear)"/>
<path d="M367.54 903.47C364.8 903.49 362.07 903.5 359.37 903.5C362.08 903.5 364.8 903.49 367.54 903.47Z" fill="url(#paint72_linear)"/>
<path d="M916.33 768.84C915.37 769.15 914.41 769.46 913.46 769.77C914.41 769.46 915.37 769.15 916.33 768.84Z" fill="url(#paint73_linear)"/>
<path d="M888.08 778.44C887.05 778.81 886.02 779.18 884.99 779.55C886.02 779.18 887.05 778.81 888.08 778.44Z" fill="url(#paint74_linear)"/>
<path d="M856.91 790.19C854.27 791.23 851.65 792.27 849.04 793.32C851.65 792.27 854.27 791.23 856.91 790.19Z" fill="url(#paint75_linear)"/>
<path d="M934.81 763.15C933.94 763.41 933.07 763.67 932.2 763.92C933.07 763.66 933.93 763.41 934.81 763.15Z" fill="url(#paint76_linear)"/>
<path d="M860.62 788.73C859.59 789.13 858.56 789.53 857.53 789.94C858.56 789.54 859.59 789.14 860.62 788.73Z" fill="url(#paint77_linear)"/>
<path d="M1694.37 816.32C1692.66 815.96 1690.96 815.6 1689.27 815.23C1690.96 815.6 1692.66 815.96 1694.37 816.32Z" fill="url(#paint78_linear)"/>
<path d="M838.77 797.48C837.55 797.98 836.34 798.48 835.13 798.98C836.34 798.47 837.56 797.98 838.77 797.48Z" fill="url(#paint79_linear)"/>
<path d="M865.5 786.84C864.53 787.21 863.55 787.59 862.58 787.97C863.55 787.59 864.52 787.22 865.5 786.84Z" fill="url(#paint80_linear)"/>
<path d="M880.75 781.1C879.84 781.44 878.93 781.77 878.02 782.11C878.93 781.77 879.84 781.43 880.75 781.1Z" fill="url(#paint81_linear)"/>
<path d="M843.47 795.56C842.3 796.04 841.13 796.51 839.96 796.99C841.13 796.51 842.3 796.04 843.47 795.56Z" fill="url(#paint82_linear)"/>
<path d="M1201.93 12.6L1093 75.4L962.71 150.53L368.38 493.23L367.64 493.66L367.6 903.47C384.57 903.35 402.34 902.9 421.01 902.06C577.06 895.03 668.25 867.16 747.6 835.49L747.61 712.1L971.73 582.73L1195.83 712.14V725.1C1195.82 725.1 1195.81 725.1 1195.8 725.1C1368.76 719.37 1462.32 747.29 1553.12 776.38L1553.15 498.87L1069.26 218.98L1198.95 144.2L1307.37 81.68L1435.27 7.93V7.89L1919.01 287.69L1918.96 834.27C1919.31 834.26 1919.66 834.25 1920.02 834.24V0H1223.79L1201.93 12.6Z" fill="url(#paint83_linear)"/>
<path d="M848.29 793.62C847.11 794.1 845.93 794.57 844.75 795.05C845.93 794.57 847.1 794.09 848.29 793.62Z" fill="url(#paint84_linear)"/>
<path d="M1694.38 816.33C1753.89 828.81 1824.3 836.67 1918.9 834.28C1824.3 836.66 1753.9 828.8 1694.38 816.33Z" fill="url(#paint85_linear)"/>
<path d="M834.37 799.29C807.05 810.55 780.71 822.13 753.08 833.29C780.71 822.13 807.05 810.55 834.37 799.29Z" fill="url(#paint86_linear)"/>
<path d="M1177.67 725.82C1177.78 725.81 1177.89 725.81 1178.01 725.8C1178.73 725.77 1179.44 725.74 1180.16 725.71C1179.44 725.74 1178.73 725.77 1178.01 725.8C1177.89 725.8 1177.78 725.81 1177.67 725.82Z" fill="url(#paint87_linear)"/>
<path d="M1683.89 814.05C1682.29 813.69 1680.7 813.33 1679.11 812.97C1680.7 813.34 1682.29 813.7 1683.89 814.05Z" fill="url(#paint88_linear)"/>
<path d="M1689.09 815.2C1687.44 814.84 1685.79 814.48 1684.15 814.12C1685.79 814.48 1687.44 814.84 1689.09 815.2Z" fill="url(#paint89_linear)"/>
<path d="M870.51 784.93C869.55 785.29 868.6 785.66 867.65 786.02C868.59 785.65 869.55 785.29 870.51 784.93Z" fill="url(#paint90_linear)"/>
<path d="M875.6 783.01C874.66 783.36 873.73 783.71 872.79 784.07C873.72 783.71 874.66 783.36 875.6 783.01Z" fill="url(#paint91_linear)"/>
<path d="M1639.07 802.82C1637.82 802.47 1636.56 802.12 1635.32 801.77C1636.57 802.12 1637.82 802.47 1639.07 802.82Z" fill="url(#paint92_linear)"/>
<path d="M350.95 903.47C348.38 903.45 345.82 903.43 343.28 903.4C345.82 903.43 348.38 903.46 350.95 903.47Z" fill="url(#paint93_linear)"/>
<path d="M1643.87 804.13C1642.59 803.78 1641.31 803.43 1640.03 803.08C1641.31 803.43 1642.59 803.78 1643.87 804.13Z" fill="url(#paint94_linear)"/>
<path d="M973.97 752.65C973.07 752.87 972.18 753.09 971.29 753.3C972.18 753.08 973.07 752.87 973.97 752.65Z" fill="url(#paint95_linear)"/>
<path d="M967.57 754.22C966.67 754.44 965.78 754.67 964.89 754.89C965.78 754.67 966.68 754.45 967.57 754.22Z" fill="url(#paint96_linear)"/>
<path d="M961.18 755.85C960.33 756.07 959.49 756.29 958.65 756.51C959.48 756.29 960.33 756.07 961.18 755.85Z" fill="url(#paint97_linear)"/>
<path d="M1648.73 805.44C1647.42 805.09 1646.11 804.74 1644.81 804.39C1646.11 804.74 1647.42 805.09 1648.73 805.44Z" fill="url(#paint98_linear)"/>
<path d="M342.92 903.4C340.41 903.37 337.91 903.33 335.43 903.28C337.91 903.32 340.41 903.36 342.92 903.4Z" fill="url(#paint99_linear)"/>
<path d="M987.33 749.53C986.83 749.64 986.34 749.75 985.84 749.87C986.34 749.76 986.84 749.65 987.33 749.53Z" fill="url(#paint100_linear)"/>
<path d="M954.51 757.61C953.84 757.79 953.17 757.96 952.51 758.14C953.17 757.96 953.84 757.78 954.51 757.61Z" fill="url(#paint101_linear)"/>
<path d="M60.1999 856.03C59.1799 855.71 58.1599 855.38 57.1399 855.06C58.1499 855.38 59.1799 855.7 60.1999 856.03Z" fill="url(#paint102_linear)"/>
<path d="M1634.26 801.47C1633.04 801.13 1631.83 800.78 1630.62 800.44C1631.84 800.79 1633.05 801.13 1634.26 801.47Z" fill="url(#paint103_linear)"/>
<path d="M980.42 751.11C979.6 751.3 978.79 751.5 977.97 751.69C978.79 751.5 979.6 751.31 980.42 751.11Z" fill="url(#paint104_linear)"/>
<path d="M1658.55 807.99C1657.17 807.64 1655.79 807.28 1654.42 806.93C1655.79 807.29 1657.17 807.64 1658.55 807.99Z" fill="url(#paint105_linear)"/>
<path d="M359.18 903.5C356.53 903.5 353.9 903.49 351.28 903.48C353.89 903.49 356.53 903.5 359.18 903.5Z" fill="url(#paint106_linear)"/>
<path d="M940.7 761.43C939.85 761.68 939 761.92 938.15 762.17C939 761.92 939.85 761.68 940.7 761.43Z" fill="url(#paint107_linear)"/>
<path d="M1653.63 806.73C1652.28 806.38 1650.94 806.03 1649.6 805.67C1650.94 806.02 1652.28 806.38 1653.63 806.73Z" fill="url(#paint108_linear)"/>
<path d="M50.62 852.98C49.82 852.73 49.03 852.47 48.23 852.22C49.03 852.47 49.83 852.73 50.62 852.98Z" fill="url(#paint109_linear)"/>
<path d="M946.65 759.75C945.92 759.95 945.21 760.16 944.49 760.36C945.21 760.16 945.92 759.95 946.65 759.75Z" fill="url(#paint110_linear)"/>
<path d="M66.2899 857.95C65.8299 857.81 65.3799 857.66 64.9199 857.52C65.3799 857.66 65.8399 857.8 66.2899 857.95Z" fill="url(#paint111_linear)"/>
<path d="M327.68 903.09C327.53 903.09 327.38 903.08 327.23 903.08C327.38 903.08 327.53 903.09 327.68 903.09Z" fill="url(#paint112_linear)"/>
<path d="M70.9299 859.4C70.5099 859.27 70.0899 859.14 69.6799 859.01C70.0999 859.14 70.5099 859.27 70.9299 859.4Z" fill="url(#paint113_linear)"/>
<path d="M351.28 903.48C351.17 903.48 351.06 903.48 350.95 903.48C351.06 903.47 351.17 903.48 351.28 903.48Z" fill="url(#paint114_linear)"/>
<path d="M57.1299 855.06C56.5499 854.88 55.9799 854.69 55.3999 854.51C55.9799 854.69 56.5599 854.87 57.1299 855.06Z" fill="url(#paint115_linear)"/>
<path d="M52.6499 853.63C51.9799 853.42 51.2999 853.2 50.6299 852.98C51.2999 853.2 51.9699 853.41 52.6499 853.63Z" fill="url(#paint116_linear)"/>
<path d="M335.43 903.27C335.28 903.27 335.14 903.26 334.99 903.26C335.14 903.27 335.28 903.27 335.43 903.27Z" fill="url(#paint117_linear)"/>
<path d="M0.0500488 836.88C14.87 841.48 29.43 846.19 44.0401 850.88C29.43 846.19 14.87 841.48 0.0500488 836.88Z" fill="url(#paint118_linear)"/>
<path d="M48.23 852.22C47.41 851.96 46.6 851.7 45.78 851.44C46.6 851.7 47.42 851.96 48.23 852.22Z" fill="url(#paint119_linear)"/>
<path d="M61.6899 856.5C61.1899 856.34 60.7 856.19 60.2 856.03C60.69 856.18 61.1899 856.34 61.6899 856.5Z" fill="url(#paint120_linear)"/>
<path d="M290.59 901.46C290.45 901.45 290.32 901.44 290.18 901.43C290.32 901.44 290.46 901.45 290.59 901.46Z" fill="url(#paint121_linear)"/>
<path d="M109 870.7C108.86 870.66 108.72 870.62 108.59 870.58C108.72 870.63 108.86 870.66 109 870.7Z" fill="url(#paint122_linear)"/>
<path d="M85 863.71C84.68 863.61 84.35 863.51 84.03 863.42C84.35 863.51 84.67 863.61 85 863.71Z" fill="url(#paint123_linear)"/>
<path d="M297.8 901.88C297.65 901.87 297.5 901.86 297.36 901.86C297.5 901.87 297.65 901.87 297.8 901.88Z" fill="url(#paint124_linear)"/>
<path d="M113.89 872.06C113.81 872.04 113.74 872.02 113.66 872C113.74 872.02 113.81 872.04 113.89 872.06Z" fill="url(#paint125_linear)"/>
<path d="M269.57 899.92C269.49 899.91 269.4 899.91 269.32 899.9C269.4 899.91 269.48 899.92 269.57 899.92Z" fill="url(#paint126_linear)"/>
<path d="M99.2899 867.94C99.0799 867.88 98.8599 867.82 98.6499 867.75C98.8599 867.81 99.0799 867.88 99.2899 867.94Z" fill="url(#paint127_linear)"/>
<path d="M89.7301 865.13C89.4401 865.04 89.1501 864.96 88.8701 864.87C89.1501 864.95 89.4401 865.04 89.7301 865.13Z" fill="url(#paint128_linear)"/>
<path d="M283.49 900.99C283.36 900.98 283.24 900.97 283.11 900.96C283.24 900.98 283.37 900.98 283.49 900.99Z" fill="url(#paint129_linear)"/>
<path d="M276.47 900.48C276.37 900.47 276.27 900.46 276.16 900.46C276.27 900.46 276.37 900.47 276.47 900.48Z" fill="url(#paint130_linear)"/>
<path d="M94.49 866.54C94.24 866.47 93.99 866.39 93.74 866.32C93.99 866.39 94.24 866.46 94.49 866.54Z" fill="url(#paint131_linear)"/>
<path d="M104.14 869.33C103.95 869.28 103.76 869.22 103.58 869.17C103.76 869.22 103.95 869.28 104.14 869.33Z" fill="url(#paint132_linear)"/>
<path d="M75.5999 860.841C75.2099 860.721 74.8199 860.6 74.4199 860.48C74.8199 860.6 75.2099 860.721 75.5999 860.841Z" fill="url(#paint133_linear)"/>
<path d="M305.12 902.26C304.96 902.25 304.79 902.24 304.63 902.24C304.79 902.24 304.96 902.25 305.12 902.26Z" fill="url(#paint134_linear)"/>
<path d="M118.82 873.4C118.81 873.4 118.8 873.4 118.8 873.39C118.81 873.4 118.82 873.4 118.82 873.4Z" fill="url(#paint135_linear)"/>
<path d="M320.05 902.86C319.89 902.85 319.73 902.85 319.57 902.84C319.73 902.85 319.89 902.86 320.05 902.86Z" fill="url(#paint136_linear)"/>
<path d="M312.53 902.58C312.36 902.57 312.2 902.57 312.03 902.56C312.2 902.57 312.37 902.58 312.53 902.58Z" fill="url(#paint137_linear)"/>
<path d="M80.27 862.27C79.92 862.16 79.58 862.06 79.23 861.95C79.57 862.06 79.92 862.17 80.27 862.27Z" fill="url(#paint138_linear)"/>
<path d="M262.73 899.32C262.68 899.32 262.62 899.31 262.57 899.31C262.62 899.31 262.68 899.32 262.73 899.32Z" fill="url(#paint139_linear)"/>
<path d="M368.38 493.23L962.71 150.53L1093 75.4L1201.93 12.59L1223.77 0H487.66L0.110049 281.43L0.0500488 836.88C14.87 841.48 29.43 846.19 44.0401 850.88C44.6201 851.07 45.2 851.25 45.78 851.44C46.6 851.7 47.41 851.96 48.23 852.22C49.03 852.47 49.82 852.73 50.62 852.98C51.29 853.2 51.9701 853.41 52.64 853.63C53.56 853.92 54.4801 854.22 55.4001 854.51C55.9801 854.69 56.55 854.88 57.1301 855.06C58.1501 855.38 59.17 855.71 60.19 856.03C60.69 856.19 61.18 856.34 61.68 856.5C62.7601 856.84 63.84 857.18 64.92 857.52C65.38 857.66 65.83 857.81 66.29 857.95C67.42 858.3 68.55 858.66 69.68 859.01C70.1 859.14 70.52 859.27 70.93 859.4C72.09 859.76 73.26 860.12 74.43 860.48C74.82 860.6 75.21 860.72 75.61 860.84C76.82 861.21 78.0201 861.58 79.23 861.95C79.58 862.06 79.92 862.16 80.27 862.27C81.52 862.65 82.77 863.03 84.03 863.41C84.35 863.51 84.68 863.61 85 863.7C86.29 864.09 87.58 864.47 88.87 864.86C89.16 864.95 89.4501 865.03 89.73 865.12C91.07 865.52 92.41 865.91 93.75 866.31C94 866.38 94.25 866.46 94.5 866.53C95.88 866.94 97.2701 867.34 98.66 867.74C98.87 867.8 99.09 867.86 99.3 867.93C100.72 868.34 102.15 868.75 103.58 869.16C103.77 869.21 103.96 869.27 104.14 869.32C105.62 869.74 107.1 870.16 108.59 870.58C108.73 870.62 108.87 870.66 109 870.7C110.55 871.13 112.11 871.57 113.67 872C113.75 872.02 113.82 872.04 113.9 872.06C115.53 872.51 117.17 872.95 118.81 873.4C118.82 873.4 118.83 873.4 118.83 873.41C158.91 884.21 202.83 893.39 255.93 898.67C255.95 898.67 255.96 898.67 255.98 898.67C258.16 898.89 260.36 899.1 262.58 899.3C262.63 899.3 262.69 899.31 262.74 899.31C264.92 899.51 267.11 899.7 269.32 899.89C269.4 899.9 269.49 899.9 269.57 899.91C271.76 900.09 273.96 900.27 276.17 900.44C276.27 900.45 276.37 900.46 276.48 900.46C278.68 900.63 280.89 900.79 283.12 900.95C283.25 900.96 283.37 900.97 283.5 900.98C285.71 901.13 287.94 901.28 290.19 901.42C290.33 901.43 290.46 901.44 290.6 901.45C292.84 901.59 295.09 901.72 297.36 901.85C297.51 901.86 297.66 901.87 297.8 901.87C300.06 901.99 302.34 902.11 304.63 902.22C304.79 902.23 304.96 902.24 305.12 902.24C307.41 902.35 309.71 902.45 312.03 902.55C312.2 902.56 312.36 902.56 312.53 902.57C314.86 902.66 317.2 902.75 319.56 902.83C319.72 902.84 319.88 902.84 320.04 902.85C322.42 902.93 324.81 903 327.22 903.07C327.37 903.07 327.52 903.08 327.67 903.08C330.09 903.14 332.53 903.2 334.99 903.25C335.14 903.25 335.28 903.26 335.43 903.26C337.91 903.31 340.4 903.35 342.92 903.38C343.04 903.38 343.17 903.38 343.29 903.38C345.83 903.41 348.38 903.44 350.96 903.45C351.07 903.45 351.18 903.45 351.29 903.45C353.9 903.47 356.53 903.47 359.19 903.47C359.26 903.47 359.32 903.47 359.39 903.47C362.09 903.47 364.82 903.46 367.56 903.44C367.57 903.44 367.59 903.44 367.6 903.44L367.64 493.63L368.38 493.23Z" fill="url(#paint140_linear)"/>
<path d="M368.38 493.23L962.71 150.53L1093 75.4L1201.93 12.59L1223.77 0H487.66L0.110049 281.43L0.0500488 836.88C14.87 841.48 29.43 846.19 44.0401 850.88C44.6201 851.07 45.2 851.25 45.78 851.44C46.6 851.7 47.41 851.96 48.23 852.22C49.03 852.47 49.82 852.73 50.62 852.98C51.29 853.2 51.9701 853.41 52.64 853.63C53.56 853.92 54.4801 854.22 55.4001 854.51C55.9801 854.69 56.55 854.88 57.1301 855.06C58.1501 855.38 59.17 855.71 60.19 856.03C60.69 856.19 61.18 856.34 61.68 856.5C62.7601 856.84 63.84 857.18 64.92 857.52C65.38 857.66 65.83 857.81 66.29 857.95C67.42 858.3 68.55 858.66 69.68 859.01C70.1 859.14 70.52 859.27 70.93 859.4C72.09 859.76 73.26 860.12 74.43 860.48C74.82 860.6 75.21 860.72 75.61 860.84C76.82 861.21 78.0201 861.58 79.23 861.95C79.58 862.06 79.92 862.16 80.27 862.27C81.52 862.65 82.77 863.03 84.03 863.41C84.35 863.51 84.68 863.61 85 863.7C86.29 864.09 87.58 864.47 88.87 864.86C89.16 864.95 89.4501 865.03 89.73 865.12C91.07 865.52 92.41 865.91 93.75 866.31C94 866.38 94.25 866.46 94.5 866.53C95.88 866.94 97.2701 867.34 98.66 867.74C98.87 867.8 99.09 867.86 99.3 867.93C100.72 868.34 102.15 868.75 103.58 869.16C103.77 869.21 103.96 869.27 104.14 869.32C105.62 869.74 107.1 870.16 108.59 870.58C108.73 870.62 108.87 870.66 109 870.7C110.55 871.13 112.11 871.57 113.67 872C113.75 872.02 113.82 872.04 113.9 872.06C115.53 872.51 117.17 872.95 118.81 873.4C118.82 873.4 118.83 873.4 118.83 873.41C158.91 884.21 202.83 893.39 255.93 898.67C255.95 898.67 255.96 898.67 255.98 898.67C258.16 898.89 260.36 899.1 262.58 899.3C262.63 899.3 262.69 899.31 262.74 899.31C264.92 899.51 267.11 899.7 269.32 899.89C269.4 899.9 269.49 899.9 269.57 899.91C271.76 900.09 273.96 900.27 276.17 900.44C276.27 900.45 276.37 900.46 276.48 900.46C278.68 900.63 280.89 900.79 283.12 900.95C283.25 900.96 283.37 900.97 283.5 900.98C285.71 901.13 287.94 901.28 290.19 901.42C290.33 901.43 290.46 901.44 290.6 901.45C292.84 901.59 295.09 901.72 297.36 901.85C297.51 901.86 297.66 901.87 297.8 901.87C300.06 901.99 302.34 902.11 304.63 902.22C304.79 902.23 304.96 902.24 305.12 902.24C307.41 902.35 309.71 902.45 312.03 902.55C312.2 902.56 312.36 902.56 312.53 902.57C314.86 902.66 317.2 902.75 319.56 902.83C319.72 902.84 319.88 902.84 320.04 902.85C322.42 902.93 324.81 903 327.22 903.07C327.37 903.07 327.52 903.08 327.67 903.08C330.09 903.14 332.53 903.2 334.99 903.25C335.14 903.25 335.28 903.26 335.43 903.26C337.91 903.31 340.4 903.35 342.92 903.38C343.04 903.38 343.17 903.38 343.29 903.38C345.83 903.41 348.38 903.44 350.96 903.45C351.07 903.45 351.18 903.45 351.29 903.45C353.9 903.47 356.53 903.47 359.19 903.47C359.26 903.47 359.32 903.47 359.39 903.47C362.09 903.47 364.82 903.46 367.56 903.44C367.57 903.44 367.59 903.44 367.6 903.44L367.64 493.63L368.38 493.23Z" fill="url(#paint141_linear)"/>
<path d="M1684.16 814.11C1684.07 814.09 1683.98 814.07 1683.89 814.05C1683.98 814.07 1684.07 814.09 1684.16 814.11Z" fill="url(#paint142_linear)"/>
<path d="M1689.27 815.24C1689.21 815.23 1689.15 815.21 1689.09 815.2C1689.15 815.21 1689.21 815.22 1689.27 815.24Z" fill="url(#paint143_linear)"/>
<path d="M1694.38 816.33H1694.37C1694.37 816.32 1694.38 816.33 1694.38 816.33Z" fill="url(#paint144_linear)"/>
<path d="M1621.32 797.74C1620.9 797.62 1620.49 797.49 1620.07 797.37C1620.49 797.5 1620.9 797.62 1621.32 797.74Z" fill="url(#paint145_linear)"/>
<path d="M1593.92 789.41C1593.34 789.23 1592.76 789.05 1592.18 788.86C1592.75 789.04 1593.33 789.22 1593.92 789.41Z" fill="url(#paint146_linear)"/>
<path d="M1679.11 812.97C1678.98 812.94 1678.85 812.91 1678.72 812.88C1678.85 812.91 1678.98 812.94 1679.11 812.97Z" fill="url(#paint147_linear)"/>
<path d="M1602.96 792.21C1602.45 792.05 1601.94 791.89 1601.43 791.74C1601.94 791.9 1602.45 792.06 1602.96 792.21Z" fill="url(#paint148_linear)"/>
<path d="M1607.53 793.61C1607.04 793.46 1606.56 793.31 1606.07 793.16C1606.56 793.32 1607.04 793.47 1607.53 793.61Z" fill="url(#paint149_linear)"/>
<path d="M1612.1 795C1611.64 794.86 1611.18 794.72 1610.72 794.58C1611.18 794.72 1611.64 794.86 1612.1 795Z" fill="url(#paint150_linear)"/>
<path d="M1553.11 776.38C1559.29 778.36 1565.46 780.35 1571.65 782.33C1565.46 780.35 1559.29 778.37 1553.11 776.38Z" fill="url(#paint151_linear)"/>
<path d="M1576.03 783.74C1575.03 783.42 1574.03 783.1 1573.03 782.78C1574.04 783.1 1575.03 783.42 1576.03 783.74Z" fill="url(#paint152_linear)"/>
<path d="M1616.69 796.38C1616.25 796.25 1615.81 796.12 1615.38 795.99C1615.82 796.12 1616.26 796.25 1616.69 796.38Z" fill="url(#paint153_linear)"/>
<path d="M1589.39 787.98C1588.77 787.78 1588.15 787.59 1587.54 787.39C1588.15 787.59 1588.77 787.79 1589.39 787.98Z" fill="url(#paint154_linear)"/>
<path d="M1584.92 786.57C1584.19 786.34 1583.47 786.11 1582.74 785.88C1583.47 786.11 1584.2 786.34 1584.92 786.57Z" fill="url(#paint155_linear)"/>
<path d="M1580.49 785.16C1579.64 784.89 1578.78 784.62 1577.93 784.34C1578.79 784.62 1579.64 784.89 1580.49 785.16Z" fill="url(#paint156_linear)"/>
<path d="M1598.45 790.82C1597.89 790.64 1597.32 790.47 1596.76 790.29C1597.32 790.47 1597.88 790.64 1598.45 790.82Z" fill="url(#paint157_linear)"/>
<path d="M1625.95 799.1C1625.56 798.99 1625.17 798.87 1624.78 798.76C1625.17 798.87 1625.56 798.98 1625.95 799.1Z" fill="url(#paint158_linear)"/>
<path d="M1664.17 809.41C1663.96 809.36 1663.75 809.31 1663.53 809.25C1663.75 809.3 1663.96 809.36 1664.17 809.41Z" fill="url(#paint159_linear)"/>
<path d="M1654.42 806.93C1654.16 806.86 1653.89 806.79 1653.63 806.73C1653.89 806.8 1654.16 806.86 1654.42 806.93Z" fill="url(#paint160_linear)"/>
<path d="M1669.11 810.62C1668.92 810.57 1668.73 810.53 1668.55 810.48C1668.74 810.53 1668.93 810.57 1669.11 810.62Z" fill="url(#paint161_linear)"/>
<path d="M1674.09 811.81C1673.93 811.77 1673.77 811.73 1673.61 811.7C1673.77 811.73 1673.93 811.77 1674.09 811.81Z" fill="url(#paint162_linear)"/>
<path d="M1649.6 805.67C1649.31 805.59 1649.02 805.52 1648.73 805.44C1649.02 805.51 1649.31 805.59 1649.6 805.67Z" fill="url(#paint163_linear)"/>
<path d="M1659.29 808.18C1659.04 808.12 1658.8 808.05 1658.55 807.99C1658.8 808.06 1659.04 808.12 1659.29 808.18Z" fill="url(#paint164_linear)"/>
<path d="M1635.32 801.77C1634.97 801.67 1634.62 801.57 1634.26 801.47C1634.62 801.57 1634.97 801.67 1635.32 801.77Z" fill="url(#paint165_linear)"/>
<path d="M1644.81 804.38C1644.5 804.3 1644.18 804.21 1643.87 804.13C1644.19 804.22 1644.5 804.3 1644.81 804.38Z" fill="url(#paint166_linear)"/>
<path d="M1630.63 800.44C1630.26 800.33 1629.89 800.23 1629.52 800.12C1629.88 800.23 1630.25 800.34 1630.63 800.44Z" fill="url(#paint167_linear)"/>
<path d="M1640.04 803.08C1639.72 802.99 1639.4 802.9 1639.08 802.81C1639.39 802.9 1639.71 802.99 1640.04 803.08Z" fill="url(#paint168_linear)"/>
<path d="M1435.25 7.88965V7.92965L1307.35 81.6796L1198.93 144.2L1069.24 218.98L1553.13 498.87L1553.1 776.38C1559.28 778.36 1565.45 780.35 1571.64 782.33C1572.1 782.48 1572.57 782.63 1573.04 782.78C1574.04 783.1 1575.04 783.42 1576.04 783.74C1576.67 783.94 1577.31 784.14 1577.94 784.35C1578.79 784.62 1579.64 784.89 1580.5 785.17C1581.25 785.41 1582 785.65 1582.76 785.89C1583.49 786.12 1584.21 786.35 1584.94 786.58C1585.81 786.86 1586.68 787.13 1587.55 787.41C1588.17 787.61 1588.79 787.8 1589.4 788C1590.33 788.29 1591.25 788.58 1592.18 788.88C1592.76 789.06 1593.34 789.25 1593.92 789.43C1594.87 789.73 1595.81 790.02 1596.76 790.32C1597.32 790.5 1597.89 790.67 1598.45 790.85C1599.44 791.16 1600.43 791.47 1601.43 791.77C1601.94 791.93 1602.45 792.09 1602.96 792.24C1603.99 792.56 1605.03 792.88 1606.07 793.19C1606.56 793.34 1607.04 793.49 1607.53 793.64C1608.59 793.96 1609.66 794.29 1610.72 794.61C1611.18 794.75 1611.64 794.89 1612.1 795.03C1613.19 795.36 1614.29 795.69 1615.38 796.01C1615.82 796.14 1616.26 796.27 1616.69 796.4C1617.81 796.73 1618.94 797.07 1620.07 797.4C1620.49 797.52 1620.9 797.64 1621.32 797.77C1622.47 798.11 1623.63 798.45 1624.78 798.78C1625.17 798.89 1625.56 799.01 1625.95 799.12C1627.14 799.46 1628.32 799.81 1629.51 800.15C1629.88 800.26 1630.25 800.36 1630.62 800.47C1631.83 800.82 1633.04 801.16 1634.26 801.5C1634.61 801.6 1634.96 801.7 1635.32 801.8C1636.57 802.15 1637.82 802.5 1639.07 802.85C1639.39 802.94 1639.71 803.03 1640.03 803.12C1641.31 803.47 1642.59 803.82 1643.87 804.17C1644.18 804.25 1644.49 804.34 1644.81 804.42C1646.11 804.77 1647.42 805.12 1648.73 805.47C1649.02 805.55 1649.31 805.62 1649.6 805.7C1650.94 806.06 1652.28 806.41 1653.63 806.76C1653.89 806.83 1654.16 806.9 1654.42 806.96C1655.79 807.32 1657.17 807.67 1658.55 808.02C1658.8 808.08 1659.04 808.15 1659.29 808.21C1660.7 808.57 1662.12 808.92 1663.54 809.28C1663.75 809.33 1663.96 809.39 1664.18 809.44C1665.63 809.8 1667.09 810.16 1668.56 810.51C1668.75 810.56 1668.94 810.6 1669.12 810.65C1670.61 811.01 1672.11 811.37 1673.62 811.73C1673.78 811.77 1673.94 811.81 1674.1 811.84C1675.64 812.2 1677.18 812.56 1678.73 812.92C1678.86 812.95 1678.99 812.98 1679.12 813.01C1680.71 813.37 1682.3 813.73 1683.9 814.09C1683.99 814.11 1684.08 814.13 1684.17 814.15C1685.81 814.51 1687.45 814.88 1689.11 815.23C1689.17 815.24 1689.23 815.26 1689.29 815.27C1690.98 815.64 1692.68 816 1694.39 816.36H1694.4C1753.91 828.84 1824.32 836.7 1918.92 834.31C1918.93 834.31 1918.95 834.31 1918.96 834.31L1919.01 287.73L1435.25 7.88965Z" fill="url(#paint169_linear)"/>
<path d="M1435.25 7.88965V7.92965L1307.35 81.6796L1198.93 144.2L1069.24 218.98L1553.13 498.87L1553.1 776.38C1559.28 778.36 1565.45 780.35 1571.64 782.33C1572.1 782.48 1572.57 782.63 1573.04 782.78C1574.04 783.1 1575.04 783.42 1576.04 783.74C1576.67 783.94 1577.31 784.14 1577.94 784.35C1578.79 784.62 1579.64 784.89 1580.5 785.17C1581.25 785.41 1582 785.65 1582.76 785.89C1583.49 786.12 1584.21 786.35 1584.94 786.58C1585.81 786.86 1586.68 787.13 1587.55 787.41C1588.17 787.61 1588.79 787.8 1589.4 788C1590.33 788.29 1591.25 788.58 1592.18 788.88C1592.76 789.06 1593.34 789.25 1593.92 789.43C1594.87 789.73 1595.81 790.02 1596.76 790.32C1597.32 790.5 1597.89 790.67 1598.45 790.85C1599.44 791.16 1600.43 791.47 1601.43 791.77C1601.94 791.93 1602.45 792.09 1602.96 792.24C1603.99 792.56 1605.03 792.88 1606.07 793.19C1606.56 793.34 1607.04 793.49 1607.53 793.64C1608.59 793.96 1609.66 794.29 1610.72 794.61C1611.18 794.75 1611.64 794.89 1612.1 795.03C1613.19 795.36 1614.29 795.69 1615.38 796.01C1615.82 796.14 1616.26 796.27 1616.69 796.4C1617.81 796.73 1618.94 797.07 1620.07 797.4C1620.49 797.52 1620.9 797.64 1621.32 797.77C1622.47 798.11 1623.63 798.45 1624.78 798.78C1625.17 798.89 1625.56 799.01 1625.95 799.12C1627.14 799.46 1628.32 799.81 1629.51 800.15C1629.88 800.26 1630.25 800.36 1630.62 800.47C1631.83 800.82 1633.04 801.16 1634.26 801.5C1634.61 801.6 1634.96 801.7 1635.32 801.8C1636.57 802.15 1637.82 802.5 1639.07 802.85C1639.39 802.94 1639.71 803.03 1640.03 803.12C1641.31 803.47 1642.59 803.82 1643.87 804.17C1644.18 804.25 1644.49 804.34 1644.81 804.42C1646.11 804.77 1647.42 805.12 1648.73 805.47C1649.02 805.55 1649.31 805.62 1649.6 805.7C1650.94 806.06 1652.28 806.41 1653.63 806.76C1653.89 806.83 1654.16 806.9 1654.42 806.96C1655.79 807.32 1657.17 807.67 1658.55 808.02C1658.8 808.08 1659.04 808.15 1659.29 808.21C1660.7 808.57 1662.12 808.92 1663.54 809.28C1663.75 809.33 1663.96 809.39 1664.18 809.44C1665.63 809.8 1667.09 810.16 1668.56 810.51C1668.75 810.56 1668.94 810.6 1669.12 810.65C1670.61 811.01 1672.11 811.37 1673.62 811.73C1673.78 811.77 1673.94 811.81 1674.1 811.84C1675.64 812.2 1677.18 812.56 1678.73 812.92C1678.86 812.95 1678.99 812.98 1679.12 813.01C1680.71 813.37 1682.3 813.73 1683.9 814.09C1683.99 814.11 1684.08 814.13 1684.17 814.15C1685.81 814.51 1687.45 814.88 1689.11 815.23C1689.17 815.24 1689.23 815.26 1689.29 815.27C1690.98 815.64 1692.68 816 1694.39 816.36H1694.4C1753.91 828.84 1824.32 836.7 1918.92 834.31C1918.93 834.31 1918.95 834.31 1918.96 834.31L1919.01 287.73L1435.25 7.88965Z" fill="url(#paint170_linear)"/>
<path d="M747.59 835.49C747.63 835.47 747.67 835.46 747.72 835.44C747.68 835.45 747.63 835.47 747.59 835.49Z" fill="url(#paint171_linear)"/>
<path d="M920.69 767.45C919.23 767.91 917.78 768.37 916.33 768.84C917.78 768.37 919.23 767.91 920.69 767.45Z" fill="url(#paint172_linear)"/>
<path d="M913.46 769.77C912.23 770.17 911 770.569 909.78 770.969C911 770.559 912.23 770.17 913.46 769.77Z" fill="url(#paint173_linear)"/>
<path d="M926.4 765.68C925.28 766.02 924.17 766.37 923.05 766.72C924.16 766.37 925.28 766.02 926.4 765.68Z" fill="url(#paint174_linear)"/>
<path d="M907.26 771.8C906.27 772.13 905.28 772.46 904.3 772.79C905.28 772.46 906.27 772.13 907.26 771.8Z" fill="url(#paint175_linear)"/>
<path d="M844.75 795.05C844.32 795.22 843.9 795.39 843.47 795.57C843.89 795.39 844.32 795.22 844.75 795.05Z" fill="url(#paint176_linear)"/>
<path d="M932.2 763.92C931.11 764.25 930.03 764.57 928.95 764.9C930.03 764.58 931.11 764.25 932.2 763.92Z" fill="url(#paint177_linear)"/>
<path d="M952.51 758.14C950.54 758.67 948.59 759.21 946.65 759.75C948.59 759.21 950.54 758.67 952.51 758.14Z" fill="url(#paint178_linear)"/>
<path d="M958.64 756.51C957.25 756.87 955.88 757.24 954.51 757.61C955.88 757.24 957.26 756.87 958.64 756.51Z" fill="url(#paint179_linear)"/>
<path d="M964.89 754.9C963.64 755.22 962.41 755.53 961.17 755.85C962.41 755.53 963.65 755.21 964.89 754.9Z" fill="url(#paint180_linear)"/>
<path d="M901.68 773.69C900.74 774.01 899.81 774.33 898.88 774.65C899.81 774.32 900.74 774.01 901.68 773.69Z" fill="url(#paint181_linear)"/>
<path d="M971.29 753.3C970.05 753.61 968.81 753.91 967.57 754.22C968.81 753.91 970.05 753.61 971.29 753.3Z" fill="url(#paint182_linear)"/>
<path d="M938.15 762.17C937.03 762.49 935.92 762.82 934.81 763.15C935.92 762.82 937.03 762.5 938.15 762.17Z" fill="url(#paint183_linear)"/>
<path d="M944.49 760.36C943.22 760.72 941.96 761.07 940.71 761.43C941.96 761.07 943.22 760.72 944.49 760.36Z" fill="url(#paint184_linear)"/>
<path d="M862.58 787.97C861.93 788.22 861.27 788.48 860.62 788.73C861.27 788.48 861.93 788.22 862.58 787.97Z" fill="url(#paint185_linear)"/>
<path d="M857.53 789.94C857.32 790.02 857.11 790.11 856.9 790.19C857.12 790.11 857.32 790.02 857.53 789.94Z" fill="url(#paint186_linear)"/>
<path d="M867.64 786.02C866.92 786.29 866.21 786.57 865.49 786.84C866.21 786.57 866.93 786.29 867.64 786.02Z" fill="url(#paint187_linear)"/>
<path d="M896.23 775.56C895.31 775.88 894.39 776.2 893.48 776.52C894.4 776.2 895.31 775.88 896.23 775.56Z" fill="url(#paint188_linear)"/>
<path d="M839.96 796.99C839.56 797.15 839.17 797.31 838.77 797.48C839.17 797.32 839.57 797.15 839.96 796.99Z" fill="url(#paint189_linear)"/>
<path d="M835.13 798.97C834.88 799.07 834.62 799.18 834.37 799.28C834.62 799.18 834.87 799.08 835.13 798.97Z" fill="url(#paint190_linear)"/>
<path d="M849.04 793.32C848.79 793.42 848.54 793.52 848.29 793.62C848.54 793.52 848.79 793.42 849.04 793.32Z" fill="url(#paint191_linear)"/>
<path d="M890.88 777.44C889.94 777.77 889.01 778.11 888.08 778.44C889.02 778.11 889.95 777.77 890.88 777.44Z" fill="url(#paint192_linear)"/>
<path d="M753.07 833.29C752.99 833.32 752.91 833.35 752.83 833.39C752.91 833.35 752.99 833.32 753.07 833.29Z" fill="url(#paint193_linear)"/>
<path d="M878.02 782.11C877.21 782.41 876.4 782.71 875.6 783.01C876.4 782.71 877.21 782.41 878.02 782.11Z" fill="url(#paint194_linear)"/>
<path d="M885 779.55C883.58 780.06 882.16 780.58 880.75 781.1C882.16 780.58 883.58 780.06 885 779.55Z" fill="url(#paint195_linear)"/>
<path d="M872.79 784.07C872.03 784.36 871.27 784.64 870.51 784.93C871.26 784.64 872.03 784.35 872.79 784.07Z" fill="url(#paint196_linear)"/>
<path d="M1116 729.95C1113.86 730.14 1111.74 730.34 1109.63 730.54C1111.73 730.34 1113.86 730.14 1116 729.95Z" fill="url(#paint197_linear)"/>
<path d="M1106.41 730.85C1104.6 731.03 1102.8 731.21 1101.01 731.39C1102.79 731.21 1104.6 731.03 1106.41 730.85Z" fill="url(#paint198_linear)"/>
<path d="M1195.79 725.1C1192.89 725.2 1189.96 725.3 1187.01 725.42C1189.96 725.31 1192.88 725.2 1195.79 725.1Z" fill="url(#paint199_linear)"/>
<path d="M1127.17 728.99C1124.21 729.23 1121.27 729.48 1118.35 729.74C1121.27 729.48 1124.21 729.23 1127.17 728.99Z" fill="url(#paint200_linear)"/>
<path d="M1080.93 733.64C1078.28 733.96 1075.64 734.29 1073.04 734.62C1075.65 734.28 1078.28 733.96 1080.93 733.64Z" fill="url(#paint201_linear)"/>
<path d="M1097.64 731.75C1095.89 731.94 1094.15 732.12 1092.42 732.31C1094.15 732.12 1095.89 731.93 1097.64 731.75Z" fill="url(#paint202_linear)"/>
<path d="M1136.21 728.28C1133.96 728.45 1131.73 728.62 1129.52 728.8C1131.74 728.63 1133.96 728.45 1136.21 728.28Z" fill="url(#paint203_linear)"/>
<path d="M1089.18 732.67C1087.34 732.88 1085.51 733.09 1083.69 733.31C1085.51 733.1 1087.34 732.88 1089.18 732.67Z" fill="url(#paint204_linear)"/>
<path d="M1177.67 725.82C1174.51 725.96 1171.39 726.12 1168.28 726.28C1171.38 726.11 1174.51 725.96 1177.67 725.82Z" fill="url(#paint205_linear)"/>
<path d="M977.98 751.69C976.64 752.01 975.3 752.32 973.97 752.65C975.3 752.33 976.63 752.01 977.98 751.69Z" fill="url(#paint206_linear)"/>
<path d="M1145.47 727.63C1143.5 727.76 1141.55 727.9 1139.61 728.04C1141.55 727.9 1143.5 727.76 1145.47 727.63Z" fill="url(#paint207_linear)"/>
<path d="M1154.99 727.02C1153.03 727.14 1151.08 727.26 1149.15 727.39C1151.08 727.26 1153.03 727.14 1154.99 727.02Z" fill="url(#paint208_linear)"/>
<path d="M1165.04 726.45C1162.91 726.56 1160.78 726.68 1158.67 726.8C1160.78 726.68 1162.91 726.56 1165.04 726.45Z" fill="url(#paint209_linear)"/>
<path d="M1186.98 725.42C1184.72 725.51 1182.44 725.61 1180.16 725.71C1182.44 725.61 1184.72 725.51 1186.98 725.42Z" fill="url(#paint210_linear)"/>
<path d="M1000.26 746.74C998.79 747.05 997.34 747.35 995.89 747.66C997.34 747.36 998.8 747.05 1000.26 746.74Z" fill="url(#paint211_linear)"/>
<path d="M1007.19 745.33C1005.8 745.61 1004.41 745.89 1003.03 746.17C1004.41 745.89 1005.79 745.61 1007.19 745.33Z" fill="url(#paint212_linear)"/>
<path d="M1014.33 743.94C1012.9 744.21 1011.47 744.49 1010.05 744.77C1011.47 744.49 1012.9 744.21 1014.33 743.94Z" fill="url(#paint213_linear)"/>
<path d="M993.49 748.18C991.42 748.63 989.37 749.08 987.33 749.54C989.37 749.08 991.43 748.62 993.49 748.18Z" fill="url(#paint214_linear)"/>
<path d="M1022.09 742.49C1020.42 742.79 1018.76 743.1 1017.11 743.41C1018.76 743.1 1020.42 742.79 1022.09 742.49Z" fill="url(#paint215_linear)"/>
<path d="M985.85 749.87C984.03 750.28 982.22 750.7 980.43 751.11C982.22 750.7 984.03 750.28 985.85 749.87Z" fill="url(#paint216_linear)"/>
<path d="M1062.24 736.07C1060.53 736.31 1058.83 736.55 1057.15 736.79C1058.83 736.54 1060.53 736.31 1062.24 736.07Z" fill="url(#paint217_linear)"/>
<path d="M1072.29 734.72C1069.83 735.04 1067.4 735.36 1064.98 735.69C1067.39 735.36 1069.83 735.04 1072.29 734.72Z" fill="url(#paint218_linear)"/>
<path d="M1046.33 738.41C1044.75 738.66 1043.18 738.91 1041.61 739.16C1043.18 738.9 1044.75 738.65 1046.33 738.41Z" fill="url(#paint219_linear)"/>
<path d="M1054.08 737.23C1052.51 737.46 1050.94 737.7 1049.38 737.93C1050.94 737.7 1052.51 737.47 1054.08 737.23Z" fill="url(#paint220_linear)"/>
<path d="M1038.78 739.61C1036.98 739.9 1035.19 740.2 1033.42 740.51C1035.2 740.2 1036.98 739.9 1038.78 739.61Z" fill="url(#paint221_linear)"/>
<path d="M1031.4 740.84C1028.99 741.25 1026.61 741.67 1024.24 742.1C1026.61 741.67 1028.99 741.25 1031.4 740.84Z" fill="url(#paint222_linear)"/>
<path d="M1195.82 712.141L971.72 582.73L747.6 712.1L747.59 835.49C747.63 835.47 747.67 835.46 747.72 835.44C749.43 834.76 751.14 834.07 752.84 833.391C752.92 833.361 753 833.33 753.08 833.29C780.72 822.13 807.06 810.55 834.37 799.29C834.62 799.19 834.88 799.08 835.13 798.98C836.34 798.48 837.56 797.98 838.77 797.48C839.17 797.32 839.56 797.16 839.96 796.99C841.13 796.51 842.29 796.04 843.47 795.56C843.9 795.39 844.32 795.21 844.75 795.04C845.93 794.56 847.11 794.09 848.29 793.61C848.54 793.51 848.79 793.41 849.04 793.31C851.65 792.26 854.27 791.22 856.91 790.18C857.12 790.1 857.33 790.01 857.54 789.93C858.57 789.53 859.6 789.12 860.63 788.72C861.28 788.47 861.93 788.211 862.59 787.961C863.56 787.581 864.53 787.211 865.51 786.831C866.22 786.551 866.94 786.281 867.66 786.01C868.61 785.65 869.57 785.28 870.52 784.92C871.28 784.63 872.04 784.34 872.8 784.06C873.73 783.71 874.67 783.35 875.61 783C876.41 782.7 877.22 782.4 878.03 782.1C878.94 781.76 879.85 781.421 880.76 781.091C882.17 780.571 883.59 780.06 885.01 779.54C886.03 779.17 887.06 778.8 888.1 778.43C889.03 778.1 889.96 777.76 890.9 777.43C891.76 777.12 892.63 776.82 893.5 776.51C894.42 776.19 895.33 775.87 896.25 775.55C897.13 775.24 898.01 774.941 898.89 774.641C899.82 774.32 900.75 774 901.69 773.68C902.56 773.38 903.43 773.09 904.31 772.79C905.29 772.46 906.28 772.13 907.27 771.8C908.11 771.52 908.95 771.241 909.79 770.961C911.01 770.561 912.24 770.16 913.47 769.76C914.42 769.451 915.38 769.141 916.34 768.831C917.79 768.37 919.24 767.9 920.7 767.44C921.48 767.19 922.27 766.951 923.06 766.701C924.17 766.35 925.29 766.01 926.41 765.66C927.26 765.4 928.11 765.14 928.96 764.88C930.04 764.55 931.13 764.231 932.21 763.901C933.08 763.641 933.94 763.38 934.82 763.13C935.93 762.8 937.05 762.481 938.16 762.151C939.01 761.901 939.86 761.66 940.71 761.41C941.96 761.05 943.23 760.691 944.49 760.341C945.21 760.141 945.93 759.93 946.65 759.73C948.59 759.19 950.54 758.65 952.51 758.12C953.17 757.94 953.84 757.761 954.51 757.591C955.88 757.221 957.26 756.86 958.64 756.49C959.48 756.27 960.33 756.051 961.17 755.831C962.4 755.51 963.64 755.19 964.89 754.88C965.78 754.65 966.68 754.431 967.57 754.211C968.8 753.901 970.04 753.6 971.29 753.29C972.18 753.07 973.07 752.851 973.97 752.641C975.3 752.32 976.64 752 977.98 751.68C978.8 751.49 979.61 751.29 980.43 751.1C982.23 750.68 984.03 750.27 985.85 749.86C986.35 749.75 986.84 749.631 987.34 749.521C989.38 749.061 991.43 748.61 993.5 748.16C994.29 747.99 995.1 747.821 995.9 747.651C997.35 747.341 998.81 747.03 1000.27 746.73C1001.19 746.54 1002.11 746.35 1003.03 746.16C1004.41 745.88 1005.8 745.6 1007.19 745.32C1008.14 745.13 1009.1 744.94 1010.05 744.75C1011.47 744.47 1012.9 744.2 1014.33 743.92C1015.25 743.74 1016.18 743.57 1017.11 743.391C1018.76 743.081 1020.42 742.78 1022.09 742.47C1022.81 742.34 1023.52 742.211 1024.24 742.081C1026.61 741.651 1028.99 741.24 1031.4 740.82C1032.07 740.71 1032.75 740.59 1033.42 740.48C1035.2 740.18 1036.98 739.881 1038.78 739.581C1039.72 739.431 1040.66 739.28 1041.61 739.13C1043.18 738.88 1044.75 738.63 1046.33 738.38C1047.34 738.22 1048.36 738.07 1049.38 737.91C1050.94 737.67 1052.5 737.441 1054.08 737.211C1055.1 737.061 1056.12 736.91 1057.14 736.76C1058.83 736.52 1060.53 736.28 1062.23 736.04C1063.14 735.91 1064.05 735.78 1064.97 735.66C1067.39 735.33 1069.83 735.01 1072.28 734.69C1072.53 734.66 1072.78 734.621 1073.03 734.591C1075.64 734.261 1078.27 733.93 1080.92 733.61C1081.83 733.5 1082.76 733.391 1083.68 733.281C1085.5 733.061 1087.33 732.851 1089.17 732.641C1090.24 732.521 1091.33 732.401 1092.41 732.281C1094.14 732.091 1095.88 731.9 1097.63 731.72C1098.75 731.6 1099.87 731.48 1101 731.37C1102.79 731.19 1104.59 731.01 1106.4 730.831C1107.47 730.721 1108.54 730.621 1109.62 730.521C1111.73 730.321 1113.86 730.12 1115.99 729.93C1116.78 729.86 1117.56 729.781 1118.35 729.711C1121.26 729.451 1124.2 729.201 1127.17 728.961C1127.95 728.901 1128.73 728.841 1129.51 728.781C1131.73 728.601 1133.96 728.43 1136.2 728.26C1137.33 728.18 1138.46 728.1 1139.59 728.01C1141.53 727.87 1143.49 727.73 1145.45 727.6C1146.67 727.52 1147.9 727.44 1149.13 727.36C1151.07 727.23 1153.01 727.11 1154.97 726.99C1156.2 726.92 1157.42 726.841 1158.65 726.771C1160.76 726.651 1162.89 726.53 1165.02 726.42C1166.1 726.36 1167.17 726.3 1168.26 726.25C1171.36 726.09 1174.49 725.94 1177.65 725.79C1177.76 725.78 1177.87 725.781 1177.99 725.771C1178.71 725.741 1179.42 725.71 1180.14 725.68C1182.42 725.58 1184.71 725.48 1186.96 725.391C1186.97 725.391 1186.98 725.391 1186.99 725.391C1189.94 725.271 1192.87 725.171 1195.77 725.07C1195.78 725.07 1195.79 725.07 1195.8 725.07L1195.82 712.141Z" fill="url(#paint223_linear)"/>
<path d="M1195.82 712.141L971.72 582.73L747.6 712.1L747.59 835.49C747.63 835.47 747.67 835.46 747.72 835.44C749.43 834.76 751.14 834.07 752.84 833.391C752.92 833.361 753 833.33 753.08 833.29C780.72 822.13 807.06 810.55 834.37 799.29C834.62 799.19 834.88 799.08 835.13 798.98C836.34 798.48 837.56 797.98 838.77 797.48C839.17 797.32 839.56 797.16 839.96 796.99C841.13 796.51 842.29 796.04 843.47 795.56C843.9 795.39 844.32 795.21 844.75 795.04C845.93 794.56 847.11 794.09 848.29 793.61C848.54 793.51 848.79 793.41 849.04 793.31C851.65 792.26 854.27 791.22 856.91 790.18C857.12 790.1 857.33 790.01 857.54 789.93C858.57 789.53 859.6 789.12 860.63 788.72C861.28 788.47 861.93 788.211 862.59 787.961C863.56 787.581 864.53 787.211 865.51 786.831C866.22 786.551 866.94 786.281 867.66 786.01C868.61 785.65 869.57 785.28 870.52 784.92C871.28 784.63 872.04 784.34 872.8 784.06C873.73 783.71 874.67 783.35 875.61 783C876.41 782.7 877.22 782.4 878.03 782.1C878.94 781.76 879.85 781.421 880.76 781.091C882.17 780.571 883.59 780.06 885.01 779.54C886.03 779.17 887.06 778.8 888.1 778.43C889.03 778.1 889.96 777.76 890.9 777.43C891.76 777.12 892.63 776.82 893.5 776.51C894.42 776.19 895.33 775.87 896.25 775.55C897.13 775.24 898.01 774.941 898.89 774.641C899.82 774.32 900.75 774 901.69 773.68C902.56 773.38 903.43 773.09 904.31 772.79C905.29 772.46 906.28 772.13 907.27 771.8C908.11 771.52 908.95 771.241 909.79 770.961C911.01 770.561 912.24 770.16 913.47 769.76C914.42 769.451 915.38 769.141 916.34 768.831C917.79 768.37 919.24 767.9 920.7 767.44C921.48 767.19 922.27 766.951 923.06 766.701C924.17 766.35 925.29 766.01 926.41 765.66C927.26 765.4 928.11 765.14 928.96 764.88C930.04 764.55 931.13 764.231 932.21 763.901C933.08 763.641 933.94 763.38 934.82 763.13C935.93 762.8 937.05 762.481 938.16 762.151C939.01 761.901 939.86 761.66 940.71 761.41C941.96 761.05 943.23 760.691 944.49 760.341C945.21 760.141 945.93 759.93 946.65 759.73C948.59 759.19 950.54 758.65 952.51 758.12C953.17 757.94 953.84 757.761 954.51 757.591C955.88 757.221 957.26 756.86 958.64 756.49C959.48 756.27 960.33 756.051 961.17 755.831C962.4 755.51 963.64 755.19 964.89 754.88C965.78 754.65 966.68 754.431 967.57 754.211C968.8 753.901 970.04 753.6 971.29 753.29C972.18 753.07 973.07 752.851 973.97 752.641C975.3 752.32 976.64 752 977.98 751.68C978.8 751.49 979.61 751.29 980.43 751.1C982.23 750.68 984.03 750.27 985.85 749.86C986.35 749.75 986.84 749.631 987.34 749.521C989.38 749.061 991.43 748.61 993.5 748.16C994.29 747.99 995.1 747.821 995.9 747.651C997.35 747.341 998.81 747.03 1000.27 746.73C1001.19 746.54 1002.11 746.35 1003.03 746.16C1004.41 745.88 1005.8 745.6 1007.19 745.32C1008.14 745.13 1009.1 744.94 1010.05 744.75C1011.47 744.47 1012.9 744.2 1014.33 743.92C1015.25 743.74 1016.18 743.57 1017.11 743.391C1018.76 743.081 1020.42 742.78 1022.09 742.47C1022.81 742.34 1023.52 742.211 1024.24 742.081C1026.61 741.651 1028.99 741.24 1031.4 740.82C1032.07 740.71 1032.75 740.59 1033.42 740.48C1035.2 740.18 1036.98 739.881 1038.78 739.581C1039.72 739.431 1040.66 739.28 1041.61 739.13C1043.18 738.88 1044.75 738.63 1046.33 738.38C1047.34 738.22 1048.36 738.07 1049.38 737.91C1050.94 737.67 1052.5 737.441 1054.08 737.211C1055.1 737.061 1056.12 736.91 1057.14 736.76C1058.83 736.52 1060.53 736.28 1062.23 736.04C1063.14 735.91 1064.05 735.78 1064.97 735.66C1067.39 735.33 1069.83 735.01 1072.28 734.69C1072.53 734.66 1072.78 734.621 1073.03 734.591C1075.64 734.261 1078.27 733.93 1080.92 733.61C1081.83 733.5 1082.76 733.391 1083.68 733.281C1085.5 733.061 1087.33 732.851 1089.17 732.641C1090.24 732.521 1091.33 732.401 1092.41 732.281C1094.14 732.091 1095.88 731.9 1097.63 731.72C1098.75 731.6 1099.87 731.48 1101 731.37C1102.79 731.19 1104.59 731.01 1106.4 730.831C1107.47 730.721 1108.54 730.621 1109.62 730.521C1111.73 730.321 1113.86 730.12 1115.99 729.93C1116.78 729.86 1117.56 729.781 1118.35 729.711C1121.26 729.451 1124.2 729.201 1127.17 728.961C1127.95 728.901 1128.73 728.841 1129.51 728.781C1131.73 728.601 1133.96 728.43 1136.2 728.26C1137.33 728.18 1138.46 728.1 1139.59 728.01C1141.53 727.87 1143.49 727.73 1145.45 727.6C1146.67 727.52 1147.9 727.44 1149.13 727.36C1151.07 727.23 1153.01 727.11 1154.97 726.99C1156.2 726.92 1157.42 726.841 1158.65 726.771C1160.76 726.651 1162.89 726.53 1165.02 726.42C1166.1 726.36 1167.17 726.3 1168.26 726.25C1171.36 726.09 1174.49 725.94 1177.65 725.79C1177.76 725.78 1177.87 725.781 1177.99 725.771C1178.71 725.741 1179.42 725.71 1180.14 725.68C1182.42 725.58 1184.71 725.48 1186.96 725.391C1186.97 725.391 1186.98 725.391 1186.99 725.391C1189.94 725.271 1192.87 725.171 1195.77 725.07C1195.78 725.07 1195.79 725.07 1195.8 725.07L1195.82 712.141Z" fill="url(#paint224_linear)"/>
<defs>
<linearGradient id="paint0_linear" x1="2858.53" y1="854.068" x2="-1334.81" y2="854.068" gradientUnits="userSpaceOnUse">
<stop stop-color="#0B2EE5"/>
<stop offset="1" stop-color="#0CE3EF"/>
</linearGradient>
<linearGradient id="paint1_linear" x1="2858.52" y1="789.849" x2="-1334.78" y2="789.849" gradientUnits="userSpaceOnUse">
<stop stop-color="#0B2EE5"/>
<stop offset="1" stop-color="#0CE3EF"/>
</linearGradient>
<linearGradient id="paint2_linear" x1="2858.55" y1="740.671" x2="-1334.84" y2="740.671" gradientUnits="userSpaceOnUse">
<stop stop-color="#0B2EE5"/>
<stop offset="1" stop-color="#0CE3EF"/>
</linearGradient>
<linearGradient id="paint3_linear" x1="2858.53" y1="902.41" x2="-1334.82" y2="902.41" gradientUnits="userSpaceOnUse">
<stop stop-color="#0B2EE5"/>
<stop offset="1" stop-color="#0CE3EF"/>
</linearGradient>
<linearGradient id="paint4_linear" x1="2858.53" y1="792.691" x2="-1334.8" y2="792.691" gradientUnits="userSpaceOnUse">
<stop stop-color="#0B2EE5"/>
<stop offset="1" stop-color="#0CE3EF"/>
</linearGradient>
<linearGradient id="paint5_linear" x1="2858.5" y1="742.294" x2="-1334.77" y2="742.294" gradientUnits="userSpaceOnUse">
<stop stop-color="#0B2EE5"/>
<stop offset="1" stop-color="#0CE3EF"/>
</linearGradient>
<linearGradient id="paint6_linear" x1="2858.58" y1="791.281" x2="-1334.92" y2="791.281" gradientUnits="userSpaceOnUse">
<stop stop-color="#0B2EE5"/>
<stop offset="1" stop-color="#0CE3EF"/>
</linearGradient>
<linearGradient id="paint7_linear" x1="2858.54" y1="902.057" x2="-1334.82" y2="902.057" gradientUnits="userSpaceOnUse">
<stop stop-color="#0B2EE5"/>
<stop offset="1" stop-color="#0CE3EF"/>
</linearGradient>
<linearGradient id="paint8_linear" x1="2858.53" y1="861.398" x2="-1334.82" y2="861.398" gradientUnits="userSpaceOnUse">
<stop stop-color="#0B2EE5"/>
<stop offset="1" stop-color="#0CE3EF"/>
</linearGradient>
<linearGradient id="paint9_linear" x1="2858.55" y1="788.421" x2="-1334.85" y2="788.421" gradientUnits="userSpaceOnUse">
<stop stop-color="#0B2EE5"/>
<stop offset="1" stop-color="#0CE3EF"/>
</linearGradient>
<linearGradient id="paint10_linear" x1="2858.56" y1="738.172" x2="-1334.85" y2="738.172" gradientUnits="userSpaceOnUse">
<stop stop-color="#0B2EE5"/>
<stop offset="1" stop-color="#0CE3EF"/>
</linearGradient>
<linearGradient id="paint11_linear" x1="2858.52" y1="786.984" x2="-1334.8" y2="786.984" gradientUnits="userSpaceOnUse">
<stop stop-color="#0B2EE5"/>
<stop offset="1" stop-color="#0CE3EF"/>
</linearGradient>
<linearGradient id="paint12_linear" x1="2858.52" y1="901.658" x2="-1334.81" y2="901.658" gradientUnits="userSpaceOnUse">
<stop stop-color="#0B2EE5"/>
<stop offset="1" stop-color="#0CE3EF"/>
</linearGradient>
<linearGradient id="paint13_linear" x1="2858.53" y1="862.844" x2="-1334.81" y2="862.844" gradientUnits="userSpaceOnUse">
<stop stop-color="#0B2EE5"/>
<stop offset="1" stop-color="#0CE3EF"/>
</linearGradient>
<linearGradient id="paint14_linear" x1="2858.5" y1="739.38" x2="-1334.78" y2="739.38" gradientUnits="userSpaceOnUse">
<stop stop-color="#0B2EE5"/>
<stop offset="1" stop-color="#0CE3EF"/>
</linearGradient>
<linearGradient id="paint15_linear" x1="2858.53" y1="859.938" x2="-1334.82" y2="859.938" gradientUnits="userSpaceOnUse">
<stop stop-color="#0B2EE5"/>
<stop offset="1" stop-color="#0CE3EF"/>
</linearGradient>
<linearGradient id="paint16_linear" x1="2858.52" y1="903.177" x2="-1334.81" y2="903.177" gradientUnits="userSpaceOnUse">
<stop stop-color="#0B2EE5"/>
<stop offset="1" stop-color="#0CE3EF"/>
</linearGradient>
<linearGradient id="paint17_linear" x1="2858.54" y1="746.458" x2="-1334.82" y2="746.458" gradientUnits="userSpaceOnUse">
<stop stop-color="#0B2EE5"/>
<stop offset="1" stop-color="#0CE3EF"/>
</linearGradient>
<linearGradient id="paint18_linear" x1="2858.53" y1="796.877" x2="-1334.82" y2="796.877" gradientUnits="userSpaceOnUse">
<stop stop-color="#0B2EE5"/>
<stop offset="1" stop-color="#0CE3EF"/>
</linearGradient>
<linearGradient id="paint19_linear" x1="2858.55" y1="747.921" x2="-1334.84" y2="747.921" gradientUnits="userSpaceOnUse">
<stop stop-color="#0B2EE5"/>
<stop offset="1" stop-color="#0CE3EF"/>
</linearGradient>
<linearGradient id="paint20_linear" x1="2858.53" y1="857.007" x2="-1334.82" y2="857.007" gradientUnits="userSpaceOnUse">
<stop stop-color="#0B2EE5"/>
<stop offset="1" stop-color="#0CE3EF"/>
</linearGradient>
<linearGradient id="paint21_linear" x1="2858.56" y1="798.251" x2="-1334.89" y2="798.251" gradientUnits="userSpaceOnUse">
<stop stop-color="#0B2EE5"/>
<stop offset="1" stop-color="#0CE3EF"/>
</linearGradient>
<linearGradient id="paint22_linear" x1="2858.53" y1="858.476" x2="-1334.82" y2="858.476" gradientUnits="userSpaceOnUse">
<stop stop-color="#0B2EE5"/>
<stop offset="1" stop-color="#0CE3EF"/>
</linearGradient>
<linearGradient id="paint23_linear" x1="2858.53" y1="902.715" x2="-1334.82" y2="902.715" gradientUnits="userSpaceOnUse">
<stop stop-color="#0B2EE5"/>
<stop offset="1" stop-color="#0CE3EF"/>
</linearGradient>
<linearGradient id="paint24_linear" x1="2858.54" y1="785.521" x2="-1334.83" y2="785.521" gradientUnits="userSpaceOnUse">
<stop stop-color="#0B2EE5"/>
<stop offset="1" stop-color="#0CE3EF"/>
</linearGradient>
<linearGradient id="paint25_linear" x1="2858.51" y1="794.099" x2="-1334.76" y2="794.099" gradientUnits="userSpaceOnUse">
<stop stop-color="#0B2EE5"/>
<stop offset="1" stop-color="#0CE3EF"/>
</linearGradient>
<linearGradient id="paint26_linear" x1="2858.51" y1="743.673" x2="-1334.79" y2="743.673" gradientUnits="userSpaceOnUse">
<stop stop-color="#0B2EE5"/>
<stop offset="1" stop-color="#0CE3EF"/>
</linearGradient>
<linearGradient id="paint27_linear" x1="2858.54" y1="902.972" x2="-1334.82" y2="902.972" gradientUnits="userSpaceOnUse">
<stop stop-color="#0B2EE5"/>
<stop offset="1" stop-color="#0CE3EF"/>
</linearGradient>
<linearGradient id="paint28_linear" x1="2858.52" y1="745.048" x2="-1334.8" y2="745.048" gradientUnits="userSpaceOnUse">
<stop stop-color="#0B2EE5"/>
<stop offset="1" stop-color="#0CE3EF"/>
</linearGradient>
<linearGradient id="paint29_linear" x1="2858.54" y1="795.493" x2="-1334.84" y2="795.493" gradientUnits="userSpaceOnUse">
<stop stop-color="#0B2EE5"/>
<stop offset="1" stop-color="#0CE3EF"/>
</linearGradient>
<linearGradient id="paint30_linear" x1="2858.53" y1="901.214" x2="-1334.82" y2="901.214" gradientUnits="userSpaceOnUse">
<stop stop-color="#0B2EE5"/>
<stop offset="1" stop-color="#0CE3EF"/>
</linearGradient>
<linearGradient id="paint31_linear" x1="2858.53" y1="899.611" x2="-1334.81" y2="899.611" gradientUnits="userSpaceOnUse">
<stop stop-color="#0B2EE5"/>
<stop offset="1" stop-color="#0CE3EF"/>
</linearGradient>
<linearGradient id="paint32_linear" x1="2858.54" y1="871.351" x2="-1334.82" y2="871.351" gradientUnits="userSpaceOnUse">
<stop stop-color="#0B2EE5"/>
<stop offset="1" stop-color="#0CE3EF"/>
</linearGradient>
<linearGradient id="paint33_linear" x1="2858.54" y1="728.161" x2="-1334.83" y2="728.161" gradientUnits="userSpaceOnUse">
<stop stop-color="#0B2EE5"/>
<stop offset="1" stop-color="#0CE3EF"/>
</linearGradient>
<linearGradient id="paint34_linear" x1="2858.53" y1="869.958" x2="-1334.82" y2="869.958" gradientUnits="userSpaceOnUse">
<stop stop-color="#0B2EE5"/>
<stop offset="1" stop-color="#0CE3EF"/>
</linearGradient>
<linearGradient id="paint35_linear" x1="2858.56" y1="727.507" x2="-1334.85" y2="727.507" gradientUnits="userSpaceOnUse">
<stop stop-color="#0B2EE5"/>
<stop offset="1" stop-color="#0CE3EF"/>
</linearGradient>
<linearGradient id="paint36_linear" x1="2858.53" y1="731.572" x2="-1334.81" y2="731.572" gradientUnits="userSpaceOnUse">
<stop stop-color="#0B2EE5"/>
<stop offset="1" stop-color="#0CE3EF"/>
</linearGradient>
<linearGradient id="paint37_linear" x1="2858.53" y1="732.493" x2="-1334.81" y2="732.493" gradientUnits="userSpaceOnUse">
<stop stop-color="#0B2EE5"/>
<stop offset="1" stop-color="#0CE3EF"/>
</linearGradient>
<linearGradient id="paint38_linear" x1="2858.52" y1="729.842" x2="-1334.8" y2="729.842" gradientUnits="userSpaceOnUse">
<stop stop-color="#0B2EE5"/>
<stop offset="1" stop-color="#0CE3EF"/>
</linearGradient>
<linearGradient id="paint39_linear" x1="2858.53" y1="886.037" x2="-1334.82" y2="886.037" gradientUnits="userSpaceOnUse">
<stop stop-color="#0B2EE5"/>
<stop offset="1" stop-color="#0CE3EF"/>
</linearGradient>
<linearGradient id="paint40_linear" x1="2858.53" y1="872.729" x2="-1334.82" y2="872.729" gradientUnits="userSpaceOnUse">
<stop stop-color="#0B2EE5"/>
<stop offset="1" stop-color="#0CE3EF"/>
</linearGradient>
<linearGradient id="paint41_linear" x1="2858.53" y1="864.288" x2="-1334.82" y2="864.288" gradientUnits="userSpaceOnUse">
<stop stop-color="#0B2EE5"/>
<stop offset="1" stop-color="#0CE3EF"/>
</linearGradient>
<linearGradient id="paint42_linear" x1="2858.56" y1="726.91" x2="-1334.85" y2="726.91" gradientUnits="userSpaceOnUse">
<stop stop-color="#0B2EE5"/>
<stop offset="1" stop-color="#0CE3EF"/>
</linearGradient>
<linearGradient id="paint43_linear" x1="2858.51" y1="728.893" x2="-1334.78" y2="728.893" gradientUnits="userSpaceOnUse">
<stop stop-color="#0B2EE5"/>
<stop offset="1" stop-color="#0CE3EF"/>
</linearGradient>
<linearGradient id="paint44_linear" x1="2858.53" y1="898.989" x2="-1334.82" y2="898.989" gradientUnits="userSpaceOnUse">
<stop stop-color="#0B2EE5"/>
<stop offset="1" stop-color="#0CE3EF"/>
</linearGradient>
<linearGradient id="paint45_linear" x1="2858.52" y1="730.697" x2="-1334.79" y2="730.697" gradientUnits="userSpaceOnUse">
<stop stop-color="#0B2EE5"/>
<stop offset="1" stop-color="#0CE3EF"/>
</linearGradient>
<linearGradient id="paint46_linear" x1="2858.53" y1="735.879" x2="-1334.81" y2="735.879" gradientUnits="userSpaceOnUse">
<stop stop-color="#0B2EE5"/>
<stop offset="1" stop-color="#0CE3EF"/>
</linearGradient>
<linearGradient id="paint47_linear" x1="2858.53" y1="865.722" x2="-1334.81" y2="865.722" gradientUnits="userSpaceOnUse">
<stop stop-color="#0B2EE5"/>
<stop offset="1" stop-color="#0CE3EF"/>
</linearGradient>
<linearGradient id="paint48_linear" x1="2858.55" y1="799.61" x2="-1334.86" y2="799.61" gradientUnits="userSpaceOnUse">
<stop stop-color="#0B2EE5"/>
<stop offset="1" stop-color="#0CE3EF"/>
</linearGradient>
<linearGradient id="paint49_linear" x1="2858.53" y1="900.189" x2="-1334.82" y2="900.189" gradientUnits="userSpaceOnUse">
<stop stop-color="#0B2EE5"/>
<stop offset="1" stop-color="#0CE3EF"/>
</linearGradient>
<linearGradient id="paint50_linear" x1="2858.55" y1="784.043" x2="-1334.85" y2="784.043" gradientUnits="userSpaceOnUse">
<stop stop-color="#0B2EE5"/>
<stop offset="1" stop-color="#0CE3EF"/>
</linearGradient>
<linearGradient id="paint51_linear" x1="2858.57" y1="737.011" x2="-1334.86" y2="737.011" gradientUnits="userSpaceOnUse">
<stop stop-color="#0B2EE5"/>
<stop offset="1" stop-color="#0CE3EF"/>
</linearGradient>
<linearGradient id="paint52_linear" x1="2858.55" y1="782.557" x2="-1334.87" y2="782.557" gradientUnits="userSpaceOnUse">
<stop stop-color="#0B2EE5"/>
<stop offset="1" stop-color="#0CE3EF"/>
</linearGradient>
<linearGradient id="paint53_linear" x1="2858.53" y1="726.358" x2="-1334.81" y2="726.358" gradientUnits="userSpaceOnUse">
<stop stop-color="#0B2EE5"/>
<stop offset="1" stop-color="#0CE3EF"/>
</linearGradient>
<linearGradient id="paint54_linear" x1="2858.46" y1="733.474" x2="-1334.72" y2="733.474" gradientUnits="userSpaceOnUse">
<stop stop-color="#0B2EE5"/>
<stop offset="1" stop-color="#0CE3EF"/>
</linearGradient>
<linearGradient id="paint55_linear" x1="2858.53" y1="900.723" x2="-1334.81" y2="900.723" gradientUnits="userSpaceOnUse">
<stop stop-color="#0B2EE5"/>
<stop offset="1" stop-color="#0CE3EF"/>
</linearGradient>
<linearGradient id="paint56_linear" x1="2858.53" y1="734.669" x2="-1334.82" y2="734.669" gradientUnits="userSpaceOnUse">
<stop stop-color="#0B2EE5"/>
<stop offset="1" stop-color="#0CE3EF"/>
</linearGradient>
<linearGradient id="paint57_linear" x1="2858.53" y1="867.144" x2="-1334.82" y2="867.144" gradientUnits="userSpaceOnUse">
<stop stop-color="#0B2EE5"/>
<stop offset="1" stop-color="#0CE3EF"/>
</linearGradient>
<linearGradient id="paint58_linear" x1="2858.53" y1="868.554" x2="-1334.81" y2="868.554" gradientUnits="userSpaceOnUse">
<stop stop-color="#0B2EE5"/>
<stop offset="1" stop-color="#0CE3EF"/>
</linearGradient>
<linearGradient id="paint59_linear" x1="2858.53" y1="418.44" x2="-1334.82" y2="418.44" gradientUnits="userSpaceOnUse">
<stop stop-color="#0B2EE5"/>
<stop offset="1" stop-color="#0CE3EF"/>
</linearGradient>
<linearGradient id="paint60_linear" x1="2858.55" y1="771.386" x2="-1334.83" y2="771.386" gradientUnits="userSpaceOnUse">
<stop stop-color="#0B2EE5"/>
<stop offset="1" stop-color="#0CE3EF"/>
</linearGradient>
<linearGradient id="paint61_linear" x1="2858.53" y1="811.156" x2="-1334.82" y2="811.156" gradientUnits="userSpaceOnUse">
<stop stop-color="#0B2EE5"/>
<stop offset="1" stop-color="#0CE3EF"/>
</linearGradient>
<linearGradient id="paint62_linear" x1="2858.53" y1="773.241" x2="-1334.81" y2="773.241" gradientUnits="userSpaceOnUse">
<stop stop-color="#0B2EE5"/>
<stop offset="1" stop-color="#0CE3EF"/>
</linearGradient>
<linearGradient id="paint63_linear" x1="2858.54" y1="775.103" x2="-1334.83" y2="775.103" gradientUnits="userSpaceOnUse">
<stop stop-color="#0B2EE5"/>
<stop offset="1" stop-color="#0CE3EF"/>
</linearGradient>
<linearGradient id="paint64_linear" x1="2858.53" y1="834.409" x2="-1334.81" y2="834.409" gradientUnits="userSpaceOnUse">
<stop stop-color="#0B2EE5"/>
<stop offset="1" stop-color="#0CE3EF"/>
</linearGradient>
<linearGradient id="paint65_linear" x1="2858.53" y1="812.345" x2="-1334.82" y2="812.345" gradientUnits="userSpaceOnUse">
<stop stop-color="#0B2EE5"/>
<stop offset="1" stop-color="#0CE3EF"/>
</linearGradient>
<linearGradient id="paint66_linear" x1="2858.51" y1="776.981" x2="-1334.79" y2="776.981" gradientUnits="userSpaceOnUse">
<stop stop-color="#0B2EE5"/>
<stop offset="1" stop-color="#0CE3EF"/>
</linearGradient>
<linearGradient id="paint67_linear" x1="2858.52" y1="767.083" x2="-1334.8" y2="767.083" gradientUnits="userSpaceOnUse">
<stop stop-color="#0B2EE5"/>
<stop offset="1" stop-color="#0CE3EF"/>
</linearGradient>
<linearGradient id="paint68_linear" x1="2858.53" y1="851.156" x2="-1334.81" y2="851.156" gradientUnits="userSpaceOnUse">
<stop stop-color="#0B2EE5"/>
<stop offset="1" stop-color="#0CE3EF"/>
</linearGradient>
<linearGradient id="paint69_linear" x1="2858.53" y1="809.945" x2="-1334.82" y2="809.945" gradientUnits="userSpaceOnUse">
<stop stop-color="#0B2EE5"/>
<stop offset="1" stop-color="#0CE3EF"/>
</linearGradient>
<linearGradient id="paint70_linear" x1="2858.53" y1="808.716" x2="-1334.82" y2="808.716" gradientUnits="userSpaceOnUse">
<stop stop-color="#0B2EE5"/>
<stop offset="1" stop-color="#0CE3EF"/>
</linearGradient>
<linearGradient id="paint71_linear" x1="2858.52" y1="765.292" x2="-1334.8" y2="765.292" gradientUnits="userSpaceOnUse">
<stop stop-color="#0B2EE5"/>
<stop offset="1" stop-color="#0CE3EF"/>
</linearGradient>
<linearGradient id="paint72_linear" x1="2858.54" y1="903.485" x2="-1334.82" y2="903.485" gradientUnits="userSpaceOnUse">
<stop stop-color="#0B2EE5"/>
<stop offset="1" stop-color="#0CE3EF"/>
</linearGradient>
<linearGradient id="paint73_linear" x1="2858.53" y1="769.303" x2="-1334.81" y2="769.303" gradientUnits="userSpaceOnUse">
<stop stop-color="#0B2EE5"/>
<stop offset="1" stop-color="#0CE3EF"/>
</linearGradient>
<linearGradient id="paint74_linear" x1="2858.55" y1="778.995" x2="-1334.83" y2="778.995" gradientUnits="userSpaceOnUse">
<stop stop-color="#0B2EE5"/>
<stop offset="1" stop-color="#0CE3EF"/>
</linearGradient>
<linearGradient id="paint75_linear" x1="2858.53" y1="791.753" x2="-1334.81" y2="791.753" gradientUnits="userSpaceOnUse">
<stop stop-color="#0B2EE5"/>
<stop offset="1" stop-color="#0CE3EF"/>
</linearGradient>
<linearGradient id="paint76_linear" x1="2858.52" y1="763.537" x2="-1334.8" y2="763.537" gradientUnits="userSpaceOnUse">
<stop stop-color="#0B2EE5"/>
<stop offset="1" stop-color="#0CE3EF"/>
</linearGradient>
<linearGradient id="paint77_linear" x1="2858.51" y1="789.337" x2="-1334.79" y2="789.337" gradientUnits="userSpaceOnUse">
<stop stop-color="#0B2EE5"/>
<stop offset="1" stop-color="#0CE3EF"/>
</linearGradient>
<linearGradient id="paint78_linear" x1="2858.53" y1="815.781" x2="-1334.8" y2="815.781" gradientUnits="userSpaceOnUse">
<stop stop-color="#0B2EE5"/>
<stop offset="1" stop-color="#0CE3EF"/>
</linearGradient>
<linearGradient id="paint79_linear" x1="2858.54" y1="798.226" x2="-1334.82" y2="798.226" gradientUnits="userSpaceOnUse">
<stop stop-color="#0B2EE5"/>
<stop offset="1" stop-color="#0CE3EF"/>
</linearGradient>
<linearGradient id="paint80_linear" x1="2858.52" y1="787.407" x2="-1334.8" y2="787.407" gradientUnits="userSpaceOnUse">
<stop stop-color="#0B2EE5"/>
<stop offset="1" stop-color="#0CE3EF"/>
</linearGradient>
<linearGradient id="paint81_linear" x1="2858.52" y1="781.603" x2="-1334.8" y2="781.603" gradientUnits="userSpaceOnUse">
<stop stop-color="#0B2EE5"/>
<stop offset="1" stop-color="#0CE3EF"/>
</linearGradient>
<linearGradient id="paint82_linear" x1="2858.5" y1="796.277" x2="-1334.78" y2="796.277" gradientUnits="userSpaceOnUse">
<stop stop-color="#0B2EE5"/>
<stop offset="1" stop-color="#0CE3EF"/>
</linearGradient>
<linearGradient id="paint83_linear" x1="2858.53" y1="451.735" x2="-1334.82" y2="451.735" gradientUnits="userSpaceOnUse">
<stop stop-color="#0B2EE5"/>
<stop offset="1" stop-color="#0CE3EF"/>
</linearGradient>
<linearGradient id="paint84_linear" x1="2858.52" y1="794.332" x2="-1334.8" y2="794.332" gradientUnits="userSpaceOnUse">
<stop stop-color="#0B2EE5"/>
<stop offset="1" stop-color="#0CE3EF"/>
</linearGradient>
<linearGradient id="paint85_linear" x1="2858.53" y1="825.513" x2="-1334.82" y2="825.513" gradientUnits="userSpaceOnUse">
<stop stop-color="#0B2EE5"/>
<stop offset="1" stop-color="#0CE3EF"/>
</linearGradient>
<linearGradient id="paint86_linear" x1="2858.53" y1="816.287" x2="-1334.81" y2="816.287" gradientUnits="userSpaceOnUse">
<stop stop-color="#0B2EE5"/>
<stop offset="1" stop-color="#0CE3EF"/>
</linearGradient>
<linearGradient id="paint87_linear" x1="2858.53" y1="725.762" x2="-1334.81" y2="725.762" gradientUnits="userSpaceOnUse">
<stop stop-color="#0B2EE5"/>
<stop offset="1" stop-color="#0CE3EF"/>
</linearGradient>
<linearGradient id="paint88_linear" x1="2858.54" y1="813.513" x2="-1334.83" y2="813.513" gradientUnits="userSpaceOnUse">
<stop stop-color="#0B2EE5"/>
<stop offset="1" stop-color="#0CE3EF"/>
</linearGradient>
<linearGradient id="paint89_linear" x1="2858.52" y1="814.656" x2="-1334.78" y2="814.656" gradientUnits="userSpaceOnUse">
<stop stop-color="#0B2EE5"/>
<stop offset="1" stop-color="#0CE3EF"/>
</linearGradient>
<linearGradient id="paint90_linear" x1="2858.52" y1="785.473" x2="-1334.8" y2="785.473" gradientUnits="userSpaceOnUse">
<stop stop-color="#0B2EE5"/>
<stop offset="1" stop-color="#0CE3EF"/>
</linearGradient>
<linearGradient id="paint91_linear" x1="2858.53" y1="783.537" x2="-1334.81" y2="783.537" gradientUnits="userSpaceOnUse">
<stop stop-color="#0B2EE5"/>
<stop offset="1" stop-color="#0CE3EF"/>
</linearGradient>
<linearGradient id="paint92_linear" x1="2858.53" y1="802.292" x2="-1334.82" y2="802.292" gradientUnits="userSpaceOnUse">
<stop stop-color="#0B2EE5"/>
<stop offset="1" stop-color="#0CE3EF"/>
</linearGradient>
<linearGradient id="paint93_linear" x1="2858.54" y1="903.437" x2="-1334.82" y2="903.437" gradientUnits="userSpaceOnUse">
<stop stop-color="#0B2EE5"/>
<stop offset="1" stop-color="#0CE3EF"/>
</linearGradient>
<linearGradient id="paint94_linear" x1="2858.52" y1="803.606" x2="-1334.79" y2="803.606" gradientUnits="userSpaceOnUse">
<stop stop-color="#0B2EE5"/>
<stop offset="1" stop-color="#0CE3EF"/>
</linearGradient>
<linearGradient id="paint95_linear" x1="2858.53" y1="752.976" x2="-1334.81" y2="752.976" gradientUnits="userSpaceOnUse">
<stop stop-color="#0B2EE5"/>
<stop offset="1" stop-color="#0CE3EF"/>
</linearGradient>
<linearGradient id="paint96_linear" x1="2858.53" y1="754.56" x2="-1334.81" y2="754.56" gradientUnits="userSpaceOnUse">
<stop stop-color="#0B2EE5"/>
<stop offset="1" stop-color="#0CE3EF"/>
</linearGradient>
<linearGradient id="paint97_linear" x1="2858.51" y1="756.179" x2="-1334.79" y2="756.179" gradientUnits="userSpaceOnUse">
<stop stop-color="#0B2EE5"/>
<stop offset="1" stop-color="#0CE3EF"/>
</linearGradient>
<linearGradient id="paint98_linear" x1="2858.51" y1="804.91" x2="-1334.76" y2="804.91" gradientUnits="userSpaceOnUse">
<stop stop-color="#0B2EE5"/>
<stop offset="1" stop-color="#0CE3EF"/>
</linearGradient>
<linearGradient id="paint99_linear" x1="2858.54" y1="903.334" x2="-1334.82" y2="903.334" gradientUnits="userSpaceOnUse">
<stop stop-color="#0B2EE5"/>
<stop offset="1" stop-color="#0CE3EF"/>
</linearGradient>
<linearGradient id="paint100_linear" x1="2858.52" y1="749.703" x2="-1334.8" y2="749.703" gradientUnits="userSpaceOnUse">
<stop stop-color="#0B2EE5"/>
<stop offset="1" stop-color="#0CE3EF"/>
</linearGradient>
<linearGradient id="paint101_linear" x1="2858.53" y1="757.873" x2="-1334.82" y2="757.873" gradientUnits="userSpaceOnUse">
<stop stop-color="#0B2EE5"/>
<stop offset="1" stop-color="#0CE3EF"/>
</linearGradient>
<linearGradient id="paint102_linear" x1="2858.53" y1="855.541" x2="-1334.82" y2="855.541" gradientUnits="userSpaceOnUse">
<stop stop-color="#0B2EE5"/>
<stop offset="1" stop-color="#0CE3EF"/>
</linearGradient>
<linearGradient id="paint103_linear" x1="2858.54" y1="800.957" x2="-1334.83" y2="800.957" gradientUnits="userSpaceOnUse">
<stop stop-color="#0B2EE5"/>
<stop offset="1" stop-color="#0CE3EF"/>
</linearGradient>
<linearGradient id="paint104_linear" x1="2858.54" y1="751.404" x2="-1334.83" y2="751.404" gradientUnits="userSpaceOnUse">
<stop stop-color="#0B2EE5"/>
<stop offset="1" stop-color="#0CE3EF"/>
</linearGradient>
<linearGradient id="paint105_linear" x1="2858.53" y1="807.463" x2="-1334.82" y2="807.463" gradientUnits="userSpaceOnUse">
<stop stop-color="#0B2EE5"/>
<stop offset="1" stop-color="#0CE3EF"/>
</linearGradient>
<linearGradient id="paint106_linear" x1="2858.53" y1="903.489" x2="-1334.81" y2="903.489" gradientUnits="userSpaceOnUse">
<stop stop-color="#0B2EE5"/>
<stop offset="1" stop-color="#0CE3EF"/>
</linearGradient>
<linearGradient id="paint107_linear" x1="2858.52" y1="761.802" x2="-1334.8" y2="761.802" gradientUnits="userSpaceOnUse">
<stop stop-color="#0B2EE5"/>
<stop offset="1" stop-color="#0CE3EF"/>
</linearGradient>
<linearGradient id="paint108_linear" x1="2858.54" y1="806.197" x2="-1334.84" y2="806.197" gradientUnits="userSpaceOnUse">
<stop stop-color="#0B2EE5"/>
<stop offset="1" stop-color="#0CE3EF"/>
</linearGradient>
<linearGradient id="paint109_linear" x1="2858.53" y1="852.601" x2="-1334.82" y2="852.601" gradientUnits="userSpaceOnUse">
<stop stop-color="#0B2EE5"/>
<stop offset="1" stop-color="#0CE3EF"/>
</linearGradient>
<linearGradient id="paint110_linear" x1="2858.56" y1="760.055" x2="-1334.85" y2="760.055" gradientUnits="userSpaceOnUse">
<stop stop-color="#0B2EE5"/>
<stop offset="1" stop-color="#0CE3EF"/>
</linearGradient>
<linearGradient id="paint111_linear" x1="1855.32" y1="884.443" x2="7.82929" y2="856.868" gradientUnits="userSpaceOnUse">
<stop stop-color="#0B2EE5"/>
<stop offset="1" stop-color="#0CE3EF"/>
</linearGradient>
<linearGradient id="paint112_linear" x1="1854.64" y1="925.903" x2="7.22327" y2="898.358" gradientUnits="userSpaceOnUse">
<stop stop-color="#0B2EE5"/>
<stop offset="1" stop-color="#0CE3EF"/>
</linearGradient>
<linearGradient id="paint113_linear" x1="1855.3" y1="885.842" x2="7.80864" y2="858.269" gradientUnits="userSpaceOnUse">
<stop stop-color="#0B2EE5"/>
<stop offset="1" stop-color="#0CE3EF"/>
</linearGradient>
<linearGradient id="paint114_linear" x1="1854.64" y1="925.917" x2="7.22437" y2="898.345" gradientUnits="userSpaceOnUse">
<stop stop-color="#0B2EE5"/>
<stop offset="1" stop-color="#0CE3EF"/>
</linearGradient>
<linearGradient id="paint115_linear" x1="1855.36" y1="881.633" x2="7.87138" y2="854.058" gradientUnits="userSpaceOnUse">
<stop stop-color="#0B2EE5"/>
<stop offset="1" stop-color="#0CE3EF"/>
</linearGradient>
<linearGradient id="paint116_linear" x1="1855.38" y1="880.229" x2="7.89222" y2="852.656" gradientUnits="userSpaceOnUse">
<stop stop-color="#0B2EE5"/>
<stop offset="1" stop-color="#0CE3EF"/>
</linearGradient>
<linearGradient id="paint117_linear" x1="1854.71" y1="925.968" x2="7.20747" y2="898.42" gradientUnits="userSpaceOnUse">
<stop stop-color="#0B2EE5"/>
<stop offset="1" stop-color="#0CE3EF"/>
</linearGradient>
<linearGradient id="paint118_linear" x1="1855.52" y1="871.244" x2="8.02664" y2="843.669" gradientUnits="userSpaceOnUse">
<stop stop-color="#0B2EE5"/>
<stop offset="1" stop-color="#0CE3EF"/>
</linearGradient>
<linearGradient id="paint119_linear" x1="1855.4" y1="878.817" x2="7.91357" y2="851.241" gradientUnits="userSpaceOnUse">
<stop stop-color="#0B2EE5"/>
<stop offset="1" stop-color="#0CE3EF"/>
</linearGradient>
<linearGradient id="paint120_linear" x1="1855.34" y1="883.043" x2="7.85053" y2="855.467" gradientUnits="userSpaceOnUse">
<stop stop-color="#0B2EE5"/>
<stop offset="1" stop-color="#0CE3EF"/>
</linearGradient>
<linearGradient id="paint121_linear" x1="1854.73" y1="924.818" x2="7.22388" y2="897.27" gradientUnits="userSpaceOnUse">
<stop stop-color="#0B2EE5"/>
<stop offset="1" stop-color="#0CE3EF"/>
</linearGradient>
<linearGradient id="paint122_linear" x1="1855.15" y1="896.708" x2="7.64568" y2="869.132" gradientUnits="userSpaceOnUse">
<stop stop-color="#0B2EE5"/>
<stop offset="1" stop-color="#0CE3EF"/>
</linearGradient>
<linearGradient id="paint123_linear" x1="1855.24" y1="889.994" x2="7.74655" y2="862.423" gradientUnits="userSpaceOnUse">
<stop stop-color="#0B2EE5"/>
<stop offset="1" stop-color="#0CE3EF"/>
</linearGradient>
<linearGradient id="paint124_linear" x1="1854.72" y1="925.133" x2="7.22005" y2="897.585" gradientUnits="userSpaceOnUse">
<stop stop-color="#0B2EE5"/>
<stop offset="1" stop-color="#0CE3EF"/>
</linearGradient>
<linearGradient id="paint125_linear" x1="1855.08" y1="898.019" x2="44.4056" y2="870.993" gradientUnits="userSpaceOnUse">
<stop stop-color="#0B2EE5"/>
<stop offset="1" stop-color="#0CE3EF"/>
</linearGradient>
<linearGradient id="paint126_linear" x1="1854.73" y1="923.524" x2="7.24723" y2="895.892" gradientUnits="userSpaceOnUse">
<stop stop-color="#0B2EE5"/>
<stop offset="1" stop-color="#0CE3EF"/>
</linearGradient>
<linearGradient id="paint127_linear" x1="1855.17" y1="894.057" x2="7.68598" y2="866.483" gradientUnits="userSpaceOnUse">
<stop stop-color="#0B2EE5"/>
<stop offset="1" stop-color="#0CE3EF"/>
</linearGradient>
<linearGradient id="paint128_linear" x1="1855.22" y1="891.356" x2="7.72641" y2="863.782" gradientUnits="userSpaceOnUse">
<stop stop-color="#0B2EE5"/>
<stop offset="1" stop-color="#0CE3EF"/>
</linearGradient>
<linearGradient id="paint129_linear" x1="1854.74" y1="924.409" x2="7.22992" y2="896.804" gradientUnits="userSpaceOnUse">
<stop stop-color="#0B2EE5"/>
<stop offset="1" stop-color="#0CE3EF"/>
</linearGradient>
<linearGradient id="paint130_linear" x1="1854.72" y1="923.977" x2="7.2424" y2="896.345" gradientUnits="userSpaceOnUse">
<stop stop-color="#0B2EE5"/>
<stop offset="1" stop-color="#0CE3EF"/>
</linearGradient>
<linearGradient id="paint131_linear" x1="1855.2" y1="892.709" x2="7.70618" y2="865.13" gradientUnits="userSpaceOnUse">
<stop stop-color="#0B2EE5"/>
<stop offset="1" stop-color="#0CE3EF"/>
</linearGradient>
<linearGradient id="paint132_linear" x1="1855.15" y1="895.393" x2="7.66648" y2="867.825" gradientUnits="userSpaceOnUse">
<stop stop-color="#0B2EE5"/>
<stop offset="1" stop-color="#0CE3EF"/>
</linearGradient>
<linearGradient id="paint133_linear" x1="1855.28" y1="887.236" x2="7.78767" y2="859.665" gradientUnits="userSpaceOnUse">
<stop stop-color="#0B2EE5"/>
<stop offset="1" stop-color="#0CE3EF"/>
</linearGradient>
<linearGradient id="paint134_linear" x1="1854.68" y1="925.4" x2="7.22362" y2="897.853" gradientUnits="userSpaceOnUse">
<stop stop-color="#0B2EE5"/>
<stop offset="1" stop-color="#0CE3EF"/>
</linearGradient>
<linearGradient id="paint135_linear" x1="215.845" y1="874.851" x2="21.8035" y2="871.958" gradientUnits="userSpaceOnUse">
<stop stop-color="#0B2EE5"/>
<stop offset="1" stop-color="#0CE3EF"/>
</linearGradient>
<linearGradient id="paint136_linear" x1="1854.64" y1="925.716" x2="7.22728" y2="898.086" gradientUnits="userSpaceOnUse">
<stop stop-color="#0B2EE5"/>
<stop offset="1" stop-color="#0CE3EF"/>
</linearGradient>
<linearGradient id="paint137_linear" x1="1854.7" y1="925.617" x2="7.21453" y2="898.069" gradientUnits="userSpaceOnUse">
<stop stop-color="#0B2EE5"/>
<stop offset="1" stop-color="#0CE3EF"/>
</linearGradient>
<linearGradient id="paint138_linear" x1="1855.25" y1="888.615" x2="7.76771" y2="861.042" gradientUnits="userSpaceOnUse">
<stop stop-color="#0B2EE5"/>
<stop offset="1" stop-color="#0CE3EF"/>
</linearGradient>
<linearGradient id="paint139_linear" x1="1854.78" y1="923.098" x2="552.996" y2="903.687" gradientUnits="userSpaceOnUse">
<stop stop-color="#0B2EE5"/>
<stop offset="1" stop-color="#0CE3EF"/>
</linearGradient>
<linearGradient id="paint140_linear" x1="2858.53" y1="451.75" x2="-1334.82" y2="451.75" gradientUnits="userSpaceOnUse">
<stop stop-color="#0B2EE5"/>
<stop offset="1" stop-color="#0CE3EF"/>
</linearGradient>
<linearGradient id="paint141_linear" x1="1861.54" y1="467.791" x2="14.0483" y2="440.216" gradientUnits="userSpaceOnUse">
<stop stop-color="#0B2EE5"/>
<stop offset="1" stop-color="#0CE3EF"/>
</linearGradient>
<linearGradient id="paint142_linear" x1="1856.34" y1="816.655" x2="8.72017" y2="789.076" gradientUnits="userSpaceOnUse">
<stop stop-color="#0B2EE5"/>
<stop offset="1" stop-color="#0CE3EF"/>
</linearGradient>
<linearGradient id="paint143_linear" x1="1856.36" y1="817.711" x2="421.045" y2="796.27" gradientUnits="userSpaceOnUse">
<stop stop-color="#0B2EE5"/>
<stop offset="1" stop-color="#0CE3EF"/>
</linearGradient>
<linearGradient id="paint144_linear" x1="1747.82" y1="817.121" x2="1640.95" y2="815.525" gradientUnits="userSpaceOnUse">
<stop stop-color="#0B2EE5"/>
<stop offset="1" stop-color="#0CE3EF"/>
</linearGradient>
<linearGradient id="paint145_linear" x1="1856.56" y1="801.082" x2="9.07267" y2="773.507" gradientUnits="userSpaceOnUse">
<stop stop-color="#0B2EE5"/>
<stop offset="1" stop-color="#0CE3EF"/>
</linearGradient>
<linearGradient id="paint146_linear" x1="1856.68" y1="793.067" x2="9.20237" y2="765.492" gradientUnits="userSpaceOnUse">
<stop stop-color="#0B2EE5"/>
<stop offset="1" stop-color="#0CE3EF"/>
</linearGradient>
<linearGradient id="paint147_linear" x1="1856.35" y1="815.576" x2="8.79496" y2="787.989" gradientUnits="userSpaceOnUse">
<stop stop-color="#0B2EE5"/>
<stop offset="1" stop-color="#0CE3EF"/>
</linearGradient>
<linearGradient id="paint148_linear" x1="1856.63" y1="795.777" x2="9.24937" y2="768.207" gradientUnits="userSpaceOnUse">
<stop stop-color="#0B2EE5"/>
<stop offset="1" stop-color="#0CE3EF"/>
</linearGradient>
<linearGradient id="paint149_linear" x1="1856.64" y1="797.12" x2="9.04212" y2="769.543" gradientUnits="userSpaceOnUse">
<stop stop-color="#0B2EE5"/>
<stop offset="1" stop-color="#0CE3EF"/>
</linearGradient>
<linearGradient id="paint150_linear" x1="1856.6" y1="798.451" x2="9.10729" y2="770.875" gradientUnits="userSpaceOnUse">
<stop stop-color="#0B2EE5"/>
<stop offset="1" stop-color="#0CE3EF"/>
</linearGradient>
<linearGradient id="paint151_linear" x1="1856.82" y1="783.753" x2="9.32907" y2="756.179" gradientUnits="userSpaceOnUse">
<stop stop-color="#0B2EE5"/>
<stop offset="1" stop-color="#0CE3EF"/>
</linearGradient>
<linearGradient id="paint152_linear" x1="1856.77" y1="787.472" x2="9.27694" y2="759.896" gradientUnits="userSpaceOnUse">
<stop stop-color="#0B2EE5"/>
<stop offset="1" stop-color="#0CE3EF"/>
</linearGradient>
<linearGradient id="paint153_linear" x1="1856.57" y1="799.772" x2="9.17108" y2="772.201" gradientUnits="userSpaceOnUse">
<stop stop-color="#0B2EE5"/>
<stop offset="1" stop-color="#0CE3EF"/>
</linearGradient>
<linearGradient id="paint154_linear" x1="1856.7" y1="791.693" x2="9.23471" y2="764.118" gradientUnits="userSpaceOnUse">
<stop stop-color="#0B2EE5"/>
<stop offset="1" stop-color="#0CE3EF"/>
</linearGradient>
<linearGradient id="paint155_linear" x1="1856.73" y1="790.298" x2="9.19599" y2="762.722" gradientUnits="userSpaceOnUse">
<stop stop-color="#0B2EE5"/>
<stop offset="1" stop-color="#0CE3EF"/>
</linearGradient>
<linearGradient id="paint156_linear" x1="1856.74" y1="788.896" x2="9.29454" y2="761.321" gradientUnits="userSpaceOnUse">
<stop stop-color="#0B2EE5"/>
<stop offset="1" stop-color="#0CE3EF"/>
</linearGradient>
<linearGradient id="paint157_linear" x1="1856.65" y1="794.423" x2="9.22811" y2="766.852" gradientUnits="userSpaceOnUse">
<stop stop-color="#0B2EE5"/>
<stop offset="1" stop-color="#0CE3EF"/>
</linearGradient>
<linearGradient id="paint158_linear" x1="1856.53" y1="802.377" x2="9.16236" y2="774.803" gradientUnits="userSpaceOnUse">
<stop stop-color="#0B2EE5"/>
<stop offset="1" stop-color="#0CE3EF"/>
</linearGradient>
<linearGradient id="paint159_linear" x1="1856.4" y1="812.202" x2="8.86997" y2="784.621" gradientUnits="userSpaceOnUse">
<stop stop-color="#0B2EE5"/>
<stop offset="1" stop-color="#0CE3EF"/>
</linearGradient>
<linearGradient id="paint160_linear" x1="1856.44" y1="809.851" x2="8.8615" y2="782.276" gradientUnits="userSpaceOnUse">
<stop stop-color="#0B2EE5"/>
<stop offset="1" stop-color="#0CE3EF"/>
</linearGradient>
<linearGradient id="paint161_linear" x1="1856.36" y1="813.35" x2="9.0786" y2="785.784" gradientUnits="userSpaceOnUse">
<stop stop-color="#0B2EE5"/>
<stop offset="1" stop-color="#0CE3EF"/>
</linearGradient>
<linearGradient id="paint162_linear" x1="1856.36" y1="814.474" x2="8.94166" y2="786.898" gradientUnits="userSpaceOnUse">
<stop stop-color="#0B2EE5"/>
<stop offset="1" stop-color="#0CE3EF"/>
</linearGradient>
<linearGradient id="paint163_linear" x1="1856.45" y1="808.646" x2="8.97006" y2="781.069" gradientUnits="userSpaceOnUse">
<stop stop-color="#0B2EE5"/>
<stop offset="1" stop-color="#0CE3EF"/>
</linearGradient>
<linearGradient id="paint164_linear" x1="1856.41" y1="811.036" x2="8.94698" y2="783.463" gradientUnits="userSpaceOnUse">
<stop stop-color="#0B2EE5"/>
<stop offset="1" stop-color="#0CE3EF"/>
</linearGradient>
<linearGradient id="paint165_linear" x1="1856.49" y1="804.93" x2="9.1135" y2="777.363" gradientUnits="userSpaceOnUse">
<stop stop-color="#0B2EE5"/>
<stop offset="1" stop-color="#0CE3EF"/>
</linearGradient>
<linearGradient id="paint166_linear" x1="1856.48" y1="807.424" x2="8.86877" y2="779.846" gradientUnits="userSpaceOnUse">
<stop stop-color="#0B2EE5"/>
<stop offset="1" stop-color="#0CE3EF"/>
</linearGradient>
<linearGradient id="paint167_linear" x1="1856.52" y1="803.662" x2="9.05658" y2="776.089" gradientUnits="userSpaceOnUse">
<stop stop-color="#0B2EE5"/>
<stop offset="1" stop-color="#0CE3EF"/>
</linearGradient>
<linearGradient id="paint168_linear" x1="1856.51" y1="806.185" x2="8.85657" y2="778.608" gradientUnits="userSpaceOnUse">
<stop stop-color="#0B2EE5"/>
<stop offset="1" stop-color="#0CE3EF"/>
</linearGradient>
<linearGradient id="paint169_linear" x1="2858.53" y1="421.297" x2="-1334.82" y2="421.297" gradientUnits="userSpaceOnUse">
<stop stop-color="#0B2EE5"/>
<stop offset="1" stop-color="#0CE3EF"/>
</linearGradient>
<linearGradient id="paint170_linear" x1="1862.19" y1="424.375" x2="14.6962" y2="396.8" gradientUnits="userSpaceOnUse">
<stop stop-color="#0B2EE5"/>
<stop offset="1" stop-color="#0CE3EF"/>
</linearGradient>
<linearGradient id="paint171_linear" x1="1855.32" y1="851.998" x2="843.496" y2="836.899" gradientUnits="userSpaceOnUse">
<stop stop-color="#0B2EE5"/>
<stop offset="1" stop-color="#0CE3EF"/>
</linearGradient>
<linearGradient id="paint172_linear" x1="1856.84" y1="782.151" x2="9.35944" y2="754.577" gradientUnits="userSpaceOnUse">
<stop stop-color="#0B2EE5"/>
<stop offset="1" stop-color="#0CE3EF"/>
</linearGradient>
<linearGradient id="paint173_linear" x1="1856.81" y1="784.473" x2="9.32354" y2="756.897" gradientUnits="userSpaceOnUse">
<stop stop-color="#0B2EE5"/>
<stop offset="1" stop-color="#0CE3EF"/>
</linearGradient>
<linearGradient id="paint174_linear" x1="1856.89" y1="780.109" x2="9.3768" y2="752.534" gradientUnits="userSpaceOnUse">
<stop stop-color="#0B2EE5"/>
<stop offset="1" stop-color="#0CE3EF"/>
</linearGradient>
<linearGradient id="paint175_linear" x1="1856.79" y1="786.494" x2="9.28482" y2="758.919" gradientUnits="userSpaceOnUse">
<stop stop-color="#0B2EE5"/>
<stop offset="1" stop-color="#0CE3EF"/>
</linearGradient>
<linearGradient id="paint176_linear" x1="1856.45" y1="810.414" x2="8.91524" y2="782.84" gradientUnits="userSpaceOnUse">
<stop stop-color="#0B2EE5"/>
<stop offset="1" stop-color="#0CE3EF"/>
</linearGradient>
<linearGradient id="paint177_linear" x1="1856.9" y1="778.24" x2="9.41468" y2="750.666" gradientUnits="userSpaceOnUse">
<stop stop-color="#0B2EE5"/>
<stop offset="1" stop-color="#0CE3EF"/>
</linearGradient>
<linearGradient id="paint178_linear" x1="1856.99" y1="772.488" x2="9.50291" y2="744.913" gradientUnits="userSpaceOnUse">
<stop stop-color="#0B2EE5"/>
<stop offset="1" stop-color="#0CE3EF"/>
</linearGradient>
<linearGradient id="paint179_linear" x1="1857.02" y1="770.496" x2="9.52908" y2="742.921" gradientUnits="userSpaceOnUse">
<stop stop-color="#0B2EE5"/>
<stop offset="1" stop-color="#0CE3EF"/>
</linearGradient>
<linearGradient id="paint180_linear" x1="1857.05" y1="768.718" x2="9.5486" y2="741.141" gradientUnits="userSpaceOnUse">
<stop stop-color="#0B2EE5"/>
<stop offset="1" stop-color="#0CE3EF"/>
</linearGradient>
<linearGradient id="paint181_linear" x1="1856.75" y1="788.443" x2="9.26611" y2="760.869" gradientUnits="userSpaceOnUse">
<stop stop-color="#0B2EE5"/>
<stop offset="1" stop-color="#0CE3EF"/>
</linearGradient>
<linearGradient id="paint182_linear" x1="1857.06" y1="767.011" x2="9.58981" y2="739.436" gradientUnits="userSpaceOnUse">
<stop stop-color="#0B2EE5"/>
<stop offset="1" stop-color="#0CE3EF"/>
</linearGradient>
<linearGradient id="paint183_linear" x1="1856.94" y1="776.399" x2="9.43465" y2="748.825" gradientUnits="userSpaceOnUse">
<stop stop-color="#0B2EE5"/>
<stop offset="1" stop-color="#0CE3EF"/>
</linearGradient>
<linearGradient id="paint184_linear" x1="1856.95" y1="774.544" x2="9.47754" y2="746.97" gradientUnits="userSpaceOnUse">
<stop stop-color="#0B2EE5"/>
<stop offset="1" stop-color="#0CE3EF"/>
</linearGradient>
<linearGradient id="paint185_linear" x1="1856.54" y1="803.201" x2="9.03269" y2="775.626" gradientUnits="userSpaceOnUse">
<stop stop-color="#0B2EE5"/>
<stop offset="1" stop-color="#0CE3EF"/>
</linearGradient>
<linearGradient id="paint186_linear" x1="1856.51" y1="804.979" x2="9.00897" y2="777.405" gradientUnits="userSpaceOnUse">
<stop stop-color="#0B2EE5"/>
<stop offset="1" stop-color="#0CE3EF"/>
</linearGradient>
<linearGradient id="paint187_linear" x1="1856.57" y1="801.207" x2="9.06215" y2="773.632" gradientUnits="userSpaceOnUse">
<stop stop-color="#0B2EE5"/>
<stop offset="1" stop-color="#0CE3EF"/>
</linearGradient>
<linearGradient id="paint188_linear" x1="1856.72" y1="790.397" x2="9.2332" y2="762.823" gradientUnits="userSpaceOnUse">
<stop stop-color="#0B2EE5"/>
<stop offset="1" stop-color="#0CE3EF"/>
</linearGradient>
<linearGradient id="paint189_linear" x1="1856.4" y1="812.414" x2="8.90295" y2="784.839" gradientUnits="userSpaceOnUse">
<stop stop-color="#0B2EE5"/>
<stop offset="1" stop-color="#0CE3EF"/>
</linearGradient>
<linearGradient id="paint190_linear" x1="1856.38" y1="814.381" x2="8.86468" y2="786.811" gradientUnits="userSpaceOnUse">
<stop stop-color="#0B2EE5"/>
<stop offset="1" stop-color="#0CE3EF"/>
</linearGradient>
<linearGradient id="paint191_linear" x1="1856.45" y1="808.509" x2="8.96295" y2="780.933" gradientUnits="userSpaceOnUse">
<stop stop-color="#0B2EE5"/>
<stop offset="1" stop-color="#0CE3EF"/>
</linearGradient>
<linearGradient id="paint192_linear" x1="1856.69" y1="792.376" x2="9.20759" y2="764.801" gradientUnits="userSpaceOnUse">
<stop stop-color="#0B2EE5"/>
<stop offset="1" stop-color="#0CE3EF"/>
</linearGradient>
<linearGradient id="paint193_linear" x1="1855.79" y1="849.802" x2="8.37681" y2="822.24" gradientUnits="userSpaceOnUse">
<stop stop-color="#0B2EE5"/>
<stop offset="1" stop-color="#0CE3EF"/>
</linearGradient>
<linearGradient id="paint194_linear" x1="1856.64" y1="797.184" x2="9.11624" y2="769.609" gradientUnits="userSpaceOnUse">
<stop stop-color="#0B2EE5"/>
<stop offset="1" stop-color="#0CE3EF"/>
</linearGradient>
<linearGradient id="paint195_linear" x1="1856.66" y1="794.857" x2="9.16665" y2="767.283" gradientUnits="userSpaceOnUse">
<stop stop-color="#0B2EE5"/>
<stop offset="1" stop-color="#0CE3EF"/>
</linearGradient>
<linearGradient id="paint196_linear" x1="1856.58" y1="799.197" x2="9.11389" y2="771.623" gradientUnits="userSpaceOnUse">
<stop stop-color="#0B2EE5"/>
<stop offset="1" stop-color="#0CE3EF"/>
</linearGradient>
<linearGradient id="paint197_linear" x1="1857.45" y1="741.358" x2="9.96604" y2="713.782" gradientUnits="userSpaceOnUse">
<stop stop-color="#0B2EE5"/>
<stop offset="1" stop-color="#0CE3EF"/>
</linearGradient>
<linearGradient id="paint198_linear" x1="1857.44" y1="742.375" x2="9.94497" y2="714.803" gradientUnits="userSpaceOnUse">
<stop stop-color="#0B2EE5"/>
<stop offset="1" stop-color="#0CE3EF"/>
</linearGradient>
<linearGradient id="paint199_linear" x1="1857.55" y1="735.205" x2="10.0531" y2="707.631" gradientUnits="userSpaceOnUse">
<stop stop-color="#0B2EE5"/>
<stop offset="1" stop-color="#0CE3EF"/>
</linearGradient>
<linearGradient id="paint200_linear" x1="1857.48" y1="740.326" x2="9.97195" y2="712.751" gradientUnits="userSpaceOnUse">
<stop stop-color="#0B2EE5"/>
<stop offset="1" stop-color="#0CE3EF"/>
</linearGradient>
<linearGradient id="paint201_linear" x1="1857.39" y1="745.775" x2="9.8972" y2="718.2" gradientUnits="userSpaceOnUse">
<stop stop-color="#0B2EE5"/>
<stop offset="1" stop-color="#0CE3EF"/>
</linearGradient>
<linearGradient id="paint202_linear" x1="1857.42" y1="743.409" x2="9.94064" y2="715.835" gradientUnits="userSpaceOnUse">
<stop stop-color="#0B2EE5"/>
<stop offset="1" stop-color="#0CE3EF"/>
</linearGradient>
<linearGradient id="paint203_linear" x1="1857.48" y1="739.357" x2="10.0049" y2="711.781" gradientUnits="userSpaceOnUse">
<stop stop-color="#0B2EE5"/>
<stop offset="1" stop-color="#0CE3EF"/>
</linearGradient>
<linearGradient id="paint204_linear" x1="1857.42" y1="744.5" x2="9.89612" y2="716.925" gradientUnits="userSpaceOnUse">
<stop stop-color="#0B2EE5"/>
<stop offset="1" stop-color="#0CE3EF"/>
</linearGradient>
<linearGradient id="paint205_linear" x1="1857.53" y1="736.262" x2="10.0394" y2="708.688" gradientUnits="userSpaceOnUse">
<stop stop-color="#0B2EE5"/>
<stop offset="1" stop-color="#0CE3EF"/>
</linearGradient>
<linearGradient id="paint206_linear" x1="1857.1" y1="765.323" x2="9.60505" y2="737.749" gradientUnits="userSpaceOnUse">
<stop stop-color="#0B2EE5"/>
<stop offset="1" stop-color="#0CE3EF"/>
</linearGradient>
<linearGradient id="paint207_linear" x1="1857.5" y1="738.504" x2="10.0106" y2="710.928" gradientUnits="userSpaceOnUse">
<stop stop-color="#0B2EE5"/>
<stop offset="1" stop-color="#0CE3EF"/>
</linearGradient>
<linearGradient id="paint208_linear" x1="1857.5" y1="737.732" x2="10.0259" y2="710.157" gradientUnits="userSpaceOnUse">
<stop stop-color="#0B2EE5"/>
<stop offset="1" stop-color="#0CE3EF"/>
</linearGradient>
<linearGradient id="paint209_linear" x1="1857.52" y1="737.005" x2="10.031" y2="709.429" gradientUnits="userSpaceOnUse">
<stop stop-color="#0B2EE5"/>
<stop offset="1" stop-color="#0CE3EF"/>
</linearGradient>
<linearGradient id="paint210_linear" x1="1857.53" y1="735.626" x2="10.0599" y2="708.056" gradientUnits="userSpaceOnUse">
<stop stop-color="#0B2EE5"/>
<stop offset="1" stop-color="#0CE3EF"/>
</linearGradient>
<linearGradient id="paint211_linear" x1="1857.17" y1="760.026" x2="9.68759" y2="732.451" gradientUnits="userSpaceOnUse">
<stop stop-color="#0B2EE5"/>
<stop offset="1" stop-color="#0CE3EF"/>
</linearGradient>
<linearGradient id="paint212_linear" x1="1857.19" y1="758.471" x2="9.71619" y2="730.896" gradientUnits="userSpaceOnUse">
<stop stop-color="#0B2EE5"/>
<stop offset="1" stop-color="#0CE3EF"/>
</linearGradient>
<linearGradient id="paint213_linear" x1="1857.23" y1="756.964" x2="9.72544" y2="729.39" gradientUnits="userSpaceOnUse">
<stop stop-color="#0B2EE5"/>
<stop offset="1" stop-color="#0CE3EF"/>
</linearGradient>
<linearGradient id="paint214_linear" x1="1857.15" y1="761.791" x2="9.66448" y2="734.217" gradientUnits="userSpaceOnUse">
<stop stop-color="#0B2EE5"/>
<stop offset="1" stop-color="#0CE3EF"/>
</linearGradient>
<linearGradient id="paint215_linear" x1="1857.25" y1="755.452" x2="9.74641" y2="727.877" gradientUnits="userSpaceOnUse">
<stop stop-color="#0B2EE5"/>
<stop offset="1" stop-color="#0CE3EF"/>
</linearGradient>
<linearGradient id="paint216_linear" x1="1857.12" y1="763.538" x2="9.6371" y2="735.963" gradientUnits="userSpaceOnUse">
<stop stop-color="#0B2EE5"/>
<stop offset="1" stop-color="#0CE3EF"/>
</linearGradient>
<linearGradient id="paint217_linear" x1="1857.34" y1="748.333" x2="9.86811" y2="720.758" gradientUnits="userSpaceOnUse">
<stop stop-color="#0B2EE5"/>
<stop offset="1" stop-color="#0CE3EF"/>
</linearGradient>
<linearGradient id="paint218_linear" x1="1857.38" y1="746.975" x2="9.87284" y2="719.401" gradientUnits="userSpaceOnUse">
<stop stop-color="#0B2EE5"/>
<stop offset="1" stop-color="#0CE3EF"/>
</linearGradient>
<linearGradient id="paint219_linear" x1="1857.31" y1="750.919" x2="9.8288" y2="723.345" gradientUnits="userSpaceOnUse">
<stop stop-color="#0B2EE5"/>
<stop offset="1" stop-color="#0CE3EF"/>
</linearGradient>
<linearGradient id="paint220_linear" x1="1857.32" y1="749.611" x2="9.8528" y2="722.037" gradientUnits="userSpaceOnUse">
<stop stop-color="#0B2EE5"/>
<stop offset="1" stop-color="#0CE3EF"/>
</linearGradient>
<linearGradient id="paint221_linear" x1="1857.29" y1="752.311" x2="9.80452" y2="724.738" gradientUnits="userSpaceOnUse">
<stop stop-color="#0B2EE5"/>
<stop offset="1" stop-color="#0CE3EF"/>
</linearGradient>
<linearGradient id="paint222_linear" x1="1857.27" y1="753.848" x2="9.77389" y2="726.272" gradientUnits="userSpaceOnUse">
<stop stop-color="#0B2EE5"/>
<stop offset="1" stop-color="#0CE3EF"/>
</linearGradient>
<linearGradient id="paint223_linear" x1="2858.53" y1="709.109" x2="-1334.82" y2="709.109" gradientUnits="userSpaceOnUse">
<stop stop-color="#0B2EE5"/>
<stop offset="1" stop-color="#0CE3EF"/>
</linearGradient>
<linearGradient id="paint224_linear" x1="1857.71" y1="724.005" x2="10.2243" y2="696.431" gradientUnits="userSpaceOnUse">
<stop stop-color="#0B2EE5"/>
<stop offset="1" stop-color="#0CE3EF"/>
</linearGradient>
</defs>
</svg>
