<svg width="184" height="209" viewBox="0 0 184 209" fill="none" xmlns="http://www.w3.org/2000/svg">
<path d="M25.15 152.478V162.507L33.79 167.517L95.42 203.067L104.37 208.208L113.32 203.067L174.95 167.517L183.59 162.507V152.478V81.0674V71.0374L174.89 66.0273L113 30.2874L104.37 25.2773L95.74 30.2874L34.1 65.8374L25.15 71.0374V80.3674V152.478Z" fill="#0CE3EF"/>
<path d="M94.4 152.107C89.36 152.107 85.27 148.007 85.27 142.967C85.27 137.927 89.37 133.827 94.4 133.827C99.43 133.827 103.54 137.927 103.54 142.967C103.54 148.007 99.44 152.107 94.4 152.107Z" fill="white"/>
<path d="M94.4 135.687C98.42 135.687 101.69 138.947 101.69 142.977C101.69 147.007 98.43 150.267 94.4 150.267C90.38 150.267 87.11 147.007 87.11 142.977C87.11 138.947 90.38 135.687 94.4 135.687ZM94.4 131.997C88.34 131.997 83.42 136.927 83.42 142.977C83.42 149.027 88.35 153.957 94.4 153.957C100.45 153.957 105.38 149.027 105.38 142.977C105.38 136.927 100.46 131.997 94.4 131.997Z" fill="#0B2EE5"/>
<path d="M91.6801 197.647L81.8101 191.978L20.17 156.427L10.61 150.877V116.238H14.3101V148.748L22.02 153.228L83.65 188.767L91.6801 193.377L99.71 188.767L161.34 153.228L169.04 148.748V103.728H172.74V150.877L163.19 156.427L101.55 191.968L91.6801 197.647Z" fill="#0B2EE5"/>
<path d="M14.3101 103.987H10.61V57.2771L20.48 51.5471L82.12 15.9973L91.6801 10.4473L101.24 15.9973L172.74 57.2771V91.5371H169.04V59.4072L91.6801 14.7173L83.97 19.1873L22.33 54.7373L14.3101 59.4072V103.987Z" fill="#0B2EE5"/>
<path d="M12.45 67.667C17.9949 67.667 22.49 63.1719 22.49 57.627C22.49 52.082 17.9949 47.5869 12.45 47.5869C6.90501 47.5869 2.41003 52.082 2.41003 57.627C2.41003 63.1719 6.90501 67.667 12.45 67.667Z" fill="#0CE3EF"/>
<path d="M12.45 69.5068C5.89995 69.5068 0.569946 64.177 0.569946 57.627C0.569946 51.077 5.89995 45.7471 12.45 45.7471C19 45.7471 24.33 51.077 24.33 57.627C24.33 64.177 19 69.5068 12.45 69.5068ZM12.45 49.437C7.92995 49.437 4.26001 53.107 4.26001 57.627C4.26001 62.147 7.92995 65.8169 12.45 65.8169C16.96 65.8169 20.64 62.147 20.64 57.627C20.64 53.107 16.96 49.437 12.45 49.437Z" fill="#0B2EE5"/>
<path d="M91.67 22.6172C97.215 22.6172 101.71 18.1221 101.71 12.5771C101.71 7.03221 97.215 2.53711 91.67 2.53711C86.1251 2.53711 81.63 7.03221 81.63 12.5771C81.63 18.1221 86.1251 22.6172 91.67 22.6172Z" fill="#0CE3EF"/>
<path d="M91.67 24.4573C85.12 24.4573 79.79 19.1271 79.79 12.5771C79.79 6.02715 85.12 0.697266 91.67 0.697266C98.22 0.697266 103.55 6.02715 103.55 12.5771C103.56 19.1271 98.23 24.4573 91.67 24.4573ZM91.67 4.38721C87.15 4.38721 83.48 8.05715 83.48 12.5771C83.48 17.0971 87.15 20.7671 91.67 20.7671C96.18 20.7671 99.86 17.0971 99.86 12.5771C99.86 8.05715 96.19 4.38721 91.67 4.38721Z" fill="#0B2EE5"/>
<path d="M91.67 204.877C97.215 204.877 101.71 200.382 101.71 194.837C101.71 189.292 97.215 184.797 91.67 184.797C86.1251 184.797 81.63 189.292 81.63 194.837C81.63 200.382 86.1251 204.877 91.67 204.877Z" fill="#0CE3EF"/>
<path d="M91.67 206.727C85.12 206.727 79.79 201.397 79.79 194.847C79.79 188.297 85.12 182.967 91.67 182.967C98.22 182.967 103.55 188.297 103.55 194.847C103.56 201.397 98.23 206.727 91.67 206.727ZM91.67 186.657C87.15 186.657 83.48 190.327 83.48 194.847C83.48 199.367 87.15 203.037 91.67 203.037C96.18 203.037 99.86 199.367 99.86 194.847C99.86 190.327 96.19 186.657 91.67 186.657Z" fill="#0B2EE5"/>
<path d="M12.45 159.837C17.9949 159.837 22.49 155.342 22.49 149.797C22.49 144.252 17.9949 139.757 12.45 139.757C6.90501 139.757 2.41003 144.252 2.41003 149.797C2.41003 155.342 6.90501 159.837 12.45 159.837Z" fill="#0CE3EF"/>
<path d="M12.45 161.677C5.89995 161.677 0.569946 156.347 0.569946 149.797C0.569946 143.247 5.89995 137.917 12.45 137.917C19 137.917 24.33 143.247 24.33 149.797C24.33 156.347 19 161.677 12.45 161.677ZM12.45 141.607C7.92995 141.607 4.26001 145.277 4.26001 149.797C4.26001 154.317 7.92995 157.987 12.45 157.987C16.96 157.987 20.64 154.317 20.64 149.797C20.64 145.277 16.96 141.607 12.45 141.607Z" fill="#0B2EE5"/>
<path d="M170.9 68.3672C176.445 68.3672 180.94 63.8721 180.94 58.3271C180.94 52.7822 176.445 48.2871 170.9 48.2871C165.355 48.2871 160.86 52.7822 160.86 58.3271C160.86 63.8721 165.355 68.3672 170.9 68.3672Z" fill="#0CE3EF"/>
<path d="M170.9 70.2073C164.35 70.2073 159.02 64.8771 159.02 58.3271C159.02 51.7771 164.35 46.4473 170.9 46.4473C177.45 46.4473 182.78 51.7771 182.78 58.3271C182.78 64.8771 177.45 70.2073 170.9 70.2073ZM170.9 50.1372C166.39 50.1372 162.71 53.8071 162.71 58.3271C162.71 62.8471 166.38 66.5171 170.9 66.5171C175.42 66.5171 179.09 62.8471 179.09 58.3271C179.09 53.8071 175.42 50.1372 170.9 50.1372Z" fill="#0B2EE5"/>
<path d="M170.9 159.837C176.445 159.837 180.94 155.342 180.94 149.797C180.94 144.252 176.445 139.757 170.9 139.757C165.355 139.757 160.86 144.252 160.86 149.797C160.86 155.342 165.355 159.837 170.9 159.837Z" fill="#0CE3EF"/>
<path d="M170.9 161.677C164.35 161.677 159.02 156.347 159.02 149.797C159.02 143.247 164.35 137.917 170.9 137.917C177.45 137.917 182.78 143.247 182.78 149.797C182.78 156.347 177.45 161.677 170.9 161.677ZM170.9 141.607C166.39 141.607 162.71 145.277 162.71 149.797C162.71 154.317 166.38 157.987 170.9 157.987C175.42 157.987 179.09 154.317 179.09 149.797C179.09 145.277 175.41 141.607 170.9 141.607Z" fill="#0B2EE5"/>
<path d="M65.27 75.8569C62.24 75.8569 59.78 73.3969 59.78 70.3669C59.78 67.3369 62.24 64.877 65.27 64.877C68.3 64.877 70.76 67.3369 70.76 70.3669C70.76 73.3969 68.3 75.8569 65.27 75.8569Z" fill="white"/>
<path d="M65.27 66.7273C67.28 66.7273 68.91 68.3572 68.91 70.3672C68.91 72.3772 67.28 74.0071 65.27 74.0071C63.26 74.0071 61.63 72.3772 61.63 70.3672C61.63 68.3572 63.26 66.7273 65.27 66.7273ZM65.27 63.0371C61.22 63.0371 57.9301 66.3272 57.9301 70.3772C57.9301 74.4272 61.22 77.7173 65.27 77.7173C69.32 77.7173 72.61 74.4272 72.61 70.3772C72.61 66.3272 69.32 63.0371 65.27 63.0371Z" fill="#0B2EE5"/>
<path d="M52.52 148.697C47.48 148.697 43.38 144.597 43.38 139.557C43.38 134.517 47.48 130.417 52.52 130.417C57.56 130.417 61.65 134.517 61.65 139.557C61.65 144.597 57.56 148.697 52.52 148.697Z" fill="white"/>
<path d="M52.52 132.277C56.54 132.277 59.8101 135.537 59.8101 139.567C59.8101 143.597 56.55 146.857 52.52 146.857C48.5 146.857 45.23 143.597 45.23 139.567C45.23 135.537 48.5 132.277 52.52 132.277ZM52.52 128.587C46.46 128.587 41.54 133.517 41.54 139.567C41.54 145.617 46.47 150.547 52.52 150.547C58.57 150.547 63.5 145.617 63.5 139.567C63.5 133.517 58.58 128.587 52.52 128.587Z" fill="#0B2EE5"/>
<path d="M123.54 134.126C126.572 134.126 129.03 131.669 129.03 128.636C129.03 125.604 126.572 123.146 123.54 123.146C120.508 123.146 118.05 125.604 118.05 128.636C118.05 131.669 120.508 134.126 123.54 134.126Z" fill="white"/>
<path d="M123.54 124.987C125.55 124.987 127.19 126.617 127.19 128.637C127.19 130.657 125.56 132.287 123.54 132.287C121.53 132.287 119.89 130.657 119.89 128.637C119.89 126.617 121.53 124.987 123.54 124.987ZM123.54 121.297C119.49 121.297 116.2 124.587 116.2 128.637C116.2 132.687 119.49 135.977 123.54 135.977C127.59 135.977 130.88 132.687 130.88 128.637C130.88 124.587 127.59 121.297 123.54 121.297Z" fill="#0B2EE5"/>
<path d="M130.64 74.2571C125.5 74.2571 121.32 70.0773 121.32 64.9373C121.32 59.7973 125.5 55.6172 130.64 55.6172C135.78 55.6172 139.96 59.7973 139.96 64.9373C139.96 70.0773 135.77 74.2571 130.64 74.2571Z" fill="white"/>
<path d="M130.64 57.4675C134.77 57.4675 138.11 60.8075 138.11 64.9375C138.11 69.0675 134.77 72.4075 130.64 72.4075C126.51 72.4075 123.17 69.0675 123.17 64.9375C123.17 60.8075 126.51 57.4675 130.64 57.4675ZM130.64 53.7773C124.48 53.7773 119.47 58.7875 119.47 64.9475C119.47 71.1075 124.48 76.1174 130.64 76.1174C136.8 76.1174 141.81 71.1075 141.81 64.9475C141.81 58.7875 136.79 53.7773 130.64 53.7773Z" fill="#0B2EE5"/>
<path d="M121.934 68.9397L58.4009 132.473L61.0173 135.089L124.55 71.5561L121.934 68.9397Z" fill="#0B2EE5"/>
<path d="M70.1863 72.6963L67.5701 75.3125L118.538 126.28L121.154 123.664L70.1863 72.6963Z" fill="#0B2EE5"/>
<path d="M96.25 113.107H92.55V133.468H96.25V113.107Z" fill="#0B2EE5"/>
<path d="M94.4 113.938C102.408 113.938 108.9 107.446 108.9 99.4375C108.9 91.4294 102.408 84.9375 94.4 84.9375C86.3919 84.9375 79.9 91.4294 79.9 99.4375C79.9 107.446 86.3919 113.938 94.4 113.938Z" fill="#0CE3EF"/>
<path d="M94.4 115.787C85.38 115.787 78.05 108.457 78.05 99.437C78.05 90.417 85.38 83.0869 94.4 83.0869C103.42 83.0869 110.75 90.417 110.75 99.437C110.75 108.457 103.42 115.787 94.4 115.787ZM94.4 86.7869C87.42 86.7869 81.75 92.467 81.75 99.437C81.75 106.407 87.43 112.087 94.4 112.087C101.37 112.087 107.05 106.407 107.05 99.437C107.05 92.467 101.38 86.7869 94.4 86.7869Z" fill="#0B2EE5"/>
</svg>
