<svg width="183" height="201" viewBox="0 0 183 201" fill="none" xmlns="http://www.w3.org/2000/svg">
<g filter="url(#filter0_d)">
<g filter="url(#filter1_d)">
<path d="M30.6699 65.3674V135.547L91.45 170.637L152.22 135.547V65.3674L91.45 30.2773L30.6699 65.3674Z" fill="url(#paint0_linear)"/>
</g>
</g>
<path d="M104.42 97.4277H71.8499C69.6999 97.4277 67.96 99.1676 67.96 101.318V127.368C67.96 129.518 69.6999 131.258 71.8499 131.258H104.42C106.57 131.258 108.31 129.518 108.31 127.368V101.318C108.31 99.1576 106.57 97.4277 104.42 97.4277Z" fill="#0CE3EF"/>
<path d="M74.13 89.0176C74.13 85.1876 75.62 81.5977 78.32 78.8977C81.03 76.1877 84.62 74.7078 88.44 74.7078C96.33 74.7078 102.76 81.1276 102.76 89.0276V97.4377H105.13V89.0276C105.13 79.8276 97.65 72.3477 88.45 72.3477C83.99 72.3477 79.8 74.0878 76.65 77.2378C73.5 80.3878 71.76 84.5776 71.76 89.0276V97.4377H74.13V89.0176Z" fill="#0CE3EF"/>
<path d="M107.62 128.587H75.05C72.25 128.587 69.97 126.307 69.97 123.507V118.517H72.34V123.507C72.34 124.997 73.56 126.217 75.05 126.217H107.62C109.11 126.217 110.33 124.997 110.33 123.507V109.207H112.7V123.507C112.7 126.317 110.42 128.587 107.62 128.587Z" fill="#0B2EE5"/>
<path d="M72.34 113.787H69.97V97.457C69.97 94.657 72.25 92.377 75.05 92.377H107.62C110.42 92.377 112.7 94.657 112.7 97.457V104.317H110.33V97.457C110.33 95.967 109.11 94.7471 107.62 94.7471H75.05C73.56 94.7471 72.34 95.967 72.34 97.457V113.787Z" fill="#0B2EE5"/>
<path d="M108.33 93.5671H105.96V85.1672C105.96 77.2772 99.54 70.8472 91.64 70.8472C87.82 70.8472 84.2199 72.3371 81.5099 75.0471C78.8099 77.7471 77.3199 81.3472 77.3199 85.1672V93.5671H74.95V85.1672C74.95 80.7072 76.68 76.5272 79.84 73.3772C82.99 70.2272 87.18 68.4873 91.64 68.4873C100.84 68.4873 108.32 75.9672 108.32 85.1672V93.5671H108.33Z" fill="#0B2EE5"/>
<path d="M95.9899 105.678C95.9899 103.108 93.91 101.018 91.33 101.018C88.76 101.018 86.6699 103.108 86.6699 105.678C86.6699 107.278 87.4799 108.698 88.7199 109.538V120.888H93.6299V109.708C95.0399 108.898 95.9899 107.408 95.9899 105.678Z" fill="#0B2EE5"/>
<path d="M110.9 130.207C113.131 130.207 114.94 128.398 114.94 126.167C114.94 123.936 113.131 122.127 110.9 122.127C108.669 122.127 106.86 123.936 106.86 126.167C106.86 128.398 108.669 130.207 110.9 130.207Z" fill="#0CE3EF"/>
<path d="M110.9 131.337C108.05 131.337 105.73 129.017 105.73 126.167C105.73 123.317 108.05 120.997 110.9 120.997C113.75 120.997 116.07 123.317 116.07 126.167C116.07 129.017 113.75 131.337 110.9 131.337ZM110.9 123.267C109.3 123.267 108 124.567 108 126.167C108 127.767 109.3 129.067 110.9 129.067C112.5 129.067 113.8 127.767 113.8 126.167C113.79 124.567 112.49 123.267 110.9 123.267Z" fill="#0B2EE5"/>
<path d="M80.14 78.1475C82.3712 78.1475 84.18 76.3387 84.18 74.1074C84.18 71.8762 82.3712 70.0674 80.14 70.0674C77.9088 70.0674 76.1 71.8762 76.1 74.1074C76.1 76.3387 77.9088 78.1475 80.14 78.1475Z" fill="#0CE3EF"/>
<path d="M80.14 79.2871C77.29 79.2871 74.97 76.9672 74.97 74.1172C74.97 71.2672 77.29 68.9473 80.14 68.9473C82.99 68.9473 85.31 71.2672 85.31 74.1172C85.31 76.9672 82.99 79.2871 80.14 79.2871ZM80.14 71.2173C78.54 71.2173 77.24 72.5172 77.24 74.1172C77.24 75.7172 78.54 77.0171 80.14 77.0171C81.74 77.0171 83.04 75.7172 83.04 74.1172C83.04 72.5172 81.73 71.2173 80.14 71.2173Z" fill="#0B2EE5"/>
<defs>
<filter id="filter0_d" x="0.669922" y="0.277344" width="181.55" height="200.36" filterUnits="userSpaceOnUse" color-interpolation-filters="sRGB">
<feFlood flood-opacity="0" result="BackgroundImageFix"/>
<feColorMatrix in="SourceAlpha" type="matrix" values="0 0 0 0 0 0 0 0 0 0 0 0 0 0 0 0 0 0 127 0"/>
<feOffset/>
<feGaussianBlur stdDeviation="15"/>
<feColorMatrix type="matrix" values="0 0 0 0 0.0431373 0 0 0 0 0.180392 0 0 0 0 0.898039 0 0 0 0.19 0"/>
<feBlend mode="normal" in2="BackgroundImageFix" result="effect1_dropShadow"/>
<feBlend mode="normal" in="SourceGraphic" in2="effect1_dropShadow" result="shape"/>
</filter>
<filter id="filter1_d" x="5.66992" y="5.27734" width="171.55" height="190.36" filterUnits="userSpaceOnUse" color-interpolation-filters="sRGB">
<feFlood flood-opacity="0" result="BackgroundImageFix"/>
<feColorMatrix in="SourceAlpha" type="matrix" values="0 0 0 0 0 0 0 0 0 0 0 0 0 0 0 0 0 0 127 0"/>
<feOffset/>
<feGaussianBlur stdDeviation="12.5"/>
<feColorMatrix type="matrix" values="0 0 0 0 0.129412 0 0 0 0 0.160784 0 0 0 0 0.866667 0 0 0 0.35 0"/>
<feBlend mode="normal" in2="BackgroundImageFix" result="effect1_dropShadow"/>
<feBlend mode="normal" in="SourceGraphic" in2="effect1_dropShadow" result="shape"/>
</filter>
<linearGradient id="paint0_linear" x1="30.6677" y1="100.461" x2="152.224" y2="100.461" gradientUnits="userSpaceOnUse">
<stop offset="0.1242" stop-color="white"/>
<stop offset="0.9272" stop-color="white"/>
</linearGradient>
</defs>
</svg>
