<svg width="126" height="138" viewBox="0 0 126 138" fill="none" xmlns="http://www.w3.org/2000/svg">
<g filter="url(#filter0_d)">
<path d="M25.3 47.5767V90.9568L62.8701 112.637L100.43 90.9568V47.5767L62.8701 25.8867L25.3 47.5767Z" fill="url(#paint0_linear)"/>
</g>
<path d="M70.7701 65.4568V61.8066C70.7701 57.8466 67.55 54.6367 63.6 54.6367C61.68 54.6367 59.8801 55.3868 58.5301 56.7368C57.1801 58.0868 56.4301 59.8966 56.4301 61.8066V65.4268C55.5201 65.4468 54.79 66.1867 54.79 67.0967V78.2966C54.79 79.2266 55.5401 79.9668 56.4601 79.9668H70.4601C71.3901 79.9668 72.1301 79.2166 72.1301 78.2966V67.0967C72.1401 66.2767 71.5501 65.5968 70.7701 65.4568ZM59.2501 57.4568C60.4101 56.2968 61.96 55.6567 63.6 55.6567C66.99 55.6567 69.7601 58.4167 69.7601 61.8167V65.4268H57.4501V61.8167C57.4501 60.1667 58.0901 58.6168 59.2501 57.4568Z" fill="#0CE3EF"/>
<path d="M52.6999 66.3059H47.1899C45.3699 66.3059 43.8899 64.8259 43.8899 63.0059V59.4561H44.8699V63.0059C44.8699 64.2859 45.9099 65.3259 47.1899 65.3259H52.6999V66.3059Z" fill="#0CE3EF"/>
<path d="M83.03 84.9966H82.05V81.4465C82.05 80.1665 81.01 79.1265 79.73 79.1265H74.22V78.1465H79.73C81.55 78.1465 83.03 79.6265 83.03 81.4465V84.9966Z" fill="#0CE3EF"/>
<path d="M44.8599 84.9966H43.8799V81.4465C43.8799 79.6265 45.3599 78.1465 47.1799 78.1465H52.6899V79.1265H47.1799C45.8999 79.1265 44.8599 80.1665 44.8599 81.4465V84.9966Z" fill="#0CE3EF"/>
<path d="M63.98 81.6865H63V90.0063H63.98V81.6865Z" fill="#0CE3EF"/>
<path d="M79.76 67.146H74.25V66.166H79.76C81.04 66.166 82.08 65.1259 82.08 63.8459V60.2959H83.06V63.8459C83.06 65.6659 81.58 67.146 79.76 67.146Z" fill="#0CE3EF"/>
<path d="M63.98 44.5957H63V52.9158H63.98V44.5957Z" fill="#0CE3EF"/>
<path d="M44.39 61.136C45.3123 61.136 46.06 60.3884 46.06 59.4661C46.06 58.5437 45.3123 57.7959 44.39 57.7959C43.4677 57.7959 42.72 58.5437 42.72 59.4661C42.72 60.3884 43.4677 61.136 44.39 61.136Z" fill="white"/>
<path d="M44.39 61.616C43.2 61.616 42.23 60.6461 42.23 59.4561C42.23 58.2661 43.2 57.2959 44.39 57.2959C45.58 57.2959 46.55 58.2661 46.55 59.4561C46.55 60.6461 45.58 61.616 44.39 61.616ZM44.39 58.2859C43.74 58.2859 43.21 58.8161 43.21 59.4661C43.21 60.1161 43.74 60.646 44.39 60.646C45.04 60.646 45.57 60.1161 45.57 59.4661C45.57 58.8161 45.04 58.2859 44.39 58.2859Z" fill="#0CE3EF"/>
<path d="M82.5399 86.6663C83.4622 86.6663 84.2099 85.9187 84.2099 84.9963C84.2099 84.074 83.4622 83.3262 82.5399 83.3262C81.6175 83.3262 80.8699 84.074 80.8699 84.9963C80.8699 85.9187 81.6175 86.6663 82.5399 86.6663Z" fill="white"/>
<path d="M82.5399 87.156C81.3499 87.156 80.3799 86.1861 80.3799 84.9961C80.3799 83.8061 81.3499 82.8359 82.5399 82.8359C83.7299 82.8359 84.6999 83.8061 84.6999 84.9961C84.6999 86.1861 83.7299 87.156 82.5399 87.156ZM82.5399 83.8159C81.8899 83.8159 81.3599 84.3461 81.3599 84.9961C81.3599 85.6461 81.8899 86.176 82.5399 86.176C83.1899 86.176 83.7198 85.6461 83.7198 84.9961C83.7198 84.3461 83.1899 83.8159 82.5399 83.8159Z" fill="#0CE3EF"/>
<path d="M44.3699 86.6565C45.2922 86.6565 46.0399 85.9089 46.0399 84.9866C46.0399 84.0643 45.2922 83.3164 44.3699 83.3164C43.4476 83.3164 42.7 84.0643 42.7 84.9866C42.7 85.9089 43.4476 86.6565 44.3699 86.6565Z" fill="white"/>
<path d="M44.37 87.1462C43.18 87.1462 42.21 86.1763 42.21 84.9863C42.21 83.7963 43.18 82.8262 44.37 82.8262C45.56 82.8262 46.53 83.7963 46.53 84.9863C46.53 86.1763 45.56 87.1462 44.37 87.1462ZM44.37 83.8162C43.72 83.8162 43.19 84.3463 43.19 84.9963C43.19 85.6463 43.72 86.1763 44.37 86.1763C45.02 86.1763 45.55 85.6463 45.55 84.9963C45.55 84.3363 45.02 83.8162 44.37 83.8162Z" fill="#0CE3EF"/>
<path d="M63.4901 91.8665C64.4124 91.8665 65.16 91.1188 65.16 90.1965C65.16 89.2742 64.4124 88.5264 63.4901 88.5264C62.5677 88.5264 61.8201 89.2742 61.8201 90.1965C61.8201 91.1188 62.5677 91.8665 63.4901 91.8665Z" fill="white"/>
<path d="M63.4901 92.3562C62.3001 92.3562 61.3301 91.3863 61.3301 90.1963C61.3301 89.0063 62.3001 88.0361 63.4901 88.0361C64.6801 88.0361 65.6501 89.0063 65.6501 90.1963C65.6501 91.3863 64.6801 92.3562 63.4901 92.3562ZM63.4901 89.0261C62.8401 89.0261 62.3101 89.5563 62.3101 90.2063C62.3101 90.8563 62.8401 91.3862 63.4901 91.3862C64.1401 91.3862 64.67 90.8563 64.67 90.2063C64.67 89.5463 64.1401 89.0261 63.4901 89.0261Z" fill="#0CE3EF"/>
<path d="M82.5699 61.967C83.4922 61.967 84.2399 61.2192 84.2399 60.2969C84.2399 59.3746 83.4922 58.627 82.5699 58.627C81.6476 58.627 80.8999 59.3746 80.8999 60.2969C80.8999 61.2192 81.6476 61.967 82.5699 61.967Z" fill="white"/>
<path d="M82.5699 62.4568C81.3799 62.4568 80.4099 61.4866 80.4099 60.2966C80.4099 59.1066 81.3799 58.1367 82.5699 58.1367C83.7599 58.1367 84.7299 59.1066 84.7299 60.2966C84.7299 61.4866 83.7599 62.4568 82.5699 62.4568ZM82.5699 59.1167C81.9199 59.1167 81.39 59.6466 81.39 60.2966C81.39 60.9466 81.9199 61.4768 82.5699 61.4768C83.2199 61.4768 83.7499 60.9466 83.7499 60.2966C83.7499 59.6466 83.2199 59.1167 82.5699 59.1167Z" fill="#0CE3EF"/>
<path d="M63.4901 46.0664C64.4124 46.0664 65.16 45.3188 65.16 44.3965C65.16 43.4742 64.4124 42.7266 63.4901 42.7266C62.5677 42.7266 61.8201 43.4742 61.8201 44.3965C61.8201 45.3188 62.5677 46.0664 63.4901 46.0664Z" fill="white"/>
<path d="M63.4901 46.5562C62.3001 46.5562 61.3301 45.5862 61.3301 44.3962C61.3301 43.2062 62.3001 42.2363 63.4901 42.2363C64.6801 42.2363 65.6501 43.2062 65.6501 44.3962C65.6501 45.5862 64.6801 46.5562 63.4901 46.5562ZM63.4901 43.2263C62.8401 43.2263 62.3101 43.7563 62.3101 44.4062C62.3101 45.0563 62.8401 45.5862 63.4901 45.5862C64.1401 45.5862 64.67 45.0563 64.67 44.4062C64.67 43.7462 64.1401 43.2263 63.4901 43.2263Z" fill="#0CE3EF"/>
<path d="M51.0099 67.0159H45.4999C43.6799 67.0159 42.2 65.5361 42.2 63.7161V60.166H43.1799V63.7161C43.1799 64.9961 44.2199 66.0359 45.4999 66.0359H51.0099V67.0159Z" fill="#0B2EE5"/>
<path d="M81.34 85.7065H80.36V82.1565C80.36 80.8765 79.32 79.8364 78.04 79.8364H72.53V78.8564H78.04C79.86 78.8564 81.34 80.3365 81.34 82.1565V85.7065Z" fill="#0B2EE5"/>
<path d="M43.17 85.7065H42.1899V82.1565C42.1899 80.3365 43.6699 78.8564 45.4899 78.8564H50.9999V79.8364H45.4899C44.2099 79.8364 43.17 80.8765 43.17 82.1565V85.7065Z" fill="#0B2EE5"/>
<path d="M62.29 82.3965H61.3101V90.7065H62.29V82.3965Z" fill="#0B2EE5"/>
<path d="M78.0601 67.856H72.55V66.876H78.0601C79.3401 66.876 80.3801 65.8359 80.3801 64.5559V61.0059H81.36V64.5559C81.36 66.3759 79.8801 67.856 78.0601 67.856Z" fill="#0B2EE5"/>
<path d="M62.29 45.3066H61.3101V53.6267H62.29V45.3066Z" fill="#0B2EE5"/>
<path d="M68.53 80.4768H55.0599C53.8999 80.4768 52.96 79.5367 52.96 78.3767V76.3167H53.9399V78.3767C53.9399 78.9967 54.4399 79.4968 55.0599 79.4968H68.53C69.15 79.4968 69.65 78.9967 69.65 78.3767V72.4668H70.6299V78.3767C70.6299 79.5367 69.69 80.4768 68.53 80.4768Z" fill="#0B2EE5"/>
<path d="M53.95 74.356H52.97V67.606C52.97 66.446 53.91 65.5059 55.07 65.5059H68.54C69.7 65.5059 70.64 66.446 70.64 67.606V70.446H69.66V67.606C69.66 66.986 69.16 66.4861 68.54 66.4861H55.07C54.45 66.4861 53.95 66.986 53.95 67.606V74.356Z" fill="#0B2EE5"/>
<path d="M68.83 65.9961H67.85V62.5259C67.85 59.2659 65.19 56.606 61.93 56.606C60.35 56.606 58.86 57.2259 57.74 58.3359C56.62 59.4559 56.01 60.9359 56.01 62.5259V65.9961H55.03V62.5259C55.03 60.6859 55.75 58.956 57.05 57.646C58.35 56.346 60.09 55.626 61.93 55.626C65.73 55.626 68.83 58.7159 68.83 62.5259V65.9961Z" fill="#0B2EE5"/>
<path d="M61.8001 72.9363C62.866 72.9363 63.7301 72.072 63.7301 71.0061C63.7301 69.9402 62.866 69.0762 61.8001 69.0762C60.7342 69.0762 59.8701 69.9402 59.8701 71.0061C59.8701 72.072 60.7342 72.9363 61.8001 72.9363Z" fill="#0B2EE5"/>
<path d="M62.75 72.0264H60.72V77.2864H62.75V72.0264Z" fill="#0B2EE5"/>
<path d="M69.89 81.1467C70.8123 81.1467 71.56 80.3991 71.56 79.4768C71.56 78.5545 70.8123 77.8066 69.89 77.8066C68.9677 77.8066 68.22 78.5545 68.22 79.4768C68.22 80.3991 68.9677 81.1467 69.89 81.1467Z" fill="#0CE3EF"/>
<path d="M69.89 81.6267C68.7 81.6267 67.73 80.6568 67.73 79.4668C67.73 78.2768 68.7 77.3066 69.89 77.3066C71.08 77.3066 72.05 78.2768 72.05 79.4668C72.05 80.6568 71.08 81.6267 69.89 81.6267ZM69.89 78.2966C69.24 78.2966 68.71 78.8268 68.71 79.4768C68.71 80.1268 69.24 80.6567 69.89 80.6567C70.54 80.6567 71.07 80.1268 71.07 79.4768C71.07 78.8268 70.54 78.2966 69.89 78.2966Z" fill="#0B2EE5"/>
<path d="M57.17 59.6165C58.0923 59.6165 58.84 58.8688 58.84 57.9465C58.84 57.0242 58.0923 56.2764 57.17 56.2764C56.2477 56.2764 55.5 57.0242 55.5 57.9465C55.5 58.8688 56.2477 59.6165 57.17 59.6165Z" fill="#0CE3EF"/>
<path d="M57.17 60.1062C55.98 60.1062 55.01 59.1363 55.01 57.9463C55.01 56.7563 55.98 55.7861 57.17 55.7861C58.36 55.7861 59.33 56.7563 59.33 57.9463C59.33 59.1363 58.36 60.1062 57.17 60.1062ZM57.17 56.7761C56.52 56.7761 55.99 57.3063 55.99 57.9563C55.99 58.6063 56.52 59.1362 57.17 59.1362C57.82 59.1362 58.35 58.6063 58.35 57.9563C58.35 57.3063 57.82 56.7761 57.17 56.7761Z" fill="#0B2EE5"/>
<path d="M42.7 61.8459C43.6224 61.8459 44.37 61.0983 44.37 60.176C44.37 59.2537 43.6224 58.5059 42.7 58.5059C41.7777 58.5059 41.03 59.2537 41.03 60.176C41.03 61.0983 41.7777 61.8459 42.7 61.8459Z" fill="#0CE3EF"/>
<path d="M42.7 62.3259C41.51 62.3259 40.54 61.356 40.54 60.166C40.54 58.976 41.51 58.0059 42.7 58.0059C43.89 58.0059 44.86 58.976 44.86 60.166C44.86 61.356 43.89 62.3259 42.7 62.3259ZM42.7 58.9961C42.05 58.9961 41.52 59.526 41.52 60.176C41.52 60.826 42.05 61.356 42.7 61.356C43.35 61.356 43.88 60.826 43.88 60.176C43.88 59.526 43.35 58.9961 42.7 58.9961Z" fill="#0B2EE5"/>
<path d="M80.8499 87.3762C81.7722 87.3762 82.52 86.6286 82.52 85.7063C82.52 84.784 81.7722 84.0361 80.8499 84.0361C79.9276 84.0361 79.1799 84.784 79.1799 85.7063C79.1799 86.6286 79.9276 87.3762 80.8499 87.3762Z" fill="#0CE3EF"/>
<path d="M80.8499 87.866C79.6599 87.866 78.6899 86.8961 78.6899 85.7061C78.6899 84.5161 79.6599 83.5459 80.8499 83.5459C82.0399 83.5459 83.0099 84.5161 83.0099 85.7061C83.0099 86.8961 82.0399 87.866 80.8499 87.866ZM80.8499 84.5259C80.1999 84.5259 79.6699 85.0561 79.6699 85.7061C79.6699 86.3561 80.1999 86.886 80.8499 86.886C81.4999 86.886 82.03 86.3561 82.03 85.7061C82.03 85.0561 81.4999 84.5259 80.8499 84.5259Z" fill="#0B2EE5"/>
<path d="M42.68 87.3665C43.6023 87.3665 44.35 86.6188 44.35 85.6965C44.35 84.7742 43.6023 84.0264 42.68 84.0264C41.7577 84.0264 41.01 84.7742 41.01 85.6965C41.01 86.6188 41.7577 87.3665 42.68 87.3665Z" fill="#0CE3EF"/>
<path d="M42.68 87.8562C41.49 87.8562 40.52 86.8863 40.52 85.6963C40.52 84.5063 41.49 83.5361 42.68 83.5361C43.87 83.5361 44.84 84.5063 44.84 85.6963C44.84 86.8863 43.87 87.8562 42.68 87.8562ZM42.68 84.5161C42.03 84.5161 41.5 85.0463 41.5 85.6963C41.5 86.3463 42.03 86.8762 42.68 86.8762C43.33 86.8762 43.86 86.3463 43.86 85.6963C43.86 85.0463 43.33 84.5161 42.68 84.5161Z" fill="#0B2EE5"/>
<path d="M61.8001 92.5762C62.7224 92.5762 63.4701 91.8286 63.4701 90.9062C63.4701 89.9839 62.7224 89.2363 61.8001 89.2363C60.8778 89.2363 60.1301 89.9839 60.1301 90.9062C60.1301 91.8286 60.8778 92.5762 61.8001 92.5762Z" fill="#0CE3EF"/>
<path d="M61.8001 93.0659C60.6101 93.0659 59.6401 92.096 59.6401 90.906C59.6401 89.716 60.6101 88.7461 61.8001 88.7461C62.9901 88.7461 63.9601 89.716 63.9601 90.906C63.9601 92.096 62.9901 93.0659 61.8001 93.0659ZM61.8001 89.7261C61.1501 89.7261 60.6201 90.256 60.6201 90.906C60.6201 91.556 61.1501 92.0859 61.8001 92.0859C62.4501 92.0859 62.9801 91.556 62.9801 90.906C62.9801 90.256 62.4501 89.7261 61.8001 89.7261Z" fill="#0B2EE5"/>
<path d="M80.8699 62.676C81.7922 62.676 82.5399 61.9282 82.5399 61.0059C82.5399 60.0835 81.7922 59.3359 80.8699 59.3359C79.9476 59.3359 79.2 60.0835 79.2 61.0059C79.2 61.9282 79.9476 62.676 80.8699 62.676Z" fill="#0CE3EF"/>
<path d="M80.8699 63.1658C79.6799 63.1658 78.71 62.1956 78.71 61.0056C78.71 59.8156 79.6799 58.8457 80.8699 58.8457C82.0599 58.8457 83.03 59.8156 83.03 61.0056C83.03 62.1956 82.0599 63.1658 80.8699 63.1658ZM80.8699 59.8257C80.2199 59.8257 79.6899 60.3556 79.6899 61.0056C79.6899 61.6556 80.2199 62.1858 80.8699 62.1858C81.5199 62.1858 82.0499 61.6556 82.0499 61.0056C82.0499 60.3556 81.5199 59.8257 80.8699 59.8257Z" fill="#0B2EE5"/>
<path d="M61.8001 46.7764C62.7224 46.7764 63.4701 46.0288 63.4701 45.1064C63.4701 44.1841 62.7224 43.4365 61.8001 43.4365C60.8778 43.4365 60.1301 44.1841 60.1301 45.1064C60.1301 46.0288 60.8778 46.7764 61.8001 46.7764Z" fill="#0CE3EF"/>
<path d="M61.8001 47.2661C60.6101 47.2661 59.6401 46.2962 59.6401 45.1062C59.6401 43.9162 60.6101 42.9463 61.8001 42.9463C62.9901 42.9463 63.9601 43.9162 63.9601 45.1062C63.9601 46.2962 62.9901 47.2661 61.8001 47.2661ZM61.8001 43.9363C61.1501 43.9363 60.6201 44.4662 60.6201 45.1162C60.6201 45.7662 61.1501 46.2961 61.8001 46.2961C62.4501 46.2961 62.9801 45.7662 62.9801 45.1162C62.9801 44.4662 62.4501 43.9363 61.8001 43.9363Z" fill="#0B2EE5"/>
<defs>
<filter id="filter0_d" x="0.300049" y="0.886719" width="125.13" height="136.75" filterUnits="userSpaceOnUse" color-interpolation-filters="sRGB">
<feFlood flood-opacity="0" result="BackgroundImageFix"/>
<feColorMatrix in="SourceAlpha" type="matrix" values="0 0 0 0 0 0 0 0 0 0 0 0 0 0 0 0 0 0 127 0"/>
<feOffset/>
<feGaussianBlur stdDeviation="12.5"/>
<feColorMatrix type="matrix" values="0 0 0 0 0.129412 0 0 0 0 0.160784 0 0 0 0 0.866667 0 0 0 0.36 0"/>
<feBlend mode="normal" in2="BackgroundImageFix" result="effect1_dropShadow"/>
<feBlend mode="normal" in="SourceGraphic" in2="effect1_dropShadow" result="shape"/>
</filter>
<linearGradient id="paint0_linear" x1="25.3024" y1="69.2654" x2="100.43" y2="69.2654" gradientUnits="userSpaceOnUse">
<stop offset="0.1242" stop-color="white"/>
<stop offset="0.9272" stop-color="white"/>
</linearGradient>
</defs>
</svg>
