<svg width="754" height="41" viewBox="0 0 754 41" fill="none" xmlns="http://www.w3.org/2000/svg">
<path d="M749.49 40.687H4.51013C2.23013 40.687 0.390137 38.8469 0.390137 36.5669V4.2168C0.390137 1.9368 2.23013 0.097168 4.51013 0.097168H749.48C751.76 0.097168 753.6 1.9368 753.6 4.2168V36.5669C753.61 38.8469 751.76 40.687 749.49 40.687Z" fill="url(#paint0_linear)"/>
<path d="M20.6326 24.0285L24.3309 12.0677H28.2998L31.998 24.0285L31.6733 24.5156H29.5085L28.7508 21.99H23.8799L23.1222 24.5156H20.9573L20.6326 24.0285ZM24.5834 19.6447H28.0472L26.4596 14.413H26.171L24.5834 19.6447ZM33.8024 24.5156V12.0677H38.5289C41.9205 12.0677 43.6163 13.7635 43.6163 17.1551V19.4282C43.6163 22.8198 41.9205 24.5156 38.5289 24.5156H33.8024ZM36.4002 22.1704H38.6733C40.2368 22.1704 41.0185 21.3886 41.0185 19.8251V16.7583C41.0185 15.1948 40.2368 14.413 38.6733 14.413H36.4002V22.1704ZM45.6815 23.5775V22.1704H51.2741C51.6349 22.1704 51.8153 21.99 51.8153 21.6292V20.3122C51.8153 19.9755 51.6649 19.777 51.3643 19.7169L47.8464 19.0133C46.4032 18.7247 45.6815 17.7565 45.6815 16.1088V15.0985C45.6815 13.078 46.6918 12.0677 48.7123 12.0677H52.8436L54.0523 13.0058V14.413H48.8206C48.4598 14.413 48.2794 14.5934 48.2794 14.9542V16.1268C48.2794 16.4636 48.4297 16.662 48.7304 16.7222L52.2482 17.4257C53.6915 17.7144 54.4131 18.6826 54.4131 20.3303V21.4848C54.4131 23.5054 53.4028 24.5156 51.3823 24.5156H46.8903L45.6815 23.5775Z" fill="white"/>
<path d="M735.55 25.0871C735.31 25.0871 735.07 24.9973 734.88 24.8073L728.05 17.9772L721.22 24.8073C720.85 25.1773 720.25 25.1773 719.88 24.8073C719.51 24.4373 719.51 23.8372 719.88 23.4772L727.38 15.9772C727.75 15.6072 728.35 15.6072 728.72 15.9772L736.22 23.4772C736.59 23.8472 736.59 24.4473 736.22 24.8073C736.03 24.9973 735.79 25.0871 735.55 25.0871Z" fill="white"/>
<defs>
<linearGradient id="paint0_linear" x1="-354.766" y1="20.3922" x2="854.945" y2="20.3922" gradientUnits="userSpaceOnUse">
<stop stop-color="#0CE3EF"/>
<stop offset="1" stop-color="#0B2EE5"/>
</linearGradient>
</defs>
</svg>
