<svg width="50" height="59" viewBox="0 0 50 59" fill="none" xmlns="http://www.w3.org/2000/svg">
<path d="M25 0.635254L0 15.0649V43.9351L25 58.3647L50 43.9351V15.0649L25 0.635254Z" fill="#4DB04F"/>
<path d="M33.87 20.5054C31.47 18.1854 28.31 16.8755 24.95 16.8755C15.3 16.8755 9.24 27.325 14.06 35.645L12.28 42.1255L18.95 40.3853C21.85 41.9553 24.23 41.8148 24.96 41.9048C36.15 41.9048 41.72 28.3647 33.86 20.5347L33.87 20.5054Z" fill="#EDF0F2"/>
<path d="M24.98 39.7656H24.96C21.61 39.7656 19.47 38.1759 19.26 38.0859L15.31 39.1152L16.37 35.2753L16.12 34.8857C15.08 33.2257 14.52 31.3157 14.52 29.3457C14.52 20.0957 25.83 15.4658 32.37 22.0058C38.9 28.4758 34.32 39.7656 24.98 39.7656Z" fill="#4DB04F"/>
<path d="M30.7 31.9249L30.69 32.0049C30.37 31.8449 28.8301 31.0944 28.5401 30.9844C27.8901 30.7444 28.0801 30.9443 26.8401 32.3643C26.6601 32.5743 26.4701 32.5844 26.1601 32.4444C25.8401 32.2844 24.83 31.9548 23.63 30.8848C22.7 30.0448 22.07 29.0241 21.88 28.7041C21.57 28.1741 22.22 28.0944 22.8 26.9844C22.91 26.7644 22.8501 26.5946 22.7701 26.4346C22.6901 26.2746 22.06 24.7343 21.8 24.1143C21.55 23.5043 21.2901 23.5743 21.0901 23.5743C20.4801 23.5243 20.0401 23.5346 19.6501 23.9346C17.9501 25.8046 18.38 27.7245 19.83 29.7745C22.69 33.5145 24.21 34.2043 26.99 35.1543C27.74 35.3943 28.4301 35.3642 28.9701 35.2842C29.5701 35.1842 30.8301 34.5242 31.0901 33.7842C31.3601 33.0442 31.3601 32.4242 31.2801 32.2842C31.2201 32.1442 31.02 32.0749 30.7 31.9249Z" fill="#F8F8F9"/>
</svg>
