<svg width="50" height="59" viewBox="0 0 50 59" fill="none" xmlns="http://www.w3.org/2000/svg">
<path d="M25 0.635254L0 15.0649V43.9351L25 58.3647L50 43.9351V15.0649L25 0.635254Z" fill="#005A91"/>
<path d="M36.49 22.3452L27.85 28.5952L26.4299 29.6255C25.6799 30.1755 24.6499 30.1755 23.8999 29.6255L22.48 28.5952L13.83 22.355C14.31 21.685 15.0899 21.2847 15.9199 21.2847H34.4099C35.2399 21.2847 36.01 21.6752 36.49 22.3452Z" fill="#FFF800"/>
<path d="M13.84 22.355L22.49 28.5952L14.11 36.9751C13.63 36.4951 13.36 35.8348 13.36 35.1548V23.855C13.36 23.315 13.53 22.785 13.84 22.355Z" fill="#FFC107"/>
<path d="M36.98 23.855V35.1548C36.98 35.8348 36.71 36.4851 36.23 36.9751L27.85 28.5952L36.49 22.3452C36.81 22.7752 36.98 23.305 36.98 23.855Z" fill="#FFC107"/>
<path d="M27.85 28.5854L26.4299 29.6147C25.6799 30.1647 24.6499 30.1647 23.8999 29.6147L22.48 28.5854L14.1 36.9653C14.58 37.4453 15.2399 37.7153 15.9199 37.7153H34.4099C35.0899 37.7153 35.75 37.4453 36.23 36.9653L27.85 28.5854Z" fill="#FF7900"/>
</svg>
