<svg width="50" height="59" viewBox="0 0 50 59" fill="none" xmlns="http://www.w3.org/2000/svg">
<path d="M25 0.635254L0 15.0649V43.9351L25 58.3647L50 43.9351V15.0649L25 0.635254Z" fill="#007AB9"/>
<path d="M36.12 31.9048V40.1255H31.35V32.4546C31.35 30.5246 30.6599 29.2153 28.9399 29.2153C27.6199 29.2153 26.84 30.1053 26.5 30.9653C26.37 31.2753 26.34 31.6955 26.34 32.1255V40.1353H21.5699C21.5699 40.1353 21.6299 27.1454 21.5699 25.7954H26.34V27.8247C26.33 27.8447 26.3199 27.8555 26.3099 27.8755H26.34V27.8247C26.97 26.8447 28.1 25.4546 30.64 25.4546C33.76 25.4546 36.12 27.5048 36.12 31.9048ZM16.58 18.8755C14.95 18.8755 13.88 19.945 13.88 21.355C13.88 22.735 14.9099 23.8354 16.5199 23.8354H16.5499C18.2099 23.8354 19.25 22.735 19.25 21.355C19.21 19.945 18.21 18.8755 16.58 18.8755ZM14.1599 40.1255H18.9299V25.7847H14.1599V40.1255Z" fill="#F1F2F2"/>
</svg>
