<svg width="50" height="59" viewBox="0 0 50 59" fill="none" xmlns="http://www.w3.org/2000/svg">
<path d="M25 0.635254L0 15.0649V43.9351L25 58.3647L50 43.9351V15.0649L25 0.635254Z" fill="#039BE5"/>
<path d="M12.28 28.4949L34.95 19.7556C36 19.3756 36.92 20.0152 36.58 21.6052L32.72 39.7849C32.43 41.0749 31.67 41.3849 30.6 40.7849L24.72 36.4548L21.89 39.1853C21.58 39.4953 21.31 39.7654 20.7 39.7654L21.12 33.7849L32.01 23.945C32.48 23.525 31.9 23.2948 31.28 23.7048L17.82 32.1755L12.02 30.365C10.75 29.955 10.73 29.0949 12.28 28.4949Z" fill="white"/>
</svg>
