<svg width="581" height="781" viewBox="0 0 581 781" fill="none" xmlns="http://www.w3.org/2000/svg">
<path d="M423.91 146.33L421.58 144.99V146.79L373.82 174.33L372.47 173.55V140.61L393.17 128.68L393.95 128.22L393.96 0.179688L286.03 62.4297V62.2997L1.46002 226.55L0.679993 227L0.650024 554.67L145.22 638.23L194.88 609.54V642.09L176.03 652.97L175.24 653.42L175.23 780.92L565.75 555.45L566.53 555L566.56 228.84L423.91 146.33ZM3.76001 552.87L3.78998 228.79L282.91 67.6797V67.8097L390.84 5.54969L390.83 126.42L372.47 137.01V71.1097L283.72 122.3L283.63 122.35V122.25L51.32 256.35L51.29 524.59L193.53 606.73L145.22 634.64L3.76001 552.87ZM563.41 553.2L178.34 775.52L178.35 655.22L194.88 645.68V709.97L515.9 524.63L515.93 256.39L376.94 176.13L423.16 149.48L563.46 230.63L563.41 553.2Z" fill="white"/>
<path d="M312.36 277.73C311.34 277.39 307.97 282.98 307.24 283.59C306.69 284.06 303.72 284.13 302.34 284.13C302.73 285.1 302.84 286.16 302.63 287.21L360.29 284.85L361.45 282.67C361.45 282.68 313.37 278.07 312.36 277.73Z" fill="#003256"/>
<path d="M301.83 288.15L301.51 288.03C301.75 287.56 301.9 287.08 302 286.59C302.21 285.54 302.1 284.48 301.71 283.51C301.25 282.37 300.42 281.37 299.26 280.75C298.08 280.12 296.78 280 295.56 280.27L264.82 231.27L262.98 232.48L282.4 277.23L290.83 278.4L293.36 282.52L293.42 282.63L293.22 282.7L292.73 281.89C292.43 282.22 292.14 282.58 291.92 283C290.69 285.31 291.3 288.11 293.24 289.72L266.06 340.8L268.59 342.15C268.59 342.15 289.13 312.53 294.63 304.53L294.72 297.2L294.78 292.93L294.83 288.97L294.88 285.22L301.19 287.54L301.2 287.94L295.5 285.84L295.45 289.59L295.4 293.55L295.34 297.82L295.25 305.15L294.51 362.51C297.68 363.06 300.85 363.73 304.03 364.38L301.84 289.11L301.83 288.15Z" fill="#003256"/>
<path d="M481.93 344.79C453.46 333.19 420.64 332.69 391.83 343.42C369.33 351.8 348.28 366.92 324.27 366.65C317.31 366.57 310.35 365.18 303.42 363.75C300.24 363.09 297.06 362.43 293.9 361.88C285.99 360.5 278.14 359.85 270.4 361.86C254.39 366.02 243.42 380.4 229.39 389.15C205.88 403.81 176.09 401.58 148.41 400.44C136.29 399.94 123.57 399.98 111.45 401.82L106.55 382.87L112.26 387.82L104.65 364.99L107.69 367.08L98.5601 330.75L89.05 367.08L93.8101 362.71L82.2 393.15L90.38 385.92L82.98 406.57C85.74 406.71 88.49 406.89 91.23 407.11C94.35 407.35 97.45 407.63 100.54 407.94C135.4 411.46 170.71 418.21 205.17 411.88C234.41 406.51 261.63 391.9 291.22 388.97C322.77 385.84 354.51 396.26 386.04 392.99C418.85 389.58 448.88 371.61 481.74 368.79C493.08 367.82 504.48 368.38 515.91 370V363.33C504.96 356.33 493.85 349.65 481.93 344.79Z" fill="#009B6C"/>
<path d="M489.95 368.35L481.61 336.11L492.66 345.68L477.93 301.49L483.82 305.53L466.14 235.2L447.73 305.53L456.94 297.07L434.48 355.99L450.32 342L436.82 379.68C420.12 385.26 403.48 391.18 386.05 392.99C354.52 396.27 322.77 385.85 291.23 388.97C261.64 391.9 234.43 406.51 205.18 411.88C170.72 418.21 135.41 411.46 100.55 407.94C97.4601 407.63 94.3601 407.35 91.2401 407.11C88.5 406.9 85.75 406.72 82.9901 406.57C72.4201 406.02 61.7701 406.01 51.3201 406.94V422.75L515.92 419.55V369.99C507.23 368.77 498.58 368.15 489.95 368.35Z" fill="#00D892"/>
<path d="M204.99 257.55C205.14 256.96 205.23 256.35 205.23 255.71C205.23 252.17 202.72 249.23 199.39 248.54V170.42H195.52C195.52 170.42 187.98 234.37 187.98 234.98C187.98 235.59 195.52 243.33 195.52 243.33V248.8C192.65 249.79 190.59 252.51 190.59 255.71C190.59 256.45 190.7 257.16 190.9 257.83C191.21 258.86 191.75 259.79 192.44 260.57L192.49 256.9L201.01 260.03L203.86 256.9L204.99 257.55ZM199.4 250.46H195.53H199.4Z" fill="#003256"/>
<path d="M271.49 300.52L272.92 297.91L221.39 256.89L210.6 260.84L204.99 257.55L203.88 256.89L201.03 260.03L202.87 261.09L271.49 300.52Z" fill="#003256"/>
<path d="M192.45 260.57C191.75 259.79 191.22 258.86 190.91 257.83L123.71 297.19V300.52C123.71 300.52 183.93 275.53 185.36 275.29C186.79 275.05 187.26 266.25 187.74 265.05C188.05 264.27 190.66 262.72 192.44 261.74L190.65 400.71C195.54 400.3 200.36 399.64 205.07 398.64L201.1 262.29C201.75 261.98 202.35 261.57 202.88 261.08L201.04 260.02L192.52 256.89L192.45 260.57Z" fill="#003256"/>
<path d="M312.34 530.54L417.04 522.38H580.86L480.37 532.23L312.34 530.54Z" fill="#0071A5"/>
<path d="M296.46 499.15V503.8H462.08L529.07 406.98L527.4 400.46L296.46 499.15Z" fill="#003256"/>
<path d="M352.31 502.68H346.96V532.23H352.31V502.68Z" fill="#003256"/>
<path d="M473.9 481.28V532.23H480.37V475.81L473.9 481.28Z" fill="#003256"/>
<path d="M364.23 400.46L296.46 499.15H459.63L527.4 400.46H364.23Z" fill="#003D59"/>
<path d="M421.181 400.299L351.795 498.946L352.498 499.441L421.885 400.794L421.181 400.299Z" fill="#EEFAF9"/>
<path d="M475.801 400.301L406.414 498.948L407.118 499.443L476.505 400.796L475.801 400.301Z" fill="#EEFAF9"/>
<path d="M493.9 449.38H332.02V450.24H493.9V449.38Z" fill="#EEFAF9"/>
<path d="M42.22 578.809L146.93 570.649H310.74L210.26 580.499L42.22 578.809Z" fill="#0071A5"/>
<path d="M26.35 547.419V552.069H191.97L258.95 455.249L257.29 448.729L26.35 547.419Z" fill="#003256"/>
<path d="M82.1899 550.949H76.84V580.499H82.1899V550.949Z" fill="#003256"/>
<path d="M203.79 529.55V580.5H210.26V524.08L203.79 529.55Z" fill="#003256"/>
<path d="M94.12 448.729L26.35 547.419H189.52L257.29 448.729H94.12Z" fill="#003D59"/>
<path d="M151.068 448.556L81.6808 547.203L82.3842 547.698L151.771 449.051L151.068 448.556Z" fill="#EEFAF9"/>
<path d="M205.682 448.566L136.295 547.213L136.998 547.708L206.385 449.061L205.682 448.566Z" fill="#EEFAF9"/>
<path d="M223.79 497.649H61.91V498.509H223.79V497.649Z" fill="#EEFAF9"/>
</svg>
