<svg width="192" height="53" viewBox="0 0 192 53" fill="none" xmlns="http://www.w3.org/2000/svg">
<path d="M16.7 38.54L7.17999 33.04V19.63L7.19 19.62L18.8 12.93L21.34 11.46L23.47 10.23L25.98 8.79V8.78V0.5L18.8 4.64H18.79V4.63L0 15.48V37.18L9.51999 42.68L16.7 38.54Z" fill="white"/>
<path d="M28.0301 10.1396L25.5301 11.5797L23.4101 12.7996L20.8801 14.2596L30.3301 19.7296V33.0797L11.6301 43.8796L11.6201 52.1296L37.4701 37.1996V15.5996L28.0301 10.1396Z" fill="white"/>
<path d="M18.9701 31.4701L23.3501 28.9501V23.8901L18.9801 21.3701L14.6001 23.8901V28.9501L18.9701 31.4701Z" fill="white"/>
<path d="M188.05 13.0097L183.68 15.5397L179.3 13.0097V7.94969L183.68 5.42969L188.05 7.95969V13.0097Z" fill="white"/>
<path d="M192 48.4202L184.92 52.5102L177.84 48.4202V40.2502L184.92 36.1602L192 40.2502V48.4202Z" fill="white"/>
<path d="M61.06 14.1201L58.69 15.4801V24.0001H50.26V15.4901L47.89 14.1201L45.52 15.4801V37.0801L47.89 38.4201L50.26 37.0801V28.2701H58.69V37.0801L61.06 38.4201L63.43 37.0801V15.4801L61.06 14.1201Z" fill="white"/>
<path d="M150.37 36.1098L148.05 37.4498L145.73 36.1098V33.4298L148.05 32.0898L150.37 33.4298V36.1098Z" fill="white"/>
<path d="M158.52 10.9799L156.15 12.3499L153.78 10.9799V8.23988L156.15 6.87988L158.52 8.23988V10.9799Z" fill="white"/>
<path d="M173.96 13.7793L163.19 19.9993V32.4293L173.96 38.6493L184.73 32.4293V19.9993L173.96 13.7793ZM179.91 29.7893L173.96 33.2193L168.01 29.7793V22.6693L173.96 19.2393L179.91 22.6793V29.7893Z" fill="white"/>
<path d="M158.51 16.0797L156.15 14.7197L153.79 16.0697H153.78V37.1297H153.79L156.15 38.4797L158.51 37.1197H158.52L158.51 16.0797Z" fill="white"/>
<path d="M122.13 33.0696H112.57V27.8096H121.15V27.7997L122.37 25.6696L121.14 23.5396V23.5296H112.56V18.9196H122.12V18.9096L123.34 16.7796L122.11 14.6497V14.6396H107.81V37.3396H122.11V37.3297L123.33 35.1996L122.13 33.0696Z" fill="white"/>
<path d="M141 33.0696H131.44V27.8096H140.02V27.7997L141.24 25.6696L140.01 23.5396V23.5296H131.43V18.9196H141V18.9096L142.22 16.7796L141 14.6497V14.6396H126.7V37.3396H141V37.3297L142.22 35.1996L141 33.0696Z" fill="white"/>
<path d="M83.93 15.4501V25.7301L77.67 29.9501V36.9701H77.66L75.33 38.3201L72.99 36.9701H72.98V29.7501L66.72 25.7501V15.4401L69 14.1201L71.28 15.4401V15.4501V23.3501L75.32 25.7701L79.37 23.3501V15.4401L81.65 14.1201L83.93 15.4401V15.4501Z" fill="white"/>
<path d="M104.55 15.4501V29.0001L95.9401 38.3401L87.3301 29.0001V15.4401H87.3401L89.6201 14.1201L91.8901 15.4401V26.9001L95.9401 31.2401L99.98 26.9001V15.4401L102.26 14.1201L104.54 15.4401L104.55 15.4501Z" fill="white"/>
</svg>
