<svg width="444" height="374" viewBox="0 0 444 374" fill="none" xmlns="http://www.w3.org/2000/svg">
<path d="M384.912 331.845L376.823 333.918L377.539 336.708L385.627 334.634L384.912 331.845Z" fill="#0B2EE5"/>
<path d="M380.504 335.816L372.415 337.889L373.13 340.678L381.218 338.606L380.504 335.816Z" fill="#0B2EE5"/>
<path d="M376.305 339.884L368.216 341.957L368.931 344.746L377.02 342.674L376.305 339.884Z" fill="#0B2EE5"/>
<path d="M372.612 343.885L364.523 345.958L365.239 348.748L373.327 346.675L372.612 343.885Z" fill="#0B2EE5"/>
<path d="M206.52 83.3672L130.59 127.917C111.34 122.007 86.81 123.837 70.63 133.327C50.94 144.877 51.0701 163.387 70.9201 174.667C75.3801 177.197 80.45 179.147 85.86 180.527C89.68 181.497 93.67 182.177 97.73 182.577C113.52 184.117 130.38 181.297 142.53 174.167C157.25 165.537 160.89 153.017 153.51 142.537L163.99 136.387L163.69 129.737L174.72 129.657L174.44 123.427L185.47 123.347L185.19 117.117L196.22 117.037L195.94 110.807L206.97 110.727L206.69 104.497L218.46 104.417L222.05 102.307L226.01 85.9468L206.52 83.3672ZM99.6701 168.607C94.5401 171.617 86.2001 171.677 81.0301 168.737C75.8601 165.797 75.83 160.987 80.95 157.977C86.08 154.967 94.42 154.907 99.59 157.847C104.76 160.787 104.8 165.597 99.6701 168.607Z" fill="#C4D9E8"/>
<path d="M248.06 365.177L145.66 306.297C138.77 302.317 139.63 295.367 147.59 290.767L246.98 233.386C254.94 228.786 266.98 228.287 273.88 232.267L376.28 291.147C383.17 295.127 382.31 302.077 374.35 306.677L274.96 364.057C267 368.657 254.95 369.157 248.06 365.177Z" fill="#C4D9E8"/>
<path d="M368.11 231.687L350.41 221.467L415.69 183.777C418.77 181.997 418.77 179.097 415.69 177.317L349.01 138.817C345.93 137.037 340.91 137.037 337.83 138.817L272.55 176.507L254.85 166.287L320.13 128.597C332.97 121.177 353.87 121.177 366.72 128.597L433.4 167.097C446.25 174.517 446.24 186.577 433.4 193.997L368.11 231.687Z" fill="#0B2EE5"/>
<path d="M396.68 236.187C396.68 226.727 390.93 215.727 383.83 211.627L265.56 143.347C262.38 141.507 259.48 141.377 257.23 142.637H257.22L116.01 224.697L252.56 327.597L391.68 246.857C392.11 246.657 392.53 246.437 392.91 246.147C395.24 244.367 396.68 240.917 396.68 236.187Z" fill="#D4ECFF"/>
<path d="M252.57 327.587L391.69 246.847C392.12 246.647 392.54 246.427 392.92 246.137C395.24 244.377 396.68 240.927 396.68 236.197C396.68 231.677 395.36 226.817 393.22 222.517L234.64 314.077L252.57 327.587Z" fill="#173D7A"/>
<path d="M243.68 327.217L125.41 258.937C118.31 254.837 112.56 243.847 112.56 234.377C112.56 224.917 118.31 220.567 125.41 224.657L243.68 292.937C250.78 297.037 256.53 308.027 256.53 317.497C256.53 326.967 250.78 331.317 243.68 327.217Z" fill="#0B2EE5"/>
<path d="M225.96 304.187L211.74 295.987C210.33 295.167 209.18 292.977 209.18 291.087C209.18 289.197 210.33 288.337 211.74 289.147L225.96 297.347C227.37 298.167 228.52 300.357 228.52 302.247C228.53 304.137 227.38 305.007 225.96 304.187Z" fill="white"/>
<path d="M119.2 63.7471L143.5 77.5469L168.29 62.9971L168.22 56.667L168.01 56.7969L167.99 56.3472L179.02 56.2671L178.96 50.0371L189.77 49.9668L189.7 43.7368L200.52 43.6567L200.45 37.4268L211.26 37.3569L211.2 31.1172L222.76 31.0371L226.35 28.937L230.32 12.5771L230.25 6.24707L228.34 12.3169L210.84 9.97705L119.2 63.7471Z" fill="#0B2EE5"/>
<path d="M143.43 71.2168L168.23 56.667L167.93 50.0171L178.95 49.9468L178.68 43.7168L189.7 43.6367L189.42 37.4067L200.45 37.3271L200.17 31.0972L211.2 31.0269L210.92 24.7969L222.69 24.7168L226.29 22.6069L230.25 6.24707L210.77 3.64697L119.13 57.417L143.43 71.2168Z" fill="#D4ECFF"/>
<path d="M159.94 61.5269C157.44 57.9869 153.7 54.6669 148.68 51.8169C145.14 49.8069 141.21 48.1867 137.04 46.9067L119.13 57.417L143.43 71.2168L159.94 61.5269Z" fill="#0B2EE5"/>
<path d="M229.58 8.99707L230.25 6.24707L226.98 5.81689L149.55 51.2471L153.63 53.5571L229.58 8.99707Z" fill="#0B2EE5"/>
<path d="M60.47 83.707L60.2 74.707L63.08 80.7871L60.47 83.707Z" fill="#D3D0CF"/>
<path d="M75.44 103.947C95.29 115.227 127.35 114.997 147.04 103.447C156.91 97.6567 161.8 90.1171 161.72 82.6171L161.44 73.0869L159.82 74.8867C157.54 70.1867 153.18 65.7669 146.74 62.1069C126.89 50.8269 94.83 51.0569 75.14 62.6069C55.46 74.1569 55.59 92.6667 75.44 103.947ZM104.12 87.1171C109.29 90.0571 109.32 94.8669 104.2 97.8769C99.07 100.887 90.7301 100.947 85.5601 98.0068C80.3901 95.0668 80.36 90.257 85.48 87.247C90.6 84.237 98.95 84.1771 104.12 87.1171Z" fill="#0B2EE5"/>
<path d="M75.1701 94.957C95.0201 106.237 127.08 106.007 146.77 94.457C166.46 82.907 166.33 64.3971 146.48 53.1171C126.63 41.8371 94.57 42.0671 74.88 53.6171C55.19 65.1671 55.3201 83.677 75.1701 94.957ZM103.85 78.1269C109.02 81.0669 109.05 85.8767 103.93 88.8867C98.8101 91.8967 90.4601 91.9571 85.2901 89.0171C80.1201 86.0771 80.09 81.2668 85.21 78.2568C90.33 75.2468 98.68 75.1869 103.85 78.1269Z" fill="#F2F2F2"/>
<path d="M98.1899 99.877C93.82 100.557 88.9901 99.9668 85.5501 98.0068C81.8401 95.8968 80.79 92.827 82.38 90.147L73.39 83.0171C73.39 83.0171 68.69 77.717 64.04 72.457C56.8 83.047 60.61 95.507 75.45 103.937C82 107.657 89.33 109.767 97.65 110.987L98.1899 99.877Z" fill="#0B2EE5"/>
<path d="M75.1701 94.957C79.6301 97.487 84.7 99.4369 90.11 100.817C93.93 101.787 97.92 102.467 101.98 102.867C117.77 104.407 134.63 101.587 146.77 94.457C166.46 82.907 166.33 64.3971 146.48 53.1171C126.63 41.8371 94.57 42.0671 74.88 53.6171C55.19 65.1671 55.3201 83.677 75.1701 94.957ZM103.85 78.1269C109.02 81.0669 109.05 85.8767 103.93 88.8867C98.8101 91.8967 90.4601 91.9571 85.2901 89.0171C80.1201 86.0771 80.09 81.2668 85.21 78.2568C90.33 75.2468 98.68 75.1869 103.85 78.1269Z" fill="#D4ECFF"/>
<path d="M65.79 74.4668C66.76 68.7068 71.03 63.0772 78.63 58.6172C96.15 48.3372 124.67 48.137 142.34 58.167C151.12 63.157 155.55 69.7272 155.65 76.3472C156.91 68.8372 152.54 61.097 142.55 55.417C124.89 45.387 96.3699 45.5872 78.8399 55.8672C70.0299 61.0372 65.69 67.7768 65.79 74.4668Z" fill="#0B2EE5"/>
<path d="M53.8499 156.297C50.2799 156.297 46.93 155.447 43.92 153.737C36.81 149.697 32.85 141.586 32.78 130.886C32.64 111.376 46.22 87.4769 63.05 77.5969C72.27 72.1869 81.26 71.4268 88.38 75.4768C91.41 77.1968 93.89 79.6769 95.75 82.8469C98.22 87.0569 99.49 92.2569 99.53 98.3269C99.67 117.837 86.09 141.737 69.26 151.617C63.93 154.717 58.6899 156.297 53.8499 156.297ZM78.41 80.0769C74.84 80.0769 70.83 81.3168 66.65 83.7668C51.79 92.4868 39.79 113.597 39.92 130.827C39.97 138.857 42.6499 144.777 47.4399 147.497C52.2299 150.217 58.69 149.487 65.61 145.427C80.47 136.707 92.4699 115.597 92.3399 98.3669C92.3099 93.6369 91.34 89.5168 89.54 86.4568C88.33 84.3868 86.74 82.7868 84.81 81.6868C82.93 80.6168 80.76 80.0769 78.41 80.0769Z" fill="#0B2EE5"/>
<path d="M87.76 95.917L101.89 99.377L103.92 88.8867C98.79 91.8967 90.45 91.9571 85.28 89.0171L87.76 95.917Z" fill="#D4ECFF"/>
<path d="M75.17 94.957C79.63 97.487 84.7 99.4369 90.11 100.817C93.93 101.787 97.92 102.467 101.98 102.867C117.77 104.407 134.63 101.587 146.77 94.457L89.21 93.167L75.17 94.957Z" fill="#D4ECFF"/>
<path d="M96.4399 102.217C96.4399 102.217 90.3199 101.227 83.9399 98.9971V107.827C86.9799 108.887 91.99 110.427 96.29 110.997C109.46 112.737 96.4399 102.217 96.4399 102.217Z" fill="#0B2EE5"/>
<path d="M87.26 100.067C84.63 99.2869 81.7599 98.2969 79.1199 97.0669C71.4199 93.4669 81.16 106.817 81.16 106.817C81.16 106.817 83.78 107.867 87.26 108.927V100.067Z" fill="#0B2EE5"/>
<path d="M231.66 255.217L206.48 271.467L194.22 269.477L224.16 254.997L231.66 255.217Z" fill="#0B2EE5"/>
<path d="M201.21 337.227C201.21 337.227 193.96 333.567 189.5 339.017C185.05 344.467 178.68 357.327 178.48 366.017C178.28 374.707 185.36 374.117 189.56 372.067C193.76 370.007 206.05 352.197 206.79 348.697C207.53 345.207 205.91 340.487 204.73 339.557C203.55 338.637 201.21 337.227 201.21 337.227Z" fill="#173D7A"/>
<path d="M202.79 335.477L203.13 342.997C203.2 344.597 202.4 346.117 201.01 346.907C199.74 347.627 197.9 348.177 195.41 347.777C189.95 346.897 189.46 345.337 189.07 337.827C188.68 330.307 202.79 335.477 202.79 335.477Z" fill="#0B2EE5"/>
<path d="M174.66 322.777C174.66 322.777 167.41 319.117 162.95 324.567C158.49 330.017 152.13 342.877 151.93 351.567C151.73 360.257 158.81 359.667 163.01 357.617C167.21 355.567 179.5 337.747 180.24 334.247C180.98 330.757 179.36 326.037 178.18 325.107C177 324.177 174.66 322.777 174.66 322.777Z" fill="#173D7A"/>
<path d="M176.24 321.027L176.58 328.547C176.65 330.147 175.85 331.667 174.46 332.457C173.19 333.177 171.35 333.727 168.86 333.327C163.4 332.447 162.91 330.887 162.52 323.377C162.12 315.857 176.24 321.027 176.24 321.027Z" fill="#0B2EE5"/>
<path d="M240.97 183.047C238.82 148.117 203.14 188.187 203.14 188.187L178.72 212.127L156.73 236.287C152.43 241.007 150.44 247.377 151.27 253.707L160.17 321.457C160.61 324.807 163.47 327.267 166.85 327.247C167.8 327.237 168.9 327.157 170.15 326.957C178.09 325.717 177.5 318.177 177.5 318.177L175.87 254.817L222.06 226.977C222.04 226.957 243.12 217.977 240.97 183.047Z" fill="#D4ECFF"/>
<path d="M193.5 242.827L186.93 240.417C186.78 240.417 175.76 251.077 175.85 254.807L180.79 256.397L193.21 244.347L193.5 242.827Z" fill="#0B2EE5"/>
<path d="M231.66 255.217C231.66 255.217 259.11 239.547 262.39 232.977C263.68 230.407 265.68 227.717 257.67 223.827L221.06 249.917L222.65 258.897L231.66 255.217Z" fill="#0B2EE5"/>
<path d="M267.52 196.527C265.23 161.607 229.69 201.667 229.69 201.667L205.27 225.607L183.28 249.767C178.98 254.487 176.99 260.857 177.82 267.187L186.72 334.937C187.16 338.287 190.02 340.747 193.4 340.727C194.35 340.717 195.45 340.637 196.7 340.437C204.64 339.197 204.05 331.657 204.05 331.657L202.42 268.297L248.61 240.457C248.59 240.437 269.62 228.457 267.52 196.527Z" fill="#D4ECFF"/>
<path d="M246.41 84.217C273.46 95.437 272.92 111.427 272.92 111.427C272.92 111.427 267.62 170.057 269.43 209.217C270.19 225.587 182.46 226.837 195.54 183.167C210.97 131.677 205.18 89.9872 212.4 83.7072C219.63 77.4172 239.41 81.317 246.41 84.217Z" fill="#0B2EE5"/>
<path d="M255.12 98.3968C253.7 103.887 246.51 106.787 239.04 104.867C231.58 102.947 226.67 96.9368 228.09 91.4369C229.51 85.9369 236.7 83.0466 244.17 84.9666C251.63 86.8966 256.53 92.9068 255.12 98.3968Z" fill="#FFC2B0"/>
<path d="M243.61 106.747C242.02 106.747 240.38 106.547 238.72 106.117C234.84 105.117 231.48 103.057 229.23 100.307C226.89 97.447 226.04 94.177 226.83 91.117C228.42 84.937 236.34 81.6166 244.48 83.7166C248.36 84.7166 251.72 86.7767 253.96 89.5267C256.3 92.3867 257.15 95.6566 256.36 98.7166C255.1 103.637 249.82 106.747 243.61 106.747ZM239.54 85.6668C234.52 85.6668 230.31 88.0067 229.35 91.7567C228.77 94.0067 229.44 96.4568 231.25 98.6668C233.15 100.987 236.03 102.747 239.37 103.607C246.13 105.337 252.63 102.867 253.87 98.0667C254.45 95.8167 253.78 93.3666 251.97 91.1566C250.07 88.8266 247.19 87.0766 243.85 86.2166C242.38 85.8466 240.92 85.6668 239.54 85.6668Z" fill="white"/>
<path d="M235.56 82.9971C235.56 82.9971 235.79 84.0767 235.33 92.6567C235.18 95.3467 244.62 97.8668 247.06 95.4268C249.5 92.9868 248.52 90.4469 249.11 81.2769C249.69 72.1069 235.56 82.9971 235.56 82.9971Z" fill="#FFC2B0"/>
<path d="M249.11 81.2769C249.11 81.2769 246.79 89.7769 235.33 93.0469L235.5 85.3169L249.11 81.2769Z" fill="#EA9C92"/>
<path d="M256.37 59.6671C259.25 70.8071 252.56 82.167 241.42 85.047C230.28 87.927 218.92 81.2373 216.04 70.0973C213.16 58.9573 219.85 47.5969 230.99 44.7169C242.13 41.8469 253.49 48.5371 256.37 59.6671Z" fill="#FFC2B0"/>
<path d="M240.99 65.647C240.99 65.647 229.52 70.5572 221.58 70.6172C213.64 70.6772 215.39 64.0269 215.39 64.0269L238.96 60.6172L240.99 65.647Z" fill="#EA9C92"/>
<path d="M219.21 66.9467C219.21 66.9467 229.2 62.707 237.96 64.477C240.02 64.897 241.93 65.9969 243.26 67.6269C243.69 68.1569 244.24 68.6471 244.86 68.7871C246.41 69.1371 248.96 62.6968 251.98 62.5468C255 62.3968 257.02 64.5368 254.54 68.5068C252.06 72.4668 252.9 76.9068 254.04 77.5468C255.18 78.1868 267.26 68.9271 256.6 47.8071C245.94 26.6871 218.86 38.0671 214.65 42.3471C214.65 42.3471 210.21 46.2168 206.61 42.7768C206.61 42.7568 202.56 73.0467 219.21 66.9467Z" fill="#0CE3EF"/>
<path d="M257.75 154.267V170.107C257.75 171.927 256.99 173.657 255.64 174.877L223.09 204.547L226.79 210.197L269.77 179.027C271.78 177.567 273.07 175.337 273.33 172.867L276.23 145.237L257.75 154.267Z" fill="#FFC2B0"/>
<path d="M270.63 103.507C270.63 103.507 280.5 118.357 284.18 157.437C284.18 157.437 267.31 162.887 257.74 159.797C248.17 156.697 270.63 103.507 270.63 103.507Z" fill="#0B2EE5"/>
<path d="M255.94 122.277C255.94 122.277 252.07 142.967 251.85 152.687C251.79 155.357 253.42 157.767 255.94 158.677V122.277Z" fill="#0B2EE5"/>
<path d="M247.5 225.147L240.31 224.197L193.88 197.386C192.39 196.526 189.79 196.637 188.07 197.627L155.17 216.617L150.82 216.047V220.377C150.79 220.947 151.12 221.497 151.82 221.897L204.44 252.277C205.93 253.137 208.53 253.027 210.25 252.037L246.08 231.357C247.05 230.797 247.53 230.077 247.5 229.407V225.147Z" fill="#173D7A"/>
<path d="M212.61 208.207L209.31 206.307H173.04L155.16 216.627L150.81 216.057V220.387C150.78 220.957 151.11 221.507 151.81 221.907L204.43 252.287C205.22 252.737 206.31 252.927 207.43 252.847L212.61 208.207Z" fill="#0B2EE5"/>
<path d="M152.74 216.297L150.81 216.047V220.377C150.78 220.947 151.11 221.497 151.81 221.897L152.74 222.437V216.297Z" fill="#0B2EE5"/>
<path d="M204.97 252.527C206.38 253.067 208.4 252.947 209.9 252.217V244.847H204.97V252.527Z" fill="#0B2EE5"/>
<path d="M204.44 247.957L151.82 217.577C150.33 216.717 150.52 215.217 152.24 214.227L188.07 193.547C189.79 192.557 192.39 192.447 193.88 193.307L246.5 223.687C247.99 224.547 247.8 226.047 246.08 227.037L210.25 247.717C208.53 248.707 205.93 248.817 204.44 247.957Z" fill="white"/>
<path d="M203.55 243.347L159.79 218.087C158.55 217.377 158.71 216.127 160.14 215.297L179.34 204.497C180.77 203.667 182.93 203.587 184.17 204.297L227.93 229.557C229.17 230.267 229.01 231.517 227.58 232.347L208.38 243.147C206.95 243.977 204.79 244.067 203.55 243.347Z" fill="#D4ECFF"/>
<path d="M190.1 192.537L189.56 196.167C189.1 199.257 189.18 202.407 189.8 205.477L190.45 208.677C190.82 210.487 192.24 211.887 194.06 212.217C195.47 212.477 196.81 211.477 196.97 210.047L197.84 202.287C197.84 202.287 199.83 204.887 200.78 204.887C201.73 204.887 199.71 197.117 197.54 192.717C195.37 188.317 190.1 192.537 190.1 192.537Z" fill="#FFC2B0"/>
<path d="M207.94 134.837L202.29 146.017C200.95 148.657 200.17 151.547 199.98 154.497L197.53 192.727L190.1 192.547L186.73 149.617C186.63 148.287 186.69 146.957 186.92 145.647L190.77 123.877L207.94 134.837Z" fill="#FFC2B0"/>
<path d="M202.66 250.877L198.25 245.117L151.85 218.247C150.36 217.387 149.16 215.077 149.16 213.097L149.2 175.107L146.53 171.627L149.04 170.177C149.52 169.867 150.16 169.877 150.86 170.277L203.45 200.727C204.94 201.587 206.14 203.897 206.14 205.877L206.1 247.247C206.1 248.367 205.72 249.137 205.12 249.457L202.66 250.877Z" fill="#173D7A"/>
<path d="M170.57 229.087L167.27 227.177L149.17 195.747L149.19 175.107L146.52 171.627L149.03 170.177C149.51 169.867 150.15 169.877 150.85 170.277L203.44 200.727C204.23 201.187 204.93 202.047 205.42 203.047L170.57 229.087Z" fill="#0B2EE5"/>
<path d="M147.71 173.167L146.53 171.617L149.04 170.167C149.52 169.857 150.16 169.867 150.86 170.267L151.79 170.807L147.71 173.167Z" fill="#0B2EE5"/>
<path d="M203.92 201.057C205.09 202.017 205.99 203.817 206.12 205.487L200.98 208.457L198.52 204.177L203.92 201.057Z" fill="#0B2EE5"/>
<path d="M200.94 202.177L148.35 171.727C146.86 170.867 145.65 171.777 145.65 173.757L145.61 215.127C145.61 217.107 146.81 219.417 148.3 220.277L200.89 250.727C202.38 251.587 203.59 250.677 203.59 248.697L203.63 207.327C203.63 205.347 202.42 203.037 200.94 202.177Z" fill="#0B2EE5"/>
<path d="M226.79 210.197L225.95 211.947C224.98 213.957 223.45 215.647 221.55 216.817L216.33 220.037C214.71 221.037 212.65 221.117 211 220.157C210.94 220.127 210.88 220.087 210.82 220.047C209.16 219.007 209.01 216.627 210.38 215.217L215.84 209.607C215.84 209.607 212.77 211.957 211.91 211.007C211.28 210.317 214.88 206.927 217.65 206.817C220.42 206.707 223.09 204.537 223.09 204.537L226.79 210.197Z" fill="#FFC2B0"/>
<path d="M212.95 83.6172C212.95 83.6172 192.94 105.387 184.87 125.367C184.87 125.367 191.71 137.697 208.46 142.537C225.21 147.367 212.95 83.6172 212.95 83.6172Z" fill="#0B2EE5"/>
<path d="M204.69 141.237L207.93 109.907L200.29 139.257C201.66 139.967 203.13 140.627 204.69 141.237Z" fill="#0B2EE5"/>
<path d="M227.94 79.2271L222.56 77.7471C222.56 77.7471 225.13 81.7869 228.87 82.8169C232.62 83.8469 233.2 80.6768 233.2 80.6768L227.94 79.2271Z" fill="white"/>
<path d="M125.89 31.0972C117.59 31.0972 110.83 24.3371 110.83 16.0371C110.83 7.73711 117.59 0.977051 125.89 0.977051C134.19 0.977051 140.95 7.73711 140.95 16.0371C140.95 24.3371 134.19 31.0972 125.89 31.0972ZM125.89 4.25684C119.4 4.25684 114.12 9.53686 114.12 16.0269C114.12 22.5169 119.4 27.7969 125.89 27.7969C132.38 27.7969 137.66 22.5169 137.66 16.0269C137.66 9.53686 132.38 4.25684 125.89 4.25684Z" fill="#D4ECFF"/>
<path d="M430.37 139.627C424.48 139.627 419.69 134.837 419.69 128.947C419.69 123.057 424.48 118.267 430.37 118.267C436.26 118.267 441.05 123.057 441.05 128.947C441.05 134.827 436.25 139.627 430.37 139.627ZM430.37 121.547C426.29 121.547 422.98 124.867 422.98 128.937C422.98 133.017 426.3 136.327 430.37 136.327C434.45 136.327 437.76 133.007 437.76 128.937C437.76 124.867 434.44 121.547 430.37 121.547Z" fill="#0B2EE5"/>
<path d="M80.1899 332.567L72.9399 317.827L87.6801 310.577L94.9301 325.317L80.1899 332.567ZM77.34 319.327L81.6899 328.177L90.54 323.827L86.1899 314.977L77.34 319.327Z" fill="#0B2EE5"/>
<path d="M294.18 104.047L286.93 89.3071L301.67 82.0571L308.92 96.7969L294.18 104.047ZM291.33 90.7969L295.68 99.647L304.53 95.2969L300.18 86.4468L291.33 90.7969Z" fill="#0B2EE5"/>
<path d="M60.4049 242.583L53.6296 245.914L56.9606 252.689L63.7359 249.358L60.4049 242.583Z" fill="#0B2EE5"/>
<path d="M326.04 24.0471L285.75 0.787305C284.95 0.327305 284.23 0.307383 283.67 0.617383V0.58711L279.76 2.84736C279.76 2.84736 281.49 3.47736 282.51 3.84736V33.1872C282.51 35.5772 283.96 38.3471 285.75 39.3771L324.26 61.6071V65.0471L328.21 62.7771L328.19 62.7673C328.86 62.3573 329.29 61.4672 329.29 60.1872V30.2272C329.28 27.8472 327.83 25.0771 326.04 24.0471Z" fill="#0CE3EF"/>
<path d="M322.06 64.9369L281.77 41.6766C279.98 40.6466 278.53 37.8667 278.53 35.4867V5.52671C278.53 3.13671 279.98 2.047 281.77 3.077L322.06 26.3368C323.85 27.3668 325.3 30.1467 325.3 32.5267V62.4867C325.3 64.8667 323.85 65.9669 322.06 64.9369Z" fill="#0CE3EF"/>
<path d="M295.32 31.3572C295.32 33.0872 294.1 33.797 292.6 32.927C291.1 32.057 289.88 29.957 289.88 28.217C289.88 26.477 291.1 25.7772 292.6 26.6472C294.11 27.5072 295.32 29.6172 295.32 31.3572Z" fill="white"/>
<path d="M303.56 36.1072C303.56 37.8372 302.34 38.547 300.84 37.677C299.34 36.807 298.12 34.707 298.12 32.967C298.12 31.227 299.34 30.5272 300.84 31.3972C302.34 32.2672 303.56 34.3772 303.56 36.1072Z" fill="white"/>
<path d="M311.79 40.8568C311.79 42.5868 310.57 43.2966 309.07 42.4266C307.57 41.5566 306.35 39.4567 306.35 37.7167C306.35 35.9867 307.57 35.2769 309.07 36.1469C310.58 37.0169 311.79 39.1268 311.79 40.8568Z" fill="white"/>
<path d="M47.55 278.907L8.03003 256.087C7.25003 255.637 6.53999 255.617 5.98999 255.927V255.897L2.16003 258.117C2.16003 258.117 3.85998 258.737 4.84998 259.097V287.877C4.84998 290.217 6.27003 292.937 8.03003 293.957L45.8101 315.767V319.147L49.6801 316.917L49.66 316.907C50.31 316.507 50.73 315.637 50.73 314.377V284.987C50.73 282.637 49.3 279.917 47.55 278.907Z" fill="#0B2EE5"/>
<path d="M43.64 319.017L4.12 296.197C2.36 295.187 0.939941 292.467 0.939941 290.117V260.727C0.939941 258.387 2.36 257.307 4.12 258.327L43.64 281.147C45.4 282.157 46.8199 284.877 46.8199 287.227V316.617C46.8199 318.957 45.4 320.037 43.64 319.017Z" fill="#D4ECFF"/>
<path d="M17.41 286.077C17.41 287.777 16.22 288.467 14.74 287.617C13.27 286.767 12.0699 284.697 12.0699 282.997C12.0699 281.297 13.26 280.607 14.74 281.457C16.22 282.307 17.41 284.377 17.41 286.077Z" fill="white"/>
<path d="M25.49 290.737C25.49 292.437 24.2999 293.127 22.8199 292.277C21.3499 291.427 20.15 289.357 20.15 287.657C20.15 285.957 21.3399 285.267 22.8199 286.117C24.2999 286.967 25.49 289.037 25.49 290.737Z" fill="white"/>
<path d="M33.5699 295.407C33.5699 297.107 32.38 297.797 30.9 296.947C29.42 296.097 28.23 294.027 28.23 292.327C28.23 290.627 29.42 289.937 30.9 290.787C32.38 291.637 33.5699 293.707 33.5699 295.407Z" fill="white"/>
</svg>
