<svg width="158" height="158" viewBox="0 0 158 158" fill="none" xmlns="http://www.w3.org/2000/svg">
<path d="M95.65 143.197H76.7C73.63 143.197 71.13 140.697 71.13 137.627V129.307C65.89 127.937 60.88 125.857 56.2 123.117L50.3101 129.007C48.1401 131.177 44.6001 131.177 42.4301 129.007L29.03 115.607C26.86 113.437 26.86 109.897 29.03 107.727L34.92 101.837C32.18 97.1569 30.1 92.1567 28.73 86.9067H20.41C17.34 86.9067 14.84 84.4069 14.84 81.3369V62.3867C14.84 59.3167 17.34 56.8169 20.41 56.8169H28.71C30.08 51.5669 32.15 46.5472 34.89 41.8672L29.03 36.0068C26.86 33.8368 26.86 30.297 29.03 28.127L42.4301 14.7271C44.6001 12.5571 48.1401 12.5571 50.3101 14.7271L56.15 20.5669C60.84 17.8069 65.86 15.7272 71.12 14.3472V6.09717C71.12 3.02717 73.6199 0.526855 76.6899 0.526855H95.64C98.71 0.526855 101.21 3.02717 101.21 6.09717V14.3271C106.48 15.6971 111.51 17.7771 116.21 20.5371L122.03 14.7168C124.2 12.5468 127.74 12.5468 129.91 14.7168L143.31 28.1172C145.48 30.2872 145.48 33.8271 143.31 35.9971L137.49 41.8169C140.25 46.5169 142.33 51.5469 143.7 56.8169H151.93C155 56.8169 157.5 59.3167 157.5 62.3867V81.3369C157.5 84.4069 155 86.9067 151.93 86.9067H143.68C142.31 92.1667 140.22 97.187 137.46 101.877L143.3 107.717C145.47 109.887 145.47 113.427 143.3 115.597L129.9 128.997C127.73 131.167 124.19 131.167 122.02 128.997L116.16 123.137C111.47 125.877 106.46 127.957 101.21 129.317V137.617C101.22 140.697 98.72 143.197 95.65 143.197Z" fill="#0CE3EF"/>
<path d="M86.17 112.527C75.75 112.527 65.33 108.557 57.4 100.627C41.54 84.7671 41.54 58.9471 57.4 43.0871C63.8 36.6871 71.91 32.6873 80.86 31.5173C89.53 30.3873 98.47 32.0971 106.06 36.3571C107.4 37.1071 107.88 38.8072 107.13 40.1472C106.38 41.4872 104.68 41.967 103.34 41.217C89.6899 33.567 72.43 35.9573 61.35 47.0373C47.66 60.7273 47.66 83.007 61.35 96.697C68.2 103.537 77.19 106.967 86.18 106.967C95.17 106.967 104.16 103.547 111.01 96.697C121.71 85.997 124.36 69.7069 117.6 56.1769C116.91 54.7969 117.47 53.1272 118.85 52.4372C120.23 51.7472 121.9 52.3072 122.59 53.6872C130.42 69.3672 127.35 88.2369 114.95 100.637C107.01 108.557 96.59 112.527 86.17 112.527Z" fill="#0CE3EF"/>
<path d="M113.58 48.4468C112.84 48.4468 112.13 48.147 111.61 47.627C111.09 47.107 110.8 46.3967 110.8 45.6567C110.8 44.9267 111.09 44.207 111.61 43.687C112.13 43.167 112.85 42.8672 113.58 42.8672C114.31 42.8672 115.03 43.167 115.55 43.687C116.07 44.207 116.37 44.9267 116.37 45.6567C116.37 46.3867 116.07 47.107 115.55 47.627C115.03 48.157 114.31 48.4468 113.58 48.4468Z" fill="#0CE3EF"/>
<path d="M95.76 52.1471C96.85 51.0571 98.6099 51.0571 99.6999 52.1471L109.7 62.1471C110.79 63.2371 110.79 64.997 109.7 66.087L84.21 91.5773C83.69 92.0973 82.98 92.3971 82.24 92.3971C81.5 92.3971 80.79 92.1073 80.27 91.5773L62.65 73.9571C61.56 72.8671 61.56 71.1072 62.65 70.0172L72.65 60.0172C73.17 59.4972 73.88 59.1969 74.62 59.1969C75.36 59.1969 76.07 59.4872 76.59 60.0172L82.25 65.6769L95.76 52.1471ZM103.79 64.1071L97.74 58.0572L84.22 71.5773C83.7 72.0973 82.99 72.3971 82.25 72.3971C81.51 72.3971 80.8 72.1073 80.28 71.5773L74.62 65.9171L68.5699 71.9772L82.25 85.6569L103.79 64.1071Z" fill="#0CE3EF"/>
<path d="M91.09 76.8071L85.04 70.7568L71.52 84.2769C71 84.7969 70.29 85.0972 69.55 85.0972C68.81 85.0972 68.1 84.8069 67.58 84.2769L61.92 78.6172L55.87 84.6768L69.55 98.3569" fill="white"/>
<path d="M82.95 157.737H64C59.91 157.737 56.58 154.407 56.58 150.317V143.407C52.14 142.137 47.8501 140.357 43.8101 138.117L38.92 143.007C36.02 145.897 31.32 145.897 28.42 143.007L15.02 129.607C12.13 126.717 12.13 122.007 15.02 119.117L19.91 114.227C17.66 110.187 15.89 105.897 14.61 101.457H7.69995C3.60995 101.457 0.280029 98.1271 0.280029 94.0371V75.0869C0.280029 70.9969 3.60995 67.667 7.69995 67.667H14.59C15.86 63.217 17.63 58.927 19.88 54.877L15.01 50.0068C12.12 47.1168 12.12 42.4071 15.01 39.5171L28.41 26.1172C31.3 23.2272 36.01 23.2272 38.91 26.1172L43.75 30.9668C47.81 28.7068 52.1099 26.927 56.5699 25.647V18.8071C56.5699 14.7171 59.9 11.3867 63.99 11.3867H82.9399C87.0299 11.3867 90.36 14.7171 90.36 18.8071V25.627C94.83 26.907 99.14 28.6868 103.2 30.9468L108.02 26.127C110.91 23.237 115.62 23.237 118.52 26.127L131.92 39.5269C134.81 42.4169 134.81 47.1269 131.92 50.0269L127.1 54.8472C129.36 58.9072 131.14 63.217 132.42 67.687H139.24C143.33 67.687 146.66 71.0169 146.66 75.1069V94.0571C146.66 98.1471 143.33 101.477 139.24 101.477H132.4C131.12 105.937 129.34 110.237 127.08 114.297L131.92 119.147C134.81 122.037 134.81 126.747 131.92 129.637L118.52 143.037C115.63 145.927 110.92 145.927 108.02 143.037L103.15 138.167C99.1 140.417 94.81 142.187 90.36 143.457V150.347C90.37 154.407 87.0399 157.737 82.95 157.737ZM43.2 133.497L44.4301 134.217C48.9501 136.867 53.82 138.887 58.89 140.217L60.27 140.577V150.327C60.27 152.377 61.94 154.057 64 154.057H82.95C85 154.057 86.6801 152.387 86.6801 150.327V140.597L88.0601 140.237C93.1401 138.917 98.01 136.897 102.54 134.247L103.77 133.527L110.64 140.397C112.09 141.847 114.46 141.847 115.91 140.397L129.31 126.997C130.76 125.547 130.76 123.177 129.31 121.727L122.46 114.877L123.18 113.647C125.85 109.107 127.87 104.227 129.2 99.147L129.56 97.7671H139.24C141.29 97.7671 142.97 96.0971 142.97 94.0371V75.0869C142.97 73.0369 141.3 71.3569 139.24 71.3569H129.58L129.22 69.9771C127.89 64.8771 125.87 59.9868 123.21 55.4468L122.49 54.2168L129.32 47.3867C130.77 45.9367 130.77 43.5672 129.32 42.1172L115.92 28.7168C114.46 27.2668 112.1 27.2668 110.65 28.7168L103.82 35.5469L102.59 34.8271C98.05 32.1671 93.1601 30.1369 88.0601 28.8169L86.6801 28.457V18.7969C86.6801 16.7469 85.0099 15.0669 82.95 15.0669H64C61.95 15.0669 60.27 16.7369 60.27 18.7969V28.4771L58.89 28.8369C53.8 30.1669 48.92 32.1869 44.39 34.8569L43.16 35.5771L36.3101 28.7271C34.8601 27.2771 32.49 27.2771 31.04 28.7271L17.64 42.127C16.19 43.577 16.19 45.947 17.64 47.397L24.51 54.2671L23.79 55.4971C21.14 60.0271 19.12 64.9071 17.8 69.9771L17.4399 71.3569H7.70996C5.65996 71.3569 3.97998 73.0269 3.97998 75.0869V94.0371C3.97998 96.0871 5.64996 97.7671 7.70996 97.7671H17.46L17.8199 99.147C19.1499 104.217 21.1599 109.087 23.8199 113.607L24.54 114.837L17.64 121.737C16.19 123.187 16.19 125.557 17.64 127.007L31.04 140.407C32.49 141.857 34.8601 141.857 36.3101 140.407L43.2 133.497Z" fill="#0B2EE5"/>
<path d="M73.48 125.217C63.06 125.217 52.6399 121.247 44.7099 113.317C28.8499 97.4571 28.8499 71.637 44.7099 55.777C51.1099 49.377 59.22 45.3772 68.17 44.2072C76.84 43.0772 85.78 44.7871 93.37 49.0471C94.71 49.7971 95.1899 51.4971 94.4399 52.8371C93.6899 54.1771 91.99 54.6569 90.65 53.9069C77 46.2569 59.74 48.6472 48.66 59.7272C34.97 73.4172 34.97 95.6969 48.66 109.387C55.51 116.227 64.5 119.657 73.49 119.657C82.48 119.657 91.4699 116.237 98.3199 109.387C109.02 98.6869 111.67 82.3974 104.91 68.8674C104.22 67.4874 104.78 65.8171 106.16 65.1271C107.54 64.4371 109.21 64.9971 109.9 66.3771C117.73 82.0571 114.66 100.927 102.26 113.327C94.31 121.257 83.89 125.217 73.48 125.217Z" fill="#0B2EE5"/>
<path d="M100.88 61.147C100.14 61.147 99.43 60.8471 98.91 60.3271C98.39 59.8071 98.1 59.0969 98.1 58.3569C98.1 57.6269 98.39 56.9067 98.91 56.3867C99.43 55.8667 100.15 55.5669 100.88 55.5669C101.61 55.5669 102.33 55.8667 102.85 56.3867C103.37 56.9067 103.67 57.6269 103.67 58.3569C103.67 59.0869 103.37 59.8071 102.85 60.3271C102.33 60.8471 101.62 61.147 100.88 61.147Z" fill="#0B2EE5"/>
<path d="M83.0699 64.837C84.1599 63.747 85.92 63.747 87.01 64.837L97.01 74.837C98.1 75.927 98.1 77.687 97.01 78.777L71.52 104.267C71 104.787 70.29 105.087 69.55 105.087C68.81 105.087 68.1 104.797 67.58 104.267L49.96 86.6471C48.87 85.5571 48.87 83.7971 49.96 82.7071L59.96 72.7071C60.48 72.1871 61.19 71.8868 61.93 71.8868C62.67 71.8868 63.38 72.1771 63.9 72.7071L69.5601 78.3673L83.0699 64.837ZM91.09 76.8072L85.04 70.757L71.52 84.277C71 84.797 70.29 85.0973 69.55 85.0973C68.81 85.0973 68.1 84.807 67.58 84.277L61.92 78.6173L55.87 84.6769L69.55 98.3571L91.09 76.8072Z" fill="#0B2EE5"/>
</svg>
