<svg width="126" height="138" viewBox="0 0 126 138" fill="none" xmlns="http://www.w3.org/2000/svg">
<g filter="url(#filter0_d)">
<path d="M25.3 47.3672V90.7471L62.8701 112.437L100.43 90.7471V47.3672L62.8701 25.687L25.3 47.3672Z" fill="url(#paint0_linear)"/>
</g>
<path d="M66.8901 83.7271H62.0701C61.2901 83.7271 60.6501 83.0871 60.6501 82.3071V80.1968C59.3201 79.8468 58.0401 79.317 56.8601 78.627L55.3601 80.127C54.8101 80.677 53.9101 80.677 53.3601 80.127L49.9501 76.7168C49.4001 76.1668 49.4001 75.2668 49.9501 74.7168L51.4501 73.2168C50.7501 72.0268 50.2201 70.7568 49.8801 69.4268H47.7601C46.9801 69.4268 46.3401 68.7868 46.3401 68.0068V63.187C46.3401 62.407 46.9801 61.7671 47.7601 61.7671H49.8701C50.2201 60.4271 50.7401 59.1568 51.4401 57.9668L49.9501 56.4771C49.4001 55.9271 49.4001 55.0271 49.9501 54.4771L53.3601 51.0669C53.9101 50.5169 54.8101 50.5169 55.3601 51.0669L56.8501 52.5571C58.0401 51.8571 59.3201 51.3271 60.6601 50.9771V48.877C60.6601 48.097 61.3001 47.457 62.0801 47.457H66.9001C67.6801 47.457 68.3201 48.097 68.3201 48.877V50.9668C69.6601 51.3168 70.9401 51.8469 72.1301 52.5469L73.6101 51.0669C74.1601 50.5169 75.0601 50.5169 75.6101 51.0669L79.0201 54.4771C79.5701 55.0271 79.5701 55.9271 79.0201 56.4771L77.5401 57.957C78.2401 59.147 78.7701 60.4271 79.1201 61.7671H81.2101C81.9901 61.7671 82.6301 62.407 82.6301 63.187V68.0068C82.6301 68.7868 81.9901 69.4268 81.2101 69.4268H79.1101C78.7601 70.7668 78.2301 72.0368 77.5301 73.2368L79.0201 74.7271C79.5701 75.2771 79.5701 76.1771 79.0201 76.7271L75.6101 80.1367C75.0601 80.6867 74.1601 80.6867 73.6101 80.1367L72.1201 78.647C70.9301 79.347 69.6501 79.8668 68.3201 80.2168V82.3271C68.3101 83.0871 67.6701 83.7271 66.8901 83.7271Z" fill="#0CE3EF"/>
<path d="M64.48 75.927C61.83 75.927 59.18 74.9169 57.17 72.9069C53.14 68.8769 53.14 62.3071 57.17 58.2771C58.8 56.6471 60.86 55.6371 63.13 55.3371C65.33 55.0471 67.61 55.4871 69.54 56.5671C69.88 56.7571 70 57.1871 69.81 57.5271C69.62 57.8671 69.19 57.9871 68.85 57.7971C65.38 55.8471 60.99 56.4571 58.17 59.2771C54.69 62.7571 54.69 68.4172 58.17 71.8972C59.91 73.6372 62.2 74.507 64.48 74.507C66.77 74.507 69.05 73.6372 70.79 71.8972C73.51 69.1772 74.1899 65.0374 72.4699 61.5974C72.2999 61.2474 72.44 60.8172 72.79 60.6472C73.14 60.4772 73.57 60.617 73.74 60.967C75.73 64.957 74.95 69.7469 71.8 72.9069C69.78 74.9169 67.13 75.927 64.48 75.927Z" fill="#0CE3EF"/>
<path d="M71.45 59.6367C71.26 59.6367 71.08 59.5568 70.95 59.4268C70.82 59.2968 70.74 59.1168 70.74 58.9268C70.74 58.7368 70.81 58.5568 70.95 58.4268C71.08 58.2968 71.26 58.2168 71.45 58.2168C71.64 58.2168 71.82 58.2968 71.95 58.4268C72.08 58.5568 72.16 58.7368 72.16 58.9268C72.16 59.1168 72.08 59.2968 71.95 59.4268C71.82 59.5668 71.63 59.6367 71.45 59.6367Z" fill="#0CE3EF"/>
<path d="M66.92 60.5772C67.2 60.2972 67.65 60.2972 67.92 60.5772L70.4601 63.1172C70.7401 63.3972 70.7401 63.8472 70.4601 64.1172L63.98 70.5972C63.85 70.7272 63.67 70.8072 63.48 70.8072C63.29 70.8072 63.11 70.7372 62.98 70.5972L58.5 66.1172C58.22 65.8372 58.22 65.3872 58.5 65.1172L61.04 62.5772C61.17 62.4472 61.35 62.3672 61.54 62.3672C61.73 62.3672 61.91 62.4372 62.04 62.5772L63.48 64.0171L66.92 60.5772ZM68.9601 63.6172L67.42 62.0772L63.98 65.5171C63.85 65.6471 63.67 65.7271 63.48 65.7271C63.29 65.7271 63.11 65.6571 62.98 65.5171L61.54 64.0772L60 65.6172L63.48 69.0972L68.9601 63.6172Z" fill="#0CE3EF"/>
<path d="M65.73 66.8472L64.19 65.3071L60.75 68.7471C60.62 68.8771 60.44 68.957 60.25 68.957C60.06 68.957 59.88 68.8871 59.75 68.7471L58.31 67.3071L56.77 68.8472L60.25 72.3271" fill="white"/>
<path d="M63.6601 87.707H58.8401C57.6501 87.707 56.6801 86.7371 56.6801 85.5371V83.9868C55.6701 83.6868 54.6901 83.2769 53.7601 82.7769L52.6601 83.877C51.8201 84.717 50.4401 84.717 49.6001 83.877L46.1901 80.4668C45.7801 80.0568 45.5601 79.517 45.5601 78.937C45.5601 78.357 45.7901 77.8167 46.1901 77.4067L47.2901 76.3071C46.7901 75.3771 46.3801 74.3967 46.0801 73.3867H44.5301C43.3401 73.3867 42.3601 72.4168 42.3601 71.2168V66.397C42.3601 65.207 43.3301 64.2271 44.5301 64.2271H46.0701C46.3701 63.2171 46.7801 62.2369 47.2801 61.2969L46.1901 60.207C45.7801 59.797 45.5601 59.2568 45.5601 58.6768C45.5601 58.0968 45.7901 57.557 46.1901 57.147L49.6001 53.7368C50.4401 52.8968 51.8201 52.8968 52.6601 53.7368L53.7401 54.8169C54.6701 54.3169 55.6601 53.9072 56.6701 53.5972V52.0669C56.6701 50.8769 57.6401 49.897 58.8301 49.897H63.6501C64.8401 49.897 65.8201 50.8669 65.8201 52.0669V53.5972C66.8401 53.9072 67.8201 54.3069 68.7601 54.8169L69.8401 53.7368C70.6801 52.8968 72.0601 52.8968 72.9001 53.7368L76.3101 57.147C77.1501 57.987 77.1501 59.367 76.3101 60.207L75.2301 61.2871C75.7301 62.2271 76.1401 63.2071 76.4501 64.2271H77.9801C79.1701 64.2271 80.1501 65.197 80.1501 66.397V71.2168C80.1501 72.4068 79.1801 73.3867 77.9801 73.3867H76.4501C76.1401 74.3967 75.7401 75.3869 75.2301 76.3169L76.3101 77.397C76.7201 77.807 76.9401 78.3468 76.9401 78.9268C76.9401 79.5068 76.7101 80.047 76.3101 80.457L72.9001 83.8672C72.0601 84.7072 70.6801 84.7072 69.8401 83.8672L68.7501 82.7769C67.8201 83.2769 66.8401 83.6868 65.8301 83.9868V85.5269C65.8301 86.7269 64.8501 87.707 63.6601 87.707ZM53.5101 80.9067L54.0101 81.1968C55.1401 81.8568 56.3501 82.3668 57.6201 82.6968L58.1801 82.8472V85.5371C58.1801 85.9071 58.4801 86.207 58.8501 86.207H63.6701C64.0401 86.207 64.3401 85.9071 64.3401 85.5371V82.8472L64.9001 82.6968C66.1701 82.3668 67.3801 81.867 68.5101 81.207L69.0101 80.917L70.9101 82.8169C71.1701 83.0769 71.6001 83.0769 71.8601 82.8169L75.2701 79.4067C75.4001 79.2767 75.4701 79.117 75.4701 78.937C75.4701 78.757 75.4001 78.5868 75.2701 78.4668L73.3801 76.5771L73.6701 76.0771C74.3401 74.9471 74.8401 73.727 75.1701 72.457L75.3201 71.897H77.9901C78.3601 71.897 78.6601 71.5971 78.6601 71.2271V66.4067C78.6601 66.0367 78.3601 65.7368 77.9901 65.7368H75.3201L75.1701 65.1768C74.8401 63.9068 74.3401 62.6871 73.6701 61.5571L73.3801 61.0571L75.2701 59.167C75.5301 58.907 75.5301 58.4768 75.2701 58.2168L71.8601 54.8071C71.6001 54.5471 71.1701 54.5471 70.9101 54.8071L69.0201 56.6968L68.5201 56.4067C67.3901 55.7467 66.1701 55.2367 64.9001 54.9067L64.3401 54.7568V52.0869C64.3401 51.7169 64.0401 51.417 63.6701 51.417H58.8501C58.4801 51.417 58.1801 51.7169 58.1801 52.0869V54.7568L57.6201 54.9067C56.3501 55.2367 55.1301 55.7467 54.0001 56.4067L53.5001 56.6968L51.6101 54.7969C51.3501 54.5369 50.9201 54.5369 50.6601 54.7969L47.2501 58.207C47.1201 58.337 47.0501 58.4968 47.0501 58.6768C47.0501 58.8568 47.1201 59.027 47.2501 59.147L49.1501 61.0469L48.8601 61.5469C48.2001 62.6769 47.7001 63.8967 47.3701 65.1567L47.2201 65.7168H44.5301C44.1601 65.7168 43.8601 66.0167 43.8601 66.3867V71.207C43.8601 71.577 44.1601 71.877 44.5301 71.877H47.2201L47.3701 72.437C47.7001 73.697 48.2001 74.9169 48.8701 76.0469L49.1601 76.5469L47.2501 78.457C47.1201 78.587 47.0501 78.7468 47.0501 78.9268C47.0501 79.1068 47.1201 79.277 47.2501 79.397L50.6601 82.8071C50.9201 83.0671 51.3501 83.0671 51.6101 82.8071L53.5101 80.9067Z" fill="#0B2EE5"/>
<path d="M61.25 79.1569C58.6 79.1569 55.95 78.1469 53.94 76.1369C49.91 72.1069 49.91 65.537 53.94 61.507C55.57 59.877 57.63 58.8671 59.9 58.5671C62.1 58.2771 64.38 58.7171 66.31 59.7971C66.65 59.9871 66.77 60.417 66.58 60.757C66.39 61.097 65.96 61.2171 65.62 61.0271C62.15 59.0771 57.76 59.687 54.94 62.507C51.46 65.987 51.46 71.6472 54.94 75.1272C56.68 76.8672 58.97 77.737 61.25 77.737C63.54 77.737 65.82 76.8672 67.56 75.1272C70.28 72.4072 70.96 68.2674 69.24 64.8274C69.07 64.4774 69.21 64.0472 69.56 63.8772C69.91 63.6972 70.34 63.847 70.51 64.197C72.5 68.187 71.72 72.9769 68.57 76.1369C66.55 78.1469 63.9 79.1569 61.25 79.1569Z" fill="#0B2EE5"/>
<path d="M68.2202 62.8672C68.0302 62.8672 67.8502 62.7867 67.7202 62.6567C67.5902 62.5267 67.5103 62.3467 67.5103 62.1567C67.5103 61.9667 67.5802 61.7867 67.7202 61.6567C67.8502 61.5267 68.0302 61.4468 68.2202 61.4468C68.4102 61.4468 68.5902 61.5267 68.7202 61.6567C68.8502 61.7867 68.9302 61.9667 68.9302 62.1567C68.9302 62.3467 68.8502 62.5267 68.7202 62.6567C68.5902 62.7867 68.4102 62.8672 68.2202 62.8672Z" fill="#0B2EE5"/>
<path d="M63.69 63.8072C63.97 63.5272 64.42 63.5272 64.69 63.8072L67.23 66.3472C67.51 66.6272 67.51 67.0772 67.23 67.3472L60.75 73.8272C60.62 73.9572 60.44 74.0371 60.25 74.0371C60.06 74.0371 59.88 73.9672 59.75 73.8272L55.2701 69.3472C54.9901 69.0672 54.9901 68.6172 55.2701 68.3472L57.81 65.8072C57.94 65.6772 58.12 65.5972 58.31 65.5972C58.5 65.5972 58.68 65.6672 58.81 65.8072L60.25 67.2471L63.69 63.8072ZM65.73 66.8472L64.19 65.3072L60.75 68.7471C60.62 68.8771 60.44 68.9571 60.25 68.9571C60.06 68.9571 59.88 68.8871 59.75 68.7471L58.31 67.3072L56.7701 68.8472L60.25 72.3272L65.73 66.8472Z" fill="#0B2EE5"/>
<defs>
<filter id="filter0_d" x="0.300049" y="0.687012" width="125.13" height="136.75" filterUnits="userSpaceOnUse" color-interpolation-filters="sRGB">
<feFlood flood-opacity="0" result="BackgroundImageFix"/>
<feColorMatrix in="SourceAlpha" type="matrix" values="0 0 0 0 0 0 0 0 0 0 0 0 0 0 0 0 0 0 127 0"/>
<feOffset/>
<feGaussianBlur stdDeviation="12.5"/>
<feColorMatrix type="matrix" values="0 0 0 0 0.0431373 0 0 0 0 0.180392 0 0 0 0 0.898039 0 0 0 0.35 0"/>
<feBlend mode="normal" in2="BackgroundImageFix" result="effect1_dropShadow"/>
<feBlend mode="normal" in="SourceGraphic" in2="effect1_dropShadow" result="shape"/>
</filter>
<linearGradient id="paint0_linear" x1="25.3024" y1="69.0577" x2="100.43" y2="69.0577" gradientUnits="userSpaceOnUse">
<stop offset="0.1242" stop-color="white"/>
<stop offset="0.9272" stop-color="white"/>
</linearGradient>
</defs>
</svg>
