<svg width="265" height="305" viewBox="0 0 265 305" fill="none" xmlns="http://www.w3.org/2000/svg">
<path d="M180.92 139.957V118.027C180.92 94.2369 161.56 74.877 137.77 74.877C126.25 74.877 115.41 79.3669 107.26 87.5269C99.11 95.6769 94.62 106.507 94.62 118.027V139.797C89.16 139.917 84.78 144.347 84.78 149.837V217.217C84.78 222.787 89.28 227.287 94.85 227.287H179.09C184.66 227.287 189.16 222.787 189.16 217.217V149.837C189.15 144.907 185.6 140.827 180.92 139.957ZM111.58 91.8569C118.58 84.8569 127.88 81.0068 137.77 81.0068C158.19 81.0068 174.8 97.6169 174.8 118.027V139.767H100.74V118.027C100.74 108.137 104.59 98.8469 111.58 91.8569Z" fill="#0CE3EF"/>
<path d="M72.21 145.127H39.09C28.15 145.127 19.24 136.228 19.24 125.288V103.938H25.12V125.288C25.12 132.978 31.38 139.237 39.08 139.237H72.2V145.127H72.21Z" fill="#0CE3EF"/>
<path d="M254.63 257.527H248.75V236.188C248.75 228.488 242.49 222.228 234.79 222.228H201.67V216.337H234.79C245.73 216.337 254.63 225.248 254.63 236.188V257.527Z" fill="#0CE3EF"/>
<path d="M25.0302 257.527H19.1501V236.188C19.1501 225.248 28.0501 216.337 38.9901 216.337H72.1101V222.228H38.9901C31.2901 222.228 25.0302 228.488 25.0302 236.188V257.527Z" fill="#0CE3EF"/>
<path d="M140.04 237.598H134.16V287.618H140.04V237.598Z" fill="#0CE3EF"/>
<path d="M234.94 150.147H201.82V144.257H234.94C242.64 144.257 248.9 137.997 248.9 130.297V108.947H254.78V130.297C254.79 141.237 245.89 150.147 234.94 150.147Z" fill="#0CE3EF"/>
<path d="M140.04 14.5371H134.16V64.5571H140.04V14.5371Z" fill="#0CE3EF"/>
<path d="M22.1899 113.977C27.7348 113.977 32.2299 109.481 32.2299 103.937C32.2299 98.3916 27.7348 93.8965 22.1899 93.8965C16.645 93.8965 12.1499 98.3916 12.1499 103.937C12.1499 109.481 16.645 113.977 22.1899 113.977Z" fill="white"/>
<path d="M22.19 116.917C15.03 116.917 9.20996 111.087 9.20996 103.937C9.20996 96.787 15.03 90.957 22.19 90.957C29.35 90.957 35.17 96.787 35.17 103.937C35.17 111.087 29.35 116.917 22.19 116.917ZM22.19 96.8369C18.28 96.8369 15.1 100.017 15.1 103.927C15.1 107.837 18.28 111.017 22.19 111.017C26.1 111.017 29.29 107.837 29.29 103.927C29.29 100.017 26.11 96.8369 22.19 96.8369Z" fill="#0CE3EF"/>
<path d="M251.68 267.567C257.225 267.567 261.72 263.072 261.72 257.527C261.72 251.982 257.225 247.487 251.68 247.487C246.135 247.487 241.64 251.982 241.64 257.527C241.64 263.072 246.135 267.567 251.68 267.567Z" fill="white"/>
<path d="M251.68 270.507C244.52 270.507 238.7 264.677 238.7 257.527C238.7 250.377 244.52 244.547 251.68 244.547C258.84 244.547 264.66 250.377 264.66 257.527C264.66 264.677 258.84 270.507 251.68 270.507ZM251.68 250.438C247.77 250.438 244.59 253.617 244.59 257.527C244.59 261.437 247.77 264.618 251.68 264.618C255.59 264.618 258.78 261.437 258.78 257.527C258.78 253.617 255.6 250.438 251.68 250.438Z" fill="#0CE3EF"/>
<path d="M22.08 267.538C27.625 267.538 32.12 263.042 32.12 257.498C32.12 251.953 27.625 247.458 22.08 247.458C16.5351 247.458 12.04 251.953 12.04 257.498C12.04 263.042 16.5351 267.538 22.08 267.538Z" fill="white"/>
<path d="M22.0801 270.478C14.9201 270.478 9.1001 264.648 9.1001 257.498C9.1001 250.348 14.9201 244.518 22.0801 244.518C29.2401 244.518 35.0601 250.348 35.0601 257.498C35.0601 264.648 29.2301 270.478 22.0801 270.478ZM22.0801 250.397C18.1701 250.397 14.9901 253.577 14.9901 257.487C14.9901 261.397 18.1701 264.578 22.0801 264.578C25.9901 264.578 29.1801 261.397 29.1801 257.487C29.1701 253.577 25.9901 250.397 22.0801 250.397Z" fill="#0CE3EF"/>
<path d="M137.1 298.868C142.645 298.868 147.14 294.373 147.14 288.828C147.14 283.283 142.645 278.788 137.1 278.788C131.555 278.788 127.06 283.283 127.06 288.828C127.06 294.373 131.555 298.868 137.1 298.868Z" fill="white"/>
<path d="M137.1 301.817C129.94 301.817 124.12 295.987 124.12 288.837C124.12 281.687 129.94 275.857 137.1 275.857C144.26 275.857 150.08 281.687 150.08 288.837C150.08 295.987 144.26 301.817 137.1 301.817ZM137.1 281.737C133.19 281.737 130 284.918 130 288.828C130 292.738 133.18 295.917 137.1 295.917C141.01 295.917 144.19 292.738 144.19 288.828C144.2 284.918 141.01 281.737 137.1 281.737Z" fill="#0CE3EF"/>
<path d="M251.85 118.986C257.395 118.986 261.89 114.491 261.89 108.946C261.89 103.401 257.395 98.9062 251.85 98.9062C246.305 98.9062 241.81 103.401 241.81 108.946C241.81 114.491 246.305 118.986 251.85 118.986Z" fill="white"/>
<path d="M251.85 121.927C244.69 121.927 238.87 116.097 238.87 108.947C238.87 101.797 244.69 95.9668 251.85 95.9668C259.01 95.9668 264.83 101.797 264.83 108.947C264.83 116.097 259 121.927 251.85 121.927ZM251.85 101.857C247.94 101.857 244.75 105.037 244.75 108.947C244.75 112.857 247.93 116.037 251.85 116.037C255.76 116.037 258.94 112.857 258.94 108.947C258.94 105.037 255.76 101.857 251.85 101.857Z" fill="#0CE3EF"/>
<path d="M137.11 23.377C142.655 23.377 147.15 18.8819 147.15 13.3369C147.15 7.79198 142.655 3.29688 137.11 3.29688C131.565 3.29688 127.07 7.79198 127.07 13.3369C127.07 18.8819 131.565 23.377 137.11 23.377Z" fill="white"/>
<path d="M137.1 26.3174C129.94 26.3174 124.12 20.4874 124.12 13.3374C124.12 6.1874 129.94 0.357422 137.1 0.357422C144.26 0.357422 150.08 6.1874 150.08 13.3374C150.08 20.4874 144.26 26.3174 137.1 26.3174ZM137.1 6.24756C133.19 6.24756 130.01 9.4274 130.01 13.3374C130.01 17.2474 133.19 20.4272 137.1 20.4272C141.01 20.4272 144.2 17.2474 144.2 13.3374C144.2 9.4274 141.02 6.24756 137.1 6.24756Z" fill="#0CE3EF"/>
<path d="M62.0302 148.297H28.9102C18.5702 148.297 10.1602 139.887 10.1602 129.547V108.197H13.8601V129.547C13.8601 137.847 20.6102 144.598 28.9102 144.598H62.0302V148.297Z" fill="#0B2EE5"/>
<path d="M243.36 261.797H239.66V240.447C239.66 232.147 232.91 225.397 224.61 225.397H191.49V221.697H224.61C234.95 221.697 243.36 230.107 243.36 240.447V261.797Z" fill="#0B2EE5"/>
<path d="M13.7601 261.797H10.0601V240.447C10.0601 230.107 18.4701 221.697 28.8101 221.697H61.9301V225.397H28.8101C20.5101 225.397 13.7601 232.147 13.7601 240.447V261.797Z" fill="#0B2EE5"/>
<path d="M128.78 241.877H125.08V291.897H128.78V241.877Z" fill="#0B2EE5"/>
<path d="M224.77 153.317H191.65V149.617H224.77C233.07 149.617 239.82 142.867 239.82 134.567V113.217H243.52V134.567C243.52 144.907 235.11 153.317 224.77 153.317Z" fill="#0B2EE5"/>
<path d="M128.78 18.8076H125.08V68.8276H128.78V18.8076Z" fill="#0B2EE5"/>
<path d="M167.42 229.237H86.4201C80.0601 229.237 74.8901 224.068 74.8901 217.708V205.288H78.5901V217.708C78.5901 222.028 82.1001 225.538 86.4201 225.538H167.42C171.74 225.538 175.25 222.028 175.25 217.708V182.137H178.95V217.708C178.95 224.068 173.78 229.237 167.42 229.237Z" fill="#0B2EE5"/>
<path d="M78.5901 193.527H74.8901V152.927C74.8901 146.567 80.0601 141.397 86.4201 141.397H167.42C173.78 141.397 178.95 146.567 178.95 152.927V169.987H175.25V152.927C175.25 148.607 171.74 145.098 167.42 145.098H86.4201C82.1001 145.098 78.5901 148.607 78.5901 152.927V193.527Z" fill="#0B2EE5"/>
<path d="M168.1 143.237H164.4V122.337C164.4 102.097 147.94 85.6372 127.7 85.6372C117.9 85.6372 108.68 89.4572 101.74 96.3872C94.81 103.317 90.99 112.527 90.99 122.337V143.237H87.29V122.337C87.29 111.547 91.49 101.407 99.12 93.7773C106.75 86.1473 116.9 81.9375 127.69 81.9375C149.96 81.9375 168.09 100.057 168.09 122.337V143.237H168.1Z" fill="#0B2EE5"/>
<path d="M126.93 184.927C133.326 184.927 138.51 179.743 138.51 173.348C138.51 166.952 133.326 161.768 126.93 161.768C120.535 161.768 115.35 166.952 115.35 173.348C115.35 179.743 120.535 184.927 126.93 184.927Z" fill="#0B2EE5"/>
<path d="M132.65 179.527H120.44V211.177H132.65V179.527Z" fill="#0B2EE5"/>
<path d="M175.57 234.348C181.115 234.348 185.61 229.853 185.61 224.308C185.61 218.763 181.115 214.268 175.57 214.268C170.025 214.268 165.53 218.763 165.53 224.308C165.53 229.853 170.025 234.348 175.57 234.348Z" fill="#0CE3EF"/>
<path d="M175.57 236.188C169.02 236.188 163.69 230.858 163.69 224.308C163.69 217.758 169.02 212.427 175.57 212.427C182.12 212.427 187.45 217.758 187.45 224.308C187.46 230.858 182.12 236.188 175.57 236.188ZM175.57 216.118C171.05 216.118 167.38 219.788 167.38 224.308C167.38 228.828 171.05 232.498 175.57 232.498C180.09 232.498 183.76 228.828 183.76 224.308C183.76 219.788 180.09 216.118 175.57 216.118Z" fill="#0B2EE5"/>
<path d="M99.07 104.886C104.615 104.886 109.11 100.392 109.11 94.8467C109.11 89.3017 104.615 84.8066 99.07 84.8066C93.5251 84.8066 89.03 89.3017 89.03 94.8467C89.03 100.392 93.5251 104.886 99.07 104.886Z" fill="#0CE3EF"/>
<path d="M99.0699 106.727C92.5199 106.727 87.1899 101.397 87.1899 94.8472C87.1899 88.2972 92.5199 82.9668 99.0699 82.9668C105.62 82.9668 110.95 88.2972 110.95 94.8472C110.95 101.397 105.63 106.727 99.0699 106.727ZM99.0699 86.6567C94.5499 86.6567 90.8799 90.3272 90.8799 94.8472C90.8799 99.3672 94.5499 103.037 99.0699 103.037C103.59 103.037 107.26 99.3672 107.26 94.8472C107.26 90.3272 103.59 86.6567 99.0699 86.6567Z" fill="#0B2EE5"/>
<path d="M12.0202 118.238C17.5651 118.238 22.0602 113.743 22.0602 108.198C22.0602 102.653 17.5651 98.1582 12.0202 98.1582C6.47526 98.1582 1.98022 102.653 1.98022 108.198C1.98022 113.743 6.47526 118.238 12.0202 118.238Z" fill="#0CE3EF"/>
<path d="M12.0201 120.088C5.47011 120.088 0.140137 114.758 0.140137 108.208C0.140137 101.658 5.47011 96.3281 12.0201 96.3281C18.5701 96.3281 23.9001 101.658 23.9001 108.208C23.9001 114.758 18.5701 120.088 12.0201 120.088ZM12.0201 100.018C7.50011 100.018 3.83011 103.688 3.83011 108.208C3.83011 112.728 7.50011 116.398 12.0201 116.398C16.5401 116.398 20.2101 112.728 20.2101 108.208C20.2101 103.688 16.5301 100.018 12.0201 100.018Z" fill="#0B2EE5"/>
<path d="M241.51 271.837C247.055 271.837 251.55 267.342 251.55 261.797C251.55 256.252 247.055 251.757 241.51 251.757C235.965 251.757 231.47 256.252 231.47 261.797C231.47 267.342 235.965 271.837 241.51 271.837Z" fill="#0CE3EF"/>
<path d="M241.51 273.688C234.96 273.688 229.63 268.358 229.63 261.808C229.63 255.258 234.96 249.927 241.51 249.927C248.06 249.927 253.39 255.258 253.39 261.808C253.39 268.348 248.06 273.688 241.51 273.688ZM241.51 253.607C236.99 253.607 233.32 257.277 233.32 261.797C233.32 266.317 236.99 269.987 241.51 269.987C246.03 269.987 249.7 266.317 249.7 261.797C249.7 257.287 246.02 253.607 241.51 253.607Z" fill="#0B2EE5"/>
<path d="M11.9001 271.797C17.4451 271.797 21.9401 267.302 21.9401 261.757C21.9401 256.212 17.4451 251.717 11.9001 251.717C6.35518 251.717 1.86011 256.212 1.86011 261.757C1.86011 267.302 6.35518 271.797 11.9001 271.797Z" fill="#0CE3EF"/>
<path d="M11.9 273.647C5.35002 273.647 0.0200195 268.318 0.0200195 261.768C0.0200195 255.218 5.35002 249.887 11.9 249.887C18.45 249.887 23.78 255.218 23.78 261.768C23.79 268.318 18.46 273.647 11.9 273.647ZM11.9 253.578C7.38002 253.578 3.71002 257.248 3.71002 261.768C3.71002 266.288 7.38002 269.958 11.9 269.958C16.42 269.958 20.09 266.288 20.09 261.768C20.09 257.248 16.42 253.578 11.9 253.578Z" fill="#0B2EE5"/>
<path d="M126.93 303.137C132.475 303.137 136.97 298.643 136.97 293.098C136.97 287.553 132.475 283.058 126.93 283.058C121.385 283.058 116.89 287.553 116.89 293.098C116.89 298.643 121.385 303.137 126.93 303.137Z" fill="#0CE3EF"/>
<path d="M126.93 304.987C120.38 304.987 115.05 299.657 115.05 293.107C115.05 286.557 120.38 281.228 126.93 281.228C133.48 281.228 138.81 286.557 138.81 293.107C138.81 299.657 133.48 304.987 126.93 304.987ZM126.93 284.907C122.41 284.907 118.74 288.578 118.74 293.098C118.74 297.618 122.41 301.288 126.93 301.288C131.45 301.288 135.12 297.618 135.12 293.098C135.12 288.578 131.44 284.907 126.93 284.907Z" fill="#0B2EE5"/>
<path d="M241.67 123.258C247.215 123.258 251.71 118.763 251.71 113.218C251.71 107.673 247.215 103.178 241.67 103.178C236.125 103.178 231.63 107.673 231.63 113.218C231.63 118.763 236.125 123.258 241.67 123.258Z" fill="#0CE3EF"/>
<path d="M241.67 125.107C235.12 125.107 229.79 119.778 229.79 113.228C229.79 106.678 235.12 101.348 241.67 101.348C248.22 101.348 253.55 106.678 253.55 113.228C253.55 119.778 248.22 125.107 241.67 125.107ZM241.67 105.027C237.15 105.027 233.48 108.697 233.48 113.217C233.48 117.737 237.15 121.407 241.67 121.407C246.19 121.407 249.86 117.737 249.86 113.217C249.86 108.697 246.19 105.027 241.67 105.027Z" fill="#0B2EE5"/>
<path d="M126.93 27.6475C132.475 27.6475 136.97 23.1524 136.97 17.6074C136.97 12.0625 132.475 7.56738 126.93 7.56738C121.385 7.56738 116.89 12.0625 116.89 17.6074C116.89 23.1524 121.385 27.6475 126.93 27.6475Z" fill="#0CE3EF"/>
<path d="M126.93 29.4976C120.38 29.4976 115.05 24.1677 115.05 17.6177C115.05 11.0677 120.38 5.7373 126.93 5.7373C133.48 5.7373 138.81 11.0677 138.81 17.6177C138.81 24.1677 133.48 29.4976 126.93 29.4976ZM126.93 9.41748C122.41 9.41748 118.74 13.0874 118.74 17.6074C118.74 22.1274 122.41 25.7974 126.93 25.7974C131.45 25.7974 135.12 22.1274 135.12 17.6074C135.12 13.0874 131.45 9.41748 126.93 9.41748Z" fill="#0B2EE5"/>
</svg>
