<svg width="236" height="277" fill="none" xmlns="http://www.w3.org/2000/svg"><path d="M233.7 276.86h-.43c-.89 0-1.6-.72-1.6-1.6 0-.88.72-1.6 1.6-1.6h.43c.89 0 1.6.72 1.6 1.6 0 .88-.71 1.6-1.6 1.6zM211.03 276.86h-.89c-.89 0-1.6-.72-1.6-1.6 0-.88.72-1.6 1.6-1.6h.89c.89 0 1.6.72 1.6 1.6 0 .88-.71 1.6-1.6 1.6zm-23.13 0h-.89c-.89 0-1.6-.72-1.6-1.6 0-.88.72-1.6 1.6-1.6h.89c.89 0 1.6.72 1.6 1.6 0 .88-.71 1.6-1.6 1.6zm-23.13 0h-.89c-.89 0-1.6-.72-1.6-1.6 0-.88.72-1.6 1.6-1.6h.89c.89 0 1.6.72 1.6 1.6 0 .88-.71 1.6-1.6 1.6zm-23.12 0h-.89c-.89 0-1.6-.72-1.6-1.6 0-.88.72-1.6 1.6-1.6h.89c.89 0 1.6.72 1.6 1.6 0 .88-.72 1.6-1.6 1.6zm-23.13 0h-.89c-.89 0-1.6-.72-1.6-1.6 0-.88.72-1.6 1.6-1.6h.89c.89 0 1.6.72 1.6 1.6 0 .88-.72 1.6-1.6 1.6zm-23.13 0h-.89c-.89 0-1.6-.72-1.6-1.6 0-.88.72-1.6 1.6-1.6h.89c.89 0 1.6.72 1.6 1.6 0 .88-.71 1.6-1.6 1.6zm-23.13 0h-.89c-.89 0-1.6-.72-1.6-1.6 0-.88.72-1.6 1.6-1.6h.89c.89 0 1.6.72 1.6 1.6 0 .88-.71 1.6-1.6 1.6zm-23.12 0h-.89c-.89 0-1.6-.72-1.6-1.6 0-.88.72-1.6 1.6-1.6h.89c.89 0 1.6.72 1.6 1.6 0 .88-.72 1.6-1.6 1.6zm-23.13 0h-.89c-.89 0-1.6-.72-1.6-1.6 0-.88.72-1.6 1.6-1.6h.89c.89 0 1.6.72 1.6 1.6 0 .88-.72 1.6-1.6 1.6zM2.88 276.86h-.43c-.89 0-1.6-.72-1.6-1.6 0-.88.72-1.6 1.6-1.6h.43c.89 0 1.6.72 1.6 1.6 0 .88-.71 1.6-1.6 1.6zM2.88 237.82h-.43c-.89 0-1.6-.72-1.6-1.6 0-.88.72-1.6 1.6-1.6h.43c.89 0 1.6.72 1.6 1.6 0 .88-.71 1.6-1.6 1.6zM211.03 237.82h-.89c-.89 0-1.6-.72-1.6-1.6 0-.88.72-1.6 1.6-1.6h.89c.89 0 1.6.72 1.6 1.6 0 .88-.71 1.6-1.6 1.6zm-23.13 0h-.89c-.89 0-1.6-.72-1.6-1.6 0-.88.72-1.6 1.6-1.6h.89c.89 0 1.6.72 1.6 1.6 0 .88-.71 1.6-1.6 1.6zm-23.13 0h-.89c-.89 0-1.6-.72-1.6-1.6 0-.88.72-1.6 1.6-1.6h.89c.89 0 1.6.72 1.6 1.6 0 .88-.71 1.6-1.6 1.6zm-23.12 0h-.89c-.89 0-1.6-.72-1.6-1.6 0-.88.72-1.6 1.6-1.6h.89c.89 0 1.6.72 1.6 1.6 0 .88-.72 1.6-1.6 1.6zm-23.13 0h-.89c-.89 0-1.6-.72-1.6-1.6 0-.88.72-1.6 1.6-1.6h.89c.89 0 1.6.72 1.6 1.6 0 .88-.72 1.6-1.6 1.6zm-23.13 0h-.89c-.89 0-1.6-.72-1.6-1.6 0-.88.72-1.6 1.6-1.6h.89c.89 0 1.6.72 1.6 1.6 0 .88-.71 1.6-1.6 1.6zm-23.13 0h-.89c-.89 0-1.6-.72-1.6-1.6 0-.88.72-1.6 1.6-1.6h.89c.89 0 1.6.72 1.6 1.6 0 .88-.71 1.6-1.6 1.6zm-23.12 0h-.89c-.89 0-1.6-.72-1.6-1.6 0-.88.72-1.6 1.6-1.6h.89c.89 0 1.6.72 1.6 1.6 0 .88-.72 1.6-1.6 1.6zm-23.13 0h-.89c-.89 0-1.6-.72-1.6-1.6 0-.88.72-1.6 1.6-1.6h.89c.89 0 1.6.72 1.6 1.6 0 .88-.72 1.6-1.6 1.6zM233.7 237.82h-.43c-.89 0-1.6-.72-1.6-1.6 0-.88.72-1.6 1.6-1.6h.43c.89 0 1.6.72 1.6 1.6 0 .88-.71 1.6-1.6 1.6zM233.7 198.78h-.43c-.89 0-1.6-.72-1.6-1.6 0-.88.72-1.6 1.6-1.6h.43c.89 0 1.6.72 1.6 1.6 0 .88-.71 1.6-1.6 1.6zM211.03 198.78h-.89c-.89 0-1.6-.72-1.6-1.6 0-.88.72-1.6 1.6-1.6h.89c.89 0 1.6.72 1.6 1.6 0 .88-.71 1.6-1.6 1.6zm-23.13 0h-.89c-.89 0-1.6-.72-1.6-1.6 0-.88.72-1.6 1.6-1.6h.89c.89 0 1.6.72 1.6 1.6 0 .88-.71 1.6-1.6 1.6zm-23.13 0h-.89c-.89 0-1.6-.72-1.6-1.6 0-.88.72-1.6 1.6-1.6h.89c.89 0 1.6.72 1.6 1.6 0 .88-.71 1.6-1.6 1.6zm-23.12 0h-.89c-.89 0-1.6-.72-1.6-1.6 0-.88.72-1.6 1.6-1.6h.89c.89 0 1.6.72 1.6 1.6 0 .88-.72 1.6-1.6 1.6zm-23.13 0h-.89c-.89 0-1.6-.72-1.6-1.6 0-.88.72-1.6 1.6-1.6h.89c.89 0 1.6.72 1.6 1.6 0 .88-.72 1.6-1.6 1.6zm-23.13 0h-.89c-.89 0-1.6-.72-1.6-1.6 0-.88.72-1.6 1.6-1.6h.89c.89 0 1.6.72 1.6 1.6 0 .88-.71 1.6-1.6 1.6zm-23.13 0h-.89c-.89 0-1.6-.72-1.6-1.6 0-.88.72-1.6 1.6-1.6h.89c.89 0 1.6.72 1.6 1.6 0 .88-.71 1.6-1.6 1.6zm-23.12 0h-.89c-.89 0-1.6-.72-1.6-1.6 0-.88.72-1.6 1.6-1.6h.89c.89 0 1.6.72 1.6 1.6 0 .88-.72 1.6-1.6 1.6zm-23.13 0h-.89c-.89 0-1.6-.72-1.6-1.6 0-.88.72-1.6 1.6-1.6h.89c.89 0 1.6.72 1.6 1.6 0 .88-.72 1.6-1.6 1.6zM2.88 198.78h-.43c-.89 0-1.6-.72-1.6-1.6 0-.88.72-1.6 1.6-1.6h.43c.89 0 1.6.72 1.6 1.6 0 .88-.71 1.6-1.6 1.6zM2.88 159.74h-.43c-.89 0-1.6-.72-1.6-1.6 0-.89.72-1.6 1.6-1.6h.43c.89 0 1.6.72 1.6 1.6 0 .88-.71 1.6-1.6 1.6zM211.03 159.74h-.89c-.89 0-1.6-.72-1.6-1.6 0-.89.72-1.6 1.6-1.6h.89c.89 0 1.6.72 1.6 1.6 0 .88-.71 1.6-1.6 1.6zm-23.13 0h-.89c-.89 0-1.6-.72-1.6-1.6 0-.89.72-1.6 1.6-1.6h.89c.89 0 1.6.72 1.6 1.6.01.88-.71 1.6-1.6 1.6zm-23.13 0h-.89c-.89 0-1.6-.72-1.6-1.6 0-.89.72-1.6 1.6-1.6h.89c.89 0 1.6.72 1.6 1.6.01.88-.71 1.6-1.6 1.6zm-23.12 0h-.89c-.89 0-1.6-.72-1.6-1.6 0-.89.72-1.6 1.6-1.6h.89c.89 0 1.6.72 1.6 1.6 0 .88-.72 1.6-1.6 1.6zm-23.13 0h-.89c-.89 0-1.6-.72-1.6-1.6 0-.89.72-1.6 1.6-1.6h.89c.89 0 1.6.72 1.6 1.6 0 .88-.72 1.6-1.6 1.6zm-23.13 0h-.89c-.89 0-1.6-.72-1.6-1.6 0-.89.72-1.6 1.6-1.6h.89c.89 0 1.6.72 1.6 1.6 0 .88-.71 1.6-1.6 1.6zm-23.13 0h-.89c-.89 0-1.6-.72-1.6-1.6 0-.89.72-1.6 1.6-1.6h.89c.89 0 1.6.72 1.6 1.6.01.88-.71 1.6-1.6 1.6zm-23.12 0h-.89c-.89 0-1.6-.72-1.6-1.6 0-.89.72-1.6 1.6-1.6h.89c.89 0 1.6.72 1.6 1.6 0 .88-.72 1.6-1.6 1.6zm-23.13 0h-.89c-.89 0-1.6-.72-1.6-1.6 0-.89.72-1.6 1.6-1.6h.89c.89 0 1.6.72 1.6 1.6 0 .88-.72 1.6-1.6 1.6zM233.7 159.74h-.43c-.89 0-1.6-.72-1.6-1.6 0-.89.72-1.6 1.6-1.6h.43c.89 0 1.6.72 1.6 1.6.01.88-.71 1.6-1.6 1.6zM233.7 120.7h-.43c-.89 0-1.6-.72-1.6-1.6 0-.88.72-1.6 1.6-1.6h.43c.89 0 1.6.72 1.6 1.6 0 .88-.71 1.6-1.6 1.6zM211.03 120.7h-.89c-.89 0-1.6-.72-1.6-1.6 0-.88.72-1.6 1.6-1.6h.89c.89 0 1.6.72 1.6 1.6 0 .88-.71 1.6-1.6 1.6zm-23.13 0h-.89c-.89 0-1.6-.72-1.6-1.6 0-.88.72-1.6 1.6-1.6h.89c.89 0 1.6.72 1.6 1.6 0 .88-.71 1.6-1.6 1.6zm-23.13 0h-.89c-.89 0-1.6-.72-1.6-1.6 0-.88.72-1.6 1.6-1.6h.89c.89 0 1.6.72 1.6 1.6 0 .88-.71 1.6-1.6 1.6zm-23.12 0h-.89c-.89 0-1.6-.72-1.6-1.6 0-.88.72-1.6 1.6-1.6h.89c.89 0 1.6.72 1.6 1.6 0 .88-.72 1.6-1.6 1.6zm-23.13 0h-.89c-.89 0-1.6-.72-1.6-1.6 0-.88.72-1.6 1.6-1.6h.89c.89 0 1.6.72 1.6 1.6 0 .88-.72 1.6-1.6 1.6zm-23.13 0h-.89c-.89 0-1.6-.72-1.6-1.6 0-.88.72-1.6 1.6-1.6h.89c.89 0 1.6.72 1.6 1.6 0 .88-.71 1.6-1.6 1.6zm-23.13 0h-.89c-.89 0-1.6-.72-1.6-1.6 0-.88.72-1.6 1.6-1.6h.89c.89 0 1.6.72 1.6 1.6 0 .88-.71 1.6-1.6 1.6zm-23.12 0h-.89c-.89 0-1.6-.72-1.6-1.6 0-.88.72-1.6 1.6-1.6h.89c.89 0 1.6.72 1.6 1.6 0 .88-.72 1.6-1.6 1.6zm-23.13 0h-.89c-.89 0-1.6-.72-1.6-1.6 0-.88.72-1.6 1.6-1.6h.89c.89 0 1.6.72 1.6 1.6 0 .88-.72 1.6-1.6 1.6zM2.88 120.7h-.43c-.89 0-1.6-.72-1.6-1.6 0-.88.72-1.6 1.6-1.6h.43c.89 0 1.6.72 1.6 1.6 0 .88-.71 1.6-1.6 1.6zM2.88 81.66h-.43c-.89 0-1.6-.72-1.6-1.6 0-.88.72-1.6 1.6-1.6h.43c.89 0 1.6.72 1.6 1.6 0 .88-.71 1.6-1.6 1.6zM211.03 81.66h-.89c-.89 0-1.6-.72-1.6-1.6 0-.88.72-1.6 1.6-1.6h.89c.89 0 1.6.72 1.6 1.6 0 .88-.71 1.6-1.6 1.6zm-23.13 0h-.89c-.89 0-1.6-.72-1.6-1.6 0-.88.72-1.6 1.6-1.6h.89c.89 0 1.6.72 1.6 1.6 0 .88-.71 1.6-1.6 1.6zm-23.13 0h-.89c-.89 0-1.6-.72-1.6-1.6 0-.88.72-1.6 1.6-1.6h.89c.89 0 1.6.72 1.6 1.6 0 .88-.71 1.6-1.6 1.6zm-23.12 0h-.89c-.89 0-1.6-.72-1.6-1.6 0-.88.72-1.6 1.6-1.6h.89c.89 0 1.6.72 1.6 1.6 0 .88-.72 1.6-1.6 1.6zm-23.13 0h-.89c-.89 0-1.6-.72-1.6-1.6 0-.88.72-1.6 1.6-1.6h.89c.89 0 1.6.72 1.6 1.6 0 .88-.72 1.6-1.6 1.6zm-23.13 0h-.89c-.89 0-1.6-.72-1.6-1.6 0-.88.72-1.6 1.6-1.6h.89c.89 0 1.6.72 1.6 1.6 0 .88-.71 1.6-1.6 1.6zm-23.13 0h-.89c-.89 0-1.6-.72-1.6-1.6 0-.88.72-1.6 1.6-1.6h.89c.89 0 1.6.72 1.6 1.6 0 .88-.71 1.6-1.6 1.6zm-23.12 0h-.89c-.89 0-1.6-.72-1.6-1.6 0-.88.72-1.6 1.6-1.6h.89c.89 0 1.6.72 1.6 1.6 0 .88-.72 1.6-1.6 1.6zm-23.13 0h-.89c-.89 0-1.6-.72-1.6-1.6 0-.88.72-1.6 1.6-1.6h.89c.89 0 1.6.72 1.6 1.6 0 .88-.72 1.6-1.6 1.6zM233.7 81.66h-.43c-.89 0-1.6-.72-1.6-1.6 0-.88.72-1.6 1.6-1.6h.43c.89 0 1.6.72 1.6 1.6 0 .88-.71 1.6-1.6 1.6zM233.7 42.62h-.43c-.89 0-1.6-.72-1.6-1.6 0-.88.72-1.6 1.6-1.6h.43c.89 0 1.6.72 1.6 1.6 0 .88-.71 1.6-1.6 1.6zM211.03 42.62h-.89c-.89 0-1.6-.72-1.6-1.6 0-.88.72-1.6 1.6-1.6h.89c.89 0 1.6.72 1.6 1.6 0 .88-.71 1.6-1.6 1.6zm-23.13 0h-.89c-.89 0-1.6-.72-1.6-1.6 0-.88.72-1.6 1.6-1.6h.89c.89 0 1.6.72 1.6 1.6 0 .88-.71 1.6-1.6 1.6zm-23.13 0h-.89c-.89 0-1.6-.72-1.6-1.6 0-.88.72-1.6 1.6-1.6h.89c.89 0 1.6.72 1.6 1.6 0 .88-.71 1.6-1.6 1.6zm-23.12 0h-.89c-.89 0-1.6-.72-1.6-1.6 0-.88.72-1.6 1.6-1.6h.89c.89 0 1.6.72 1.6 1.6 0 .88-.72 1.6-1.6 1.6zm-23.13 0h-.89c-.89 0-1.6-.72-1.6-1.6 0-.88.72-1.6 1.6-1.6h.89c.89 0 1.6.72 1.6 1.6 0 .88-.72 1.6-1.6 1.6zm-23.13 0h-.89c-.89 0-1.6-.72-1.6-1.6 0-.88.72-1.6 1.6-1.6h.89c.89 0 1.6.72 1.6 1.6 0 .88-.71 1.6-1.6 1.6zm-23.13 0h-.89c-.89 0-1.6-.72-1.6-1.6 0-.88.72-1.6 1.6-1.6h.89c.89 0 1.6.72 1.6 1.6 0 .88-.71 1.6-1.6 1.6zm-23.12 0h-.89c-.89 0-1.6-.72-1.6-1.6 0-.88.72-1.6 1.6-1.6h.89c.89 0 1.6.72 1.6 1.6 0 .88-.72 1.6-1.6 1.6zm-23.13 0h-.89c-.89 0-1.6-.72-1.6-1.6 0-.88.72-1.6 1.6-1.6h.89c.89 0 1.6.72 1.6 1.6 0 .88-.72 1.6-1.6 1.6zM2.88 42.62h-.43c-.89 0-1.6-.72-1.6-1.6 0-.88.72-1.6 1.6-1.6h.43c.89 0 1.6.72 1.6 1.6 0 .88-.71 1.6-1.6 1.6zM2.88 3.58h-.43c-.89 0-1.6-.72-1.6-1.6 0-.88.72-1.6 1.6-1.6h.43c.89 0 1.6.72 1.6 1.6 0 .88-.71 1.6-1.6 1.6zM211.03 3.58h-.89c-.89 0-1.6-.72-1.6-1.6 0-.88.72-1.6 1.6-1.6h.89c.89 0 1.6.72 1.6 1.6 0 .88-.71 1.6-1.6 1.6zm-23.13 0h-.89c-.89 0-1.6-.72-1.6-1.6 0-.88.72-1.6 1.6-1.6h.89c.89 0 1.6.72 1.6 1.6 0 .88-.71 1.6-1.6 1.6zm-23.13 0h-.89c-.89 0-1.6-.72-1.6-1.6 0-.88.72-1.6 1.6-1.6h.89c.89 0 1.6.72 1.6 1.6 0 .88-.71 1.6-1.6 1.6zm-23.12 0h-.89c-.89 0-1.6-.72-1.6-1.6 0-.88.72-1.6 1.6-1.6h.89c.89 0 1.6.72 1.6 1.6 0 .88-.72 1.6-1.6 1.6zm-23.13 0h-.89c-.89 0-1.6-.72-1.6-1.6 0-.88.72-1.6 1.6-1.6h.89c.89 0 1.6.72 1.6 1.6 0 .88-.72 1.6-1.6 1.6zm-23.13 0h-.89c-.89 0-1.6-.72-1.6-1.6 0-.88.72-1.6 1.6-1.6h.89c.89 0 1.6.72 1.6 1.6 0 .88-.71 1.6-1.6 1.6zm-23.13 0h-.89c-.89 0-1.6-.72-1.6-1.6 0-.88.72-1.6 1.6-1.6h.89c.89 0 1.6.72 1.6 1.6 0 .88-.71 1.6-1.6 1.6zm-23.12 0h-.89c-.89 0-1.6-.72-1.6-1.6 0-.88.72-1.6 1.6-1.6h.89c.89 0 1.6.72 1.6 1.6 0 .88-.72 1.6-1.6 1.6zm-23.13 0h-.89c-.89 0-1.6-.72-1.6-1.6 0-.88.72-1.6 1.6-1.6h.89c.89 0 1.6.72 1.6 1.6 0 .88-.72 1.6-1.6 1.6zM233.7 3.58h-.43c-.89 0-1.6-.72-1.6-1.6 0-.88.72-1.6 1.6-1.6h.43c.89 0 1.6.72 1.6 1.6 0 .88-.71 1.6-1.6 1.6z" fill="#0B2EE5"/></svg>