<svg width="861" height="1181" viewBox="0 0 861 1181" fill="none" xmlns="http://www.w3.org/2000/svg">
<g clip-path="url(#clip0)">
<path d="M396.18 849.31L183.64 726.46L183.67 427.06L184 426.87L443.11 277.46L499.92 244.71L547.41 217.33L603.42 185.03V185L603.44 0L443.15 92.45L442.99 92.54V92.36L23.4399 334.53L23.3999 818.96L236 941.84L396.18 849.31Z" fill="#E6FCFD"/>
<path d="M649.13 215.28V215.29L593.37 247.45L546.1 274.7L489.56 307.31L700.52 429.33L700.49 727.35L282.95 968.44L282.94 968.45L282.92 1152.62L859.98 819.45L860.03 337.26L649.13 215.28Z" fill="#E6FCFD"/>
<path d="M447.02 691.53L544.73 635.13L544.74 522.31L447.04 465.89L349.33 522.29L349.32 635.11L447.02 691.53Z" fill="#E6FCFD"/>
<path d="M215.4 968L0 843.46L0.05 355.8L425.19 110.4V110.59L585.64 18V209.47L584.24 210.3L165.87 451.56V747.73L381.18 872.2L215.4 968ZM5.6 840.23L215.4 961.5L370 872.2L160.24 751V448.36L161.97 447.36L579.97 206.36V27.73L419.59 120.28V120.09L5.64 359L5.6 840.23Z" fill="#E6EAFC"/>
<path d="M259.52 1180.35V989.71L260.93 988.9L677.09 748.62V453.83L463.37 330.19L625.73 236.57V233.33L629.93 235.74L842.23 358.53L842.18 844L840.78 844.81L259.52 1180.35ZM265.14 993V1170.71L836.59 840.72V361.72L628.55 241.4L474.55 330.2L682.72 450.6V751.85L681.32 752.66L265.14 993Z" fill="#E6EAFC"/>
<path d="M426.42 717.65L325.92 659.65V543.6L426.42 485.6L526.92 543.6V659.6L426.42 717.65ZM331.52 656.38L426.42 711.19L521.34 656.4V546.81L426.44 492L331.53 546.78L331.52 656.38Z" fill="#E6EAFC"/>
</g>
<defs>
<clipPath id="clip0">
<rect width="860.03" height="1180.35" fill="white"/>
</clipPath>
</defs>
</svg>
