<svg width="76" height="87" viewBox="0 0 76 87" fill="none" xmlns="http://www.w3.org/2000/svg">
<path d="M0.76001 21.7666V65.1465L38.32 86.8267L75.88 65.1465V21.7666L38.32 0.0766602L0.76001 21.7666Z" fill="white"/>
<path d="M46.9601 33.9062C49.3601 33.9062 51.3 35.8463 51.3 38.2363V50.0464C51.3 52.4464 49.3501 54.3765 46.9601 54.3765H35.85L29.3901 60.4966L29.1301 54.3765H25.6401C23.2401 54.3765 21.3 52.4364 21.3 50.0464V38.2363C21.3 35.8363 23.2501 33.9062 25.6401 33.9062H46.9601Z" fill="#0CE3EF"/>
<path d="M31.2101 59.3862L30.92 52.6064H27.9401C25.2501 52.6064 23.0601 50.4263 23.0601 47.7363V35.9263C23.0601 33.2463 25.2501 31.0566 27.9401 31.0566H29.2801V32.1265H27.9401C25.8401 32.1265 24.1301 33.8263 24.1301 35.9263V47.7363C24.1301 49.8263 25.8401 51.5366 27.9401 51.5366H31.9401L32.1801 56.9966L37.9501 51.5366H42.0001V52.6064H38.3801L31.2101 59.3862Z" fill="#0B2EE5"/>
<path d="M49.27 52.6167H44.22V51.5464H49.27C51.37 51.5464 53.08 49.8466 53.08 47.7466V35.9365C53.08 33.8465 51.37 32.1362 49.27 32.1362H31.5V31.0664H49.26C51.95 31.0664 54.14 33.2465 54.14 35.9365V47.7466C54.14 50.4266 51.96 52.6167 49.27 52.6167Z" fill="#0B2EE5"/>
<path d="M52.41 34.8364C53.4152 34.8364 54.23 34.0218 54.23 33.0166C54.23 32.0114 53.4152 31.1963 52.41 31.1963C51.4049 31.1963 50.5901 32.0114 50.5901 33.0166C50.5901 34.0218 51.4049 34.8364 52.41 34.8364Z" fill="#0CE3EF"/>
<path d="M52.41 35.3667C51.11 35.3667 50.05 34.3063 50.05 33.0063C50.05 31.7063 51.11 30.6465 52.41 30.6465C53.71 30.6465 54.7701 31.7063 54.7701 33.0063C54.7701 34.3063 53.71 35.3667 52.41 35.3667ZM52.41 31.7266C51.7 31.7266 51.1201 32.3066 51.1201 33.0166C51.1201 33.7266 51.7 34.3066 52.41 34.3066C53.12 34.3066 53.7001 33.7266 53.7001 33.0166C53.7001 32.3066 53.12 31.7266 52.41 31.7266Z" fill="#0B2EE5"/>
<path d="M52.41 52.5566C53.4152 52.5566 54.23 51.7415 54.23 50.7363C54.23 49.7312 53.4152 48.9165 52.41 48.9165C51.4049 48.9165 50.5901 49.7312 50.5901 50.7363C50.5901 51.7415 51.4049 52.5566 52.41 52.5566Z" fill="#0CE3EF"/>
<path d="M52.41 53.0967C51.11 53.0967 50.05 52.0363 50.05 50.7363C50.05 49.4363 51.11 48.3765 52.41 48.3765C53.71 48.3765 54.7701 49.4363 54.7701 50.7363C54.7701 52.0363 53.71 53.0967 52.41 53.0967ZM52.41 49.4463C51.7 49.4463 51.1201 50.0263 51.1201 50.7363C51.1201 51.4463 51.7 52.0264 52.41 52.0264C53.12 52.0264 53.7001 51.4463 53.7001 50.7363C53.7001 50.0263 53.12 49.4463 52.41 49.4463Z" fill="#0B2EE5"/>
<path d="M23.6 44.5464C24.6052 44.5464 25.42 43.7317 25.42 42.7266C25.42 41.7214 24.6052 40.9062 23.6 40.9062C22.5949 40.9062 21.78 41.7214 21.78 42.7266C21.78 43.7317 22.5949 44.5464 23.6 44.5464Z" fill="#0CE3EF"/>
<path d="M23.6 45.0767C22.3 45.0767 21.24 44.0163 21.24 42.7163C21.24 41.4163 22.3 40.3564 23.6 40.3564C24.9 40.3564 25.96 41.4163 25.96 42.7163C25.96 44.0163 24.9 45.0767 23.6 45.0767ZM23.6 41.4365C22.89 41.4365 22.31 42.0166 22.31 42.7266C22.31 43.4366 22.89 44.0166 23.6 44.0166C24.31 44.0166 24.89 43.4366 24.89 42.7266C24.89 42.0166 24.31 41.4365 23.6 41.4365Z" fill="#0B2EE5"/>
<path d="M40.7899 39.7065C40.7899 38.4965 39.8099 37.5166 38.5999 37.5166C37.3899 37.5166 36.4099 38.4965 36.4099 39.7065C36.4099 40.4565 36.7899 41.1266 37.3699 41.5166V46.8467H39.6699V41.5967C40.3399 41.2267 40.7899 40.5265 40.7899 39.7065Z" fill="#0B2EE5"/>
</svg>
