<svg width="377" height="517" viewBox="0 0 377 517" fill="none" xmlns="http://www.w3.org/2000/svg">
<path d="M173.78 371.117L80.9101 317.447L80.9301 186.637L81.0702 186.547L194.28 121.277L219.1 106.957L239.85 94.9971L264.32 80.8867V80.877L264.33 0.046875L194.3 40.437L194.23 40.4771V40.397L10.9201 146.207L10.9001 357.857L103.79 411.547L173.78 371.117Z" fill="#0CE3EF"/>
<path d="M284.29 94.1069L259.93 108.157L239.28 120.067L214.57 134.307L306.75 187.627L306.73 317.837L124.3 423.167V423.177L124.29 503.637L376.42 358.077L376.44 147.397L284.29 94.1069Z" fill="#0CE3EF"/>
<path d="M195.99 302.187L238.68 277.547V228.247L196 203.597L153.31 228.237L153.3 277.537L195.99 302.187Z" fill="#0CE3EF"/>
<path d="M94.79 423.687L0.0500488 368.927L0.0700455 155.137L187.07 47.1968V47.2769L257.17 6.84717V91.9468L256.25 92.4868L73.78 197.697L73.7701 326.377L168.48 381.117L94.79 423.687ZM3.75005 366.797L94.79 419.417L161.08 381.117L70.06 328.507L70.0701 195.557L71.14 194.947L253.46 89.8169V13.2471L183.43 53.6367V53.5571L3.77004 157.277L3.75005 366.797Z" fill="#0B2EE5"/>
<path d="M113.44 516.837L113.45 432.127L114.35 431.587L295.89 326.767L295.9 198.687L201.88 144.307L273.45 103.037V100.897L276.22 102.497L369.29 156.327L369.27 369.137L113.44 516.837ZM117.14 434.237L117.13 510.437L365.56 367.007L365.58 158.467L275.29 106.247L209.26 144.317L299.59 196.567L299.58 328.907L117.14 434.237Z" fill="#0B2EE5"/>
<path d="M186.99 314.317L142.46 288.597V237.167L187 211.457L231.53 237.177V288.607L186.99 314.317ZM146.15 286.467L186.99 310.047L227.83 286.467V239.307L187 215.737L146.16 239.317L146.15 286.467Z" fill="#0B2EE5"/>
</svg>
