<svg width="184" height="164" viewBox="0 0 184 164" fill="none" xmlns="http://www.w3.org/2000/svg">
<path d="M141.79 17.0767C154.99 17.0767 165.72 27.7363 165.72 40.9463V106.006C165.72 119.206 154.99 129.876 141.79 129.876H80.6L44.99 163.586L43.53 129.876H24.3C11.1 129.876 0.369995 119.216 0.369995 106.006V40.9463C0.369995 27.7463 11.1 17.0767 24.3 17.0767H141.79Z" fill="#0CE3EF"/>
<path d="M56.01 155.006L54.45 119.026H36.99C22.78 119.026 11.21 107.486 11.21 93.3164V28.2563C11.21 14.0763 22.77 2.54639 36.99 2.54639H44.35V6.24658H36.99C24.81 6.24658 14.91 16.1266 14.91 28.2666V93.3267C14.91 105.467 24.82 115.347 36.99 115.347H57.99L59.35 146.776L92.55 115.347H114.42V119.046H94.02L56.01 155.006Z" fill="#0B2EE5"/>
<path d="M154.48 119.017H126.68V115.316H154.48C166.66 115.316 176.56 105.436 176.56 93.2964V28.2363C176.56 16.0963 166.65 6.21631 154.48 6.21631H56.6V2.5166H154.48C168.69 2.5166 180.26 14.0566 180.26 28.2266V93.2866C180.26 107.487 168.7 119.017 154.48 119.017Z" fill="#0B2EE5"/>
<path d="M171.81 22.1665C177.355 22.1665 181.85 17.6714 181.85 12.1265C181.85 6.58153 177.355 2.08643 171.81 2.08643C166.265 2.08643 161.77 6.58153 161.77 12.1265C161.77 17.6714 166.265 22.1665 171.81 22.1665Z" fill="#0CE3EF"/>
<path d="M171.81 24.0166C165.26 24.0166 159.93 18.6862 159.93 12.1362C159.93 5.58623 165.26 0.256348 171.81 0.256348C178.36 0.256348 183.69 5.58623 183.69 12.1362C183.69 18.6862 178.36 24.0166 171.81 24.0166ZM171.81 3.93652C167.29 3.93652 163.62 7.60646 163.62 12.1265C163.62 16.6465 167.29 20.3164 171.81 20.3164C176.32 20.3164 180 16.6465 180 12.1265C180 7.60646 176.33 3.93652 171.81 3.93652Z" fill="#0B2EE5"/>
<path d="M171.81 119.827C177.355 119.827 181.85 115.332 181.85 109.787C181.85 104.242 177.355 99.7466 171.81 99.7466C166.265 99.7466 161.77 104.242 161.77 109.787C161.77 115.332 166.265 119.827 171.81 119.827Z" fill="#0CE3EF"/>
<path d="M171.81 121.667C165.26 121.667 159.93 116.337 159.93 109.787C159.93 103.237 165.26 97.9062 171.81 97.9062C178.36 97.9062 183.69 103.237 183.69 109.787C183.69 116.337 178.36 121.667 171.81 121.667ZM171.81 101.597C167.3 101.597 163.62 105.267 163.62 109.787C163.62 114.307 167.29 117.977 171.81 117.977C176.33 117.977 180 114.307 180 109.787C180 105.267 176.33 101.597 171.81 101.597Z" fill="#0B2EE5"/>
<path d="M13.08 75.6665C18.6249 75.6665 23.12 71.1714 23.12 65.6265C23.12 60.0815 18.6249 55.5864 13.08 55.5864C7.53502 55.5864 3.04004 60.0815 3.04004 65.6265C3.04004 71.1714 7.53502 75.6665 13.08 75.6665Z" fill="#0CE3EF"/>
<path d="M13.08 77.5063C6.52996 77.5063 1.19995 72.1765 1.19995 65.6265C1.19995 59.0765 6.52996 53.7466 13.08 53.7466C19.63 53.7466 24.96 59.0765 24.96 65.6265C24.96 72.1765 19.63 77.5063 13.08 77.5063ZM13.08 57.4365C8.55996 57.4365 4.89001 61.1065 4.89001 65.6265C4.89001 70.1465 8.55996 73.8164 13.08 73.8164C17.59 73.8164 21.27 70.1465 21.27 65.6265C21.27 61.1065 17.59 57.4365 13.08 57.4365Z" fill="#0B2EE5"/>
<path d="M107.8 49.0366C107.8 42.3866 102.41 36.9966 95.76 36.9966C89.11 36.9966 83.72 42.3866 83.72 49.0366C83.72 53.1866 85.82 56.8466 89.02 59.0166V88.3862H101.71V59.4565C105.32 57.3665 107.8 53.5066 107.8 49.0366Z" fill="#0B2EE5"/>
</svg>
