<svg width="525" height="456" viewBox="0 0 525 456" fill="none" xmlns="http://www.w3.org/2000/svg">
<path d="M427.6 448.867C447.725 448.867 464.04 439.447 464.04 427.827C464.04 416.207 447.725 406.787 427.6 406.787C407.475 406.787 391.16 416.207 391.16 427.827C391.16 439.447 407.475 448.867 427.6 448.867Z" fill="#1B4559"/>
<path d="M330.98 427.296L212.8 359.906C208.48 357.406 209.02 353.057 214.01 350.167L282.01 310.906C287 308.026 294.55 307.717 298.87 310.207L417.05 377.597C421.37 380.097 420.83 384.446 415.84 387.336L347.84 426.597C342.85 429.477 335.3 429.796 330.98 427.296Z" fill="#1B4559"/>
<path d="M427.58 354.916V79.0165L317.9 50.3066L297.7 38.6464C293.06 35.9664 284.96 36.3064 279.61 39.3964L260.76 50.2763L202.26 50.2465L219.58 316.586C219.45 318.396 220.46 320.146 222.69 321.436L332.15 404.026C336.79 406.706 344.89 406.366 350.24 403.276L423.19 361.156C426.27 359.376 427.76 357.066 427.58 354.916Z" fill="#396CAA"/>
<path d="M289.3 36.8564C285.91 36.9364 282.39 37.7965 279.6 39.3965L260.75 50.2764L202.25 50.2466V326.886C202.12 328.696 203.13 330.446 205.36 331.736L332.14 404.026C334.37 405.316 337.4 405.896 340.53 405.816L341.84 127.446L289.3 36.8564Z" fill="#D4ECFF"/>
<path d="M333.31 404.597C337.31 406.307 343.09 406.216 347.77 404.426V124.156H333.31V404.597Z" fill="#5793CE"/>
<path d="M332.14 127.486L205.36 55.1962C200.72 52.5162 201.3 47.8463 206.66 44.7563L279.61 2.63615C284.96 -0.453849 293.06 -0.793849 297.7 1.88615L424.48 74.1762C429.12 76.8562 428.54 81.5266 423.18 84.6166L350.23 126.736C344.88 129.826 336.78 130.156 332.14 127.486Z" fill="#D4ECFF"/>
<path d="M423.18 79.4863L350.23 121.606C344.88 124.696 336.78 125.036 332.14 122.356L205.36 50.0664C204.33 49.4664 203.57 48.7666 203.05 48.0166C201.46 50.5766 202.18 53.3563 205.36 55.1963L332.14 127.486C336.78 130.166 344.88 129.826 350.23 126.736L423.18 84.6167C427.34 82.2167 428.6 78.8566 426.79 76.2266C426.06 77.3966 424.86 78.5163 423.18 79.4863Z" fill="#FAFDFF"/>
<path d="M335.73 98.1867L251.32 49.2565C249.15 48.0065 249.42 45.8168 251.93 44.3668L286.07 24.6564C288.58 23.2064 292.37 23.0568 294.53 24.3068L378.94 73.2365C381.11 74.4865 380.84 76.6766 378.33 78.1266L344.19 97.8366C341.69 99.2766 337.9 99.4367 335.73 98.1867Z" fill="#173D7A"/>
<path d="M290.16 51.4567L285.27 48.6363C284.97 48.4663 285.01 48.1567 285.35 47.9567L290.07 45.2267C290.42 45.0267 290.94 45.0064 291.24 45.1764L296.13 47.9967C296.43 48.1667 296.39 48.4764 296.05 48.6764L291.33 51.4064C290.99 51.6064 290.46 51.6267 290.16 51.4567Z" fill="#D4ECFF"/>
<path d="M306.5 60.8468L301.61 58.0265C301.31 57.8565 301.35 57.5468 301.69 57.3468L306.41 54.6168C306.76 54.4168 307.28 54.3965 307.58 54.5665L312.47 57.3863C312.77 57.5563 312.73 57.8665 312.39 58.0665L307.67 60.7965C307.33 60.9965 306.8 61.0268 306.5 60.8468Z" fill="#D4ECFF"/>
<path d="M322.84 70.2467L317.95 67.4264C317.65 67.2564 317.69 66.9467 318.03 66.7467L322.75 64.0167C323.1 63.8167 323.62 63.7964 323.92 63.9664L328.81 66.7867C329.11 66.9567 329.07 67.2664 328.73 67.4664L324.01 70.1964C323.67 70.3964 323.14 70.4167 322.84 70.2467Z" fill="#D4ECFF"/>
<path d="M339.18 79.6361L334.29 76.8162C333.99 76.6462 334.03 76.3361 334.37 76.1361L339.09 73.4061C339.44 73.2061 339.96 73.1863 340.26 73.3563L345.15 76.1761C345.45 76.3461 345.41 76.6563 345.07 76.8563L340.35 79.5863C340.01 79.7963 339.48 79.8161 339.18 79.6361Z" fill="#D4ECFF"/>
<path d="M251.32 49.2565L251.42 49.3166C251.58 49.1966 251.74 49.0765 251.93 48.9665L286.07 29.2565C288.58 27.8065 292.37 27.6564 294.53 28.9064L378.84 77.7765C380.84 76.3465 380.94 74.3965 378.94 73.2365L294.53 24.3068C292.36 23.0568 288.57 23.2064 286.07 24.6564L251.93 44.3668C249.42 45.8168 249.15 48.0065 251.32 49.2565Z" fill="#5793CE"/>
<path d="M318.14 182.147L224.46 128.057C221.76 126.497 219.57 122.316 219.57 118.716V101.557C219.57 97.9567 221.76 96.2965 224.46 97.8565L318.14 151.937C320.84 153.497 323.03 157.676 323.03 161.276V178.437C323.03 182.047 320.84 183.707 318.14 182.147Z" fill="#5793CE"/>
<path d="M311.05 166.977L306.65 164.437C306.06 164.097 305.58 163.187 305.58 162.397V157.696C305.58 156.906 306.06 156.546 306.65 156.886L311.05 159.426C311.64 159.766 312.12 160.676 312.12 161.466V166.167C312.12 166.957 311.64 167.317 311.05 166.977Z" fill="#173D7A"/>
<path d="M296.33 158.477L291.93 155.937C291.34 155.597 290.86 154.687 290.86 153.897V149.196C290.86 148.416 291.34 148.046 291.93 148.386L296.33 150.926C296.92 151.266 297.4 152.176 297.4 152.966V157.667C297.4 158.457 296.92 158.817 296.33 158.477Z" fill="#173D7A"/>
<path d="M318.14 244.156L224.46 190.067C221.76 188.507 219.57 184.327 219.57 180.727V163.567C219.57 159.967 221.76 158.307 224.46 159.867L318.14 213.957C320.84 215.517 323.03 219.696 323.03 223.296V240.457C323.03 244.057 320.84 245.716 318.14 244.156Z" fill="#5793CE"/>
<path d="M311.05 228.977L306.65 226.437C306.06 226.097 305.58 225.187 305.58 224.397V219.696C305.58 218.916 306.06 218.546 306.65 218.886L311.05 221.426C311.64 221.766 312.12 222.676 312.12 223.466V228.167C312.12 228.957 311.64 229.317 311.05 228.977Z" fill="#173D7A"/>
<path d="M296.33 220.486L291.93 217.946C291.34 217.606 290.86 216.696 290.86 215.906V211.207C290.86 210.417 291.34 210.057 291.93 210.397L296.33 212.937C296.92 213.277 297.4 214.187 297.4 214.977V219.676C297.4 220.456 296.92 220.826 296.33 220.486Z" fill="#D4ECFF"/>
<path d="M318.14 306.167L224.46 252.077C221.76 250.517 219.57 246.336 219.57 242.736V225.577C219.57 221.977 221.76 220.316 224.46 221.876L318.14 275.966C320.84 277.526 323.03 281.707 323.03 285.307V302.466C323.03 306.066 320.84 307.717 318.14 306.167Z" fill="#5793CE"/>
<path d="M311.05 290.986L306.65 288.446C306.06 288.106 305.58 287.196 305.58 286.406V281.707C305.58 280.917 306.06 280.557 306.65 280.897L311.05 283.437C311.64 283.777 312.12 284.687 312.12 285.477V290.176C312.12 290.966 311.64 291.326 311.05 290.986Z" fill="#D4ECFF"/>
<path d="M296.33 282.486L291.93 279.946C291.34 279.606 290.86 278.696 290.86 277.906V273.207C290.86 272.427 291.34 272.057 291.93 272.397L296.33 274.937C296.92 275.277 297.4 276.187 297.4 276.977V281.676C297.4 282.466 296.92 282.826 296.33 282.486Z" fill="#173D7A"/>
<path d="M318.14 368.167L224.46 314.077C221.76 312.517 219.57 308.336 219.57 304.736V287.577C219.57 283.977 221.76 282.316 224.46 283.876L318.14 337.966C320.84 339.526 323.03 343.707 323.03 347.307V364.466C323.03 368.076 320.84 369.727 318.14 368.167Z" fill="#5793CE"/>
<path d="M311.05 352.997L306.65 350.457C306.06 350.117 305.58 349.207 305.58 348.417V343.716C305.58 342.936 306.06 342.566 306.65 342.906L311.05 345.446C311.64 345.786 312.12 346.696 312.12 347.486V352.187C312.12 352.977 311.64 353.337 311.05 352.997Z" fill="#D4ECFF"/>
<path d="M296.33 344.497L291.93 341.957C291.34 341.617 290.86 340.707 290.86 339.917V335.216C290.86 334.426 291.34 334.066 291.93 334.406L296.33 336.946C296.92 337.286 297.4 338.196 297.4 338.986V343.687C297.4 344.477 296.92 344.837 296.33 344.497Z" fill="#D4ECFF"/>
<path d="M364.48 182.147L412.47 154.667C415.17 153.107 417.36 148.927 417.36 145.327V128.167C417.36 124.567 415.17 122.906 412.47 124.466L364.48 151.946C361.78 153.506 359.59 157.687 359.59 161.287V178.446C359.59 182.046 361.78 183.707 364.48 182.147Z" fill="#173D7A"/>
<path d="M364.48 244.156L412.47 216.676C415.17 215.116 417.36 210.937 417.36 207.337V190.176C417.36 186.576 415.17 184.917 412.47 186.477L364.48 213.957C361.78 215.517 359.59 219.696 359.59 223.296V240.457C359.59 244.057 361.78 245.716 364.48 244.156Z" fill="#173D7A"/>
<path d="M364.48 306.167L412.47 278.687C415.17 277.127 417.36 272.947 417.36 269.347V252.187C417.36 248.587 415.17 246.926 412.47 248.486L364.48 275.966C361.78 277.526 359.59 281.707 359.59 285.307V302.466C359.59 306.066 361.78 307.717 364.48 306.167Z" fill="#173D7A"/>
<path d="M364.48 368.167L412.47 340.687C415.17 339.127 417.36 334.947 417.36 331.347V314.187C417.36 310.587 415.17 308.926 412.47 310.486L364.48 337.966C361.78 339.526 359.59 343.707 359.59 347.307V364.466C359.59 368.076 361.78 369.727 364.48 368.167Z" fill="#173D7A"/>
<path opacity="0.5" d="M301.4 146.167L253.66 112.687C236.58 100.707 219.4 90.2063 202.26 81.1963V326.896C202.13 328.706 203.14 330.457 205.37 331.747L243.12 353.267C303.47 342.027 301.41 274.807 301.41 274.807V146.167H301.4Z" fill="#173D7A"/>
<path d="M272.04 286.486V157.856L224.3 124.376C200.2 107.476 175.89 93.4466 151.79 82.5166L104.05 60.8667L84.77 72.1562L106.1 87.6265V188.316C106.1 188.316 103.48 270.396 190.1 365.126C201.24 365.806 210.9 364.986 219.28 363.046L217.84 367.707L234.8 357.716C236.26 356.926 237.67 356.106 239.02 355.236L239.26 355.097H239.25C273.46 332.967 272.04 286.486 272.04 286.486Z" fill="#1B4559"/>
<path d="M187.94 101.156C175.87 94.1963 163.8 87.9666 151.78 82.5166L104.04 60.8667L84.76 72.1562L106.09 87.6265V148.417L187.94 101.156Z" fill="#1B4559"/>
<path d="M171.31 92.0464L131.08 115.276L164.22 134.406L204.47 111.167C193.42 104.177 182.36 97.7864 171.31 92.0464Z" fill="#1B4559"/>
<path d="M252.76 297.776V169.146L205.02 135.667C180.92 118.767 156.61 104.737 132.51 93.8066L84.77 72.1562V200.787C84.77 200.787 82.15 282.867 168.77 377.597C255.38 382.887 252.76 297.776 252.76 297.776Z" fill="#0CE3EF"/>
<path d="M219.48 348.466C209.06 358.576 194.24 363.626 175.37 363.426C98.3499 276.656 99.1299 201.937 99.1499 201.247L99.1599 94.4863L126.56 106.917C149.81 117.457 173.42 131.097 196.75 147.457L238.36 176.636V297.787L238.37 298.227C238.38 298.527 238.79 329.736 219.48 348.466Z" fill="#0B2EE5"/>
<path d="M176.14 236.237C176.14 238.647 177.83 241.567 179.91 242.767C181.99 243.967 183.68 242.997 183.68 240.587C183.68 238.177 181.99 235.257 179.91 234.057C177.83 232.857 176.14 233.827 176.14 236.237Z" fill="#0CE3EF"/>
<path d="M164 229.226C164 231.636 165.69 234.556 167.77 235.766C169.85 236.966 171.54 235.996 171.54 233.586C171.54 231.176 169.85 228.256 167.77 227.056C165.69 225.846 164 226.816 164 229.226Z" fill="#0CE3EF"/>
<path d="M151.86 222.217C151.86 224.627 153.55 227.547 155.63 228.747C157.71 229.947 159.4 228.977 159.4 226.567C159.4 224.157 157.71 221.237 155.63 220.037C153.55 218.837 151.86 219.807 151.86 222.217Z" fill="#0CE3EF"/>
<path d="M40.56 368.526L11.07 351.367C8.57997 349.927 8.88995 347.416 11.77 345.756L39.88 329.377C42.75 327.717 47.1 327.537 49.59 328.977L79.0799 346.136C81.5699 347.576 81.26 350.087 78.38 351.747L50.27 368.127C47.3899 369.787 43.04 369.966 40.56 368.526Z" fill="#1B4559"/>
<path d="M89.7999 313.987V306.577L50.4499 306.557L50.7199 306.547C47.5999 304.747 42.1499 304.967 38.5399 307.047L39.7099 306.557L0.329901 306.537V314.447C0.239901 315.667 0.919928 316.847 2.41993 317.707L39.3999 339.227C42.5199 341.027 47.9699 340.807 51.5799 338.727L86.8299 318.187C88.9099 316.987 89.9199 315.437 89.7999 313.987Z" fill="#173D7A"/>
<path d="M45.0799 305.336C42.7999 305.396 40.4299 305.966 38.5499 307.046L39.7199 306.557L0.339911 306.537V314.446C0.249911 315.666 0.929907 316.847 2.42991 317.707L39.4099 339.227C40.9099 340.097 42.9499 340.487 45.0599 340.437L45.0799 305.336Z" fill="#396CAA"/>
<path d="M4.78992 306.546H0.329901V314.457C0.239901 315.677 0.919928 316.856 2.41993 317.716L4.78992 319.086V306.546Z" fill="#1B4559"/>
<path d="M40.1899 339.617C42.8799 340.767 46.78 340.706 49.92 339.506V329.156H40.1899V339.617Z" fill="#274F89"/>
<path d="M39.4099 331.386L2.42987 309.876C-0.690126 308.076 -0.300131 304.927 3.29987 302.847L38.5499 282.307C42.1499 280.227 47.6099 279.997 50.7299 281.807L87.7099 303.327C90.8299 305.127 90.4399 308.276 86.8399 310.356L51.5899 330.896C47.9799 332.966 42.5299 333.196 39.4099 331.386Z" fill="#D4ECFF"/>
<path d="M38.8398 301.227C36.9098 302.327 33.7898 302.316 31.8698 301.196C29.9498 300.076 29.9598 298.276 31.8898 297.176C33.8198 296.076 36.9398 296.087 38.8598 297.207C40.7698 298.327 40.7598 300.127 38.8398 301.227Z" fill="#396CAA"/>
<path d="M50.0097 307.747C48.0797 308.847 44.9597 308.836 43.0397 307.716C41.1197 306.596 41.1297 304.796 43.0597 303.696C44.9897 302.596 48.1097 302.607 50.0297 303.727C51.9497 304.847 51.9397 306.647 50.0097 307.747Z" fill="#396CAA"/>
<path d="M61.1899 314.276C59.2599 315.376 56.1399 315.366 54.2199 314.246C52.2999 313.126 52.3099 311.326 54.2399 310.226C56.1699 309.126 59.2899 309.136 61.2099 310.256C63.1199 311.376 63.1199 313.176 61.1899 314.276Z" fill="#396CAA"/>
<path d="M444.13 218.656C444.13 218.656 443.36 234.607 442.14 245.327C440.93 256.047 415.11 237.097 415.11 237.097V224.896L444.13 218.656Z" fill="#0B2EE5"/>
<path d="M430.38 417.086C429.99 418.056 423.3 426.196 416.62 428.236C413.71 429.116 411.76 429.236 410.48 429.086C409.19 428.936 408.4 427.606 408.83 426.386C409.98 423.146 413.28 416.397 421.66 412.247C433 406.617 430.38 417.086 430.38 417.086Z" fill="#0CE3EF"/>
<path d="M432.61 420.216C432.61 420.216 430.09 426.127 429.31 431.077C428.84 434.097 430.49 438.006 431.85 440.606C432.7 442.216 434.84 442.576 436.19 441.356C438.38 439.376 441.16 435.927 441.62 430.977C442.4 422.637 441.62 421.187 441.62 421.187L432.61 420.216Z" fill="#0CE3EF"/>
<path d="M448.72 319.457C448.72 319.457 449.59 329.976 448.72 341.606C447.85 353.236 444.72 407.636 444.14 420.716C444.14 420.716 444.43 424.677 436.76 423.807C429.09 422.937 429.71 418.537 429.71 418.537C429.71 418.537 418.94 418.386 418.6 412.046C418.26 405.696 407.57 336.226 407.57 311.256L448.72 319.457Z" fill="#0BE5B3"/>
<path d="M411.28 265.187L405.07 303.176L399.41 303.077L399.93 268.267L411.28 265.187Z" fill="#FFC2B0"/>
<path d="M413.88 231.536C413.88 231.536 405.5 231.316 402.58 243.436C399.66 255.556 397.38 270.726 399.92 271.986C407.54 275.766 412.36 271.346 412.36 271.346L413.88 231.536Z" fill="#0CE3EF"/>
<path d="M411.37 232.057C412.8 231.457 414.4 231.377 415.89 231.807C423.03 233.857 449.89 241.737 454.31 245.527C459.42 249.897 446.64 274.457 446.83 282.507C447.01 290.557 447.92 300.047 448.63 308.807C449.34 317.557 450.3 322.357 443.14 326.077C435.98 329.797 423.76 329.967 414.6 322.997C405.45 316.027 407.11 311.257 407.49 306.187C407.87 301.127 410.99 279.237 410.72 273.017C410.72 273.017 407.5 270.637 405.11 266.567C402.72 262.497 406.94 255.006 408.69 250.136C410.44 245.266 407.7 239.707 408.24 235.727C408.54 233.697 409.84 232.697 411.37 232.057Z" fill="#0CE3EF"/>
<path d="M419.96 240.426C419.39 244.846 423.45 249.017 429.02 249.727C434.59 250.437 439.57 247.437 440.13 243.007C440.7 238.587 436.64 234.417 431.07 233.707C425.5 232.997 420.52 236.006 419.96 240.426Z" fill="white"/>
<path d="M422.84 240.797C422.44 243.957 425.34 246.936 429.32 247.446C433.3 247.956 436.86 245.807 437.26 242.647C437.66 239.487 434.76 236.507 430.78 235.997C426.8 235.487 423.24 237.637 422.84 240.797Z" fill="#FFC2B0"/>
<path d="M426.79 230.417C426.79 230.417 431.64 226.426 432.59 228.446C433.54 230.466 434.33 239.126 434.33 239.126L424.7 241.716L426.16 232.937C426.16 232.937 424.24 231.307 426.79 230.417Z" fill="#FFC2B0"/>
<path d="M411.75 220.917C412.22 228.837 419.02 234.887 426.95 234.417C434.87 233.947 440.92 227.147 440.45 219.217C439.98 211.297 433.18 205.247 425.25 205.717C417.32 206.197 411.28 212.997 411.75 220.917Z" fill="#FFC2B0"/>
<path d="M433.26 230.957C433.35 231.407 433.43 231.896 433.51 232.386C432.54 237.386 425.06 239.577 425.06 239.577L426.17 232.937C426.17 232.937 425.26 232.167 425.52 231.397C428.47 230.467 432.2 229.637 433.26 230.957Z" fill="#EA9C92"/>
<path d="M411.75 220.917C412.22 228.837 419.02 234.887 426.95 234.417C434.87 233.947 440.92 227.147 440.45 219.217C439.98 211.297 433.18 205.247 425.25 205.717C417.32 206.197 411.28 212.997 411.75 220.917Z" fill="#FFC2B0"/>
<path d="M461.51 280.917L459.9 319.376L454.28 319.957L450.62 285.336L461.51 280.917Z" fill="#FFC2B0"/>
<path d="M443.03 277.707C444.89 269.497 448.57 251.347 448.57 251.347L450.14 269.396C448.33 274.746 446.77 279.666 446.84 282.506C446.95 287.236 447.31 292.456 447.73 297.736V297.756C447.72 297.746 441.17 285.917 443.03 277.707Z" fill="#0CE3EF"/>
<path d="M453.25 244.736C453.25 244.736 457.75 246.457 460.29 260.267C462.84 274.077 464.74 287.916 460.2 289.696C455.66 291.476 451.87 292.816 450.54 289.126C449.21 285.436 448.38 267.637 448.21 261.227C448.04 254.817 447.8 245.996 453.25 244.736Z" fill="#1B4559"/>
<path d="M429.71 418.546C429.71 418.546 428.38 418.527 426.63 418.227L424.52 333.667L429.71 418.546Z" fill="#0094D9"/>
<path d="M437.85 372.867L440.84 368.956L472.31 350.736C473.32 350.156 474.14 348.586 474.13 347.246L474.1 321.486L475.91 319.126L474.21 318.146C473.88 317.936 473.45 317.946 472.98 318.216L437.32 338.867C436.31 339.447 435.49 341.016 435.5 342.356L435.53 370.416C435.53 371.176 435.79 371.696 436.2 371.916L437.85 372.867Z" fill="#0CE3EF"/>
<path d="M459.61 358.097L461.85 356.807L474.12 335.497L474.11 321.497L475.92 319.136L474.22 318.156C473.89 317.946 473.46 317.957 472.99 318.227L437.33 338.877C436.8 339.187 436.32 339.766 435.99 340.446L459.61 358.097Z" fill="#0094D9"/>
<path d="M475.11 320.176L475.91 319.126L474.21 318.146C473.88 317.936 473.45 317.946 472.98 318.216L472.35 318.577L475.11 320.176Z" fill="#D29FFF"/>
<path d="M437 339.086C436.21 339.736 435.59 340.956 435.51 342.086L438.99 344.097L440.66 341.196L437 339.086Z" fill="#0CE3EF"/>
<path d="M439.02 339.847L474.68 319.197C475.69 318.617 476.51 319.227 476.51 320.577L476.54 348.636C476.54 349.986 475.73 351.547 474.72 352.127L439.06 372.777C438.05 373.357 437.23 372.747 437.23 371.397L437.2 343.347C437.19 341.997 438.01 340.427 439.02 339.847Z" fill="#0B2EE5"/>
<path d="M459.86 319.057C459.86 319.057 461.35 328.036 461.12 330.906C460.9 333.786 459.36 338.527 458.19 338.427C457.02 338.326 458.15 326.867 456.1 328.007C454.05 329.147 453.83 331.107 452.9 330.417C451.97 329.727 454.52 319.927 453.84 315.677C453.16 311.427 459.86 319.057 459.86 319.057Z" fill="#FFC2B0"/>
<path d="M399.41 303.077C399.41 303.077 397.92 312.057 398.15 314.927C398.37 317.806 399.91 322.547 401.08 322.447C402.25 322.347 401.12 310.887 403.17 312.027C405.22 313.167 405.44 315.127 406.37 314.437C407.3 313.747 404.75 303.947 405.43 299.697C406.11 295.447 399.41 303.077 399.41 303.077Z" fill="#FFC2B0"/>
<path d="M420.58 221.327C413.37 223.887 411.97 222.326 411.9 222.236C411.83 221.796 411.78 221.367 411.75 220.917C411.66 219.327 411.84 217.787 412.23 216.327L430.94 213.796C430.93 213.806 427.98 218.697 420.58 221.327Z" fill="#EA9C92"/>
<path d="M411.23 206.596C412.93 205.136 419.06 197.936 430.05 199.636C436.92 200.696 442.7 205.386 443.99 216.066C444.85 223.266 442.21 230.356 437.35 235.596C437.09 235.476 436.81 235.366 436.57 235.196C433.82 233.386 433.52 232.386 433.52 232.376L432.91 226.926C432.93 226.156 433.51 225.466 434.28 225.416C434.88 225.376 435.6 225.096 436.29 224.186C437.87 222.126 437.14 218.906 433.98 218.786C432.33 218.726 431.69 217.826 431.46 216.996C431.26 216.266 430.49 215.866 429.78 216.116C426.19 217.416 417.34 220.216 411.65 218.606C404.36 216.556 409.53 208.056 411.23 206.596Z" fill="#0B2EE5"/>
<path d="M419.42 227.816L415.02 226.606C415.02 226.606 417.12 229.907 420.18 230.747C423.24 231.587 423.72 228.997 423.72 228.997L419.42 227.816Z" fill="white"/>
<path d="M452.38 330.136L456.13 327.997L454.72 330.296L452.83 330.986L452.38 330.136Z" fill="#D29FFF"/>
<path d="M125.91 377.017C110.49 368.117 85.4799 368.117 70.0599 377.017C54.6399 385.917 54.6399 400.357 70.0599 409.267C85.4799 418.167 110.49 418.167 125.91 409.267C141.33 400.367 141.33 385.917 125.91 377.017ZM97.0199 393.437C93.0499 395.727 86.6199 395.727 82.6599 393.437C78.6999 391.147 78.6899 387.437 82.6599 385.147C86.6299 382.857 93.0599 382.857 97.0199 385.147C100.99 387.437 100.99 391.147 97.0199 393.437Z" fill="#1B4559"/>
<path d="M134.24 402.106C132.18 404.156 129.64 406.087 126.6 407.847C123.56 409.607 120.21 411.066 116.66 412.256L124.21 416.617L135.59 417.196L141.22 420.446L138.92 421.776L143.18 424.236L147.77 421.586L155.21 425.886L147.73 430.207L153.23 433.376L158.56 436.457L165.2 432.617L175.05 438.296L171.29 440.466L177.61 444.117L181.37 441.946L184.34 443.656L181.35 449.606L190.92 455.126H226.08L134.24 402.106Z" fill="#1B4559"/>
<path d="M137.47 389.997V379.317L134.32 381.097C132.4 378.477 129.6 376.027 125.9 373.897C110.48 364.997 85.47 364.997 70.05 373.897C65.77 376.367 62.69 379.267 60.78 382.347L58.48 379.327V390.007C58.47 395.847 62.33 401.687 70.05 406.147C85.47 415.047 110.48 415.047 125.9 406.147C133.63 401.687 137.48 395.837 137.47 389.997ZM96.89 383.037C92.92 385.327 86.49 385.327 82.53 383.037C78.56 380.747 78.56 377.037 82.53 374.747C86.5 372.457 92.93 372.457 96.89 374.747C100.86 377.037 100.86 380.747 96.89 383.037Z" fill="#0B2EE5"/>
<path d="M94.67 398.417L77.63 390.017L62.49 380.017C61.85 380.777 61.28 381.557 60.79 382.347L58.49 379.327V390.006C58.48 395.846 62.34 401.686 70.06 406.146C76.93 410.116 85.7 412.306 94.68 412.736V398.417H94.67Z" fill="#0BE5B3"/>
<path d="M125.91 363.196C110.49 354.296 85.4801 354.296 70.0601 363.196C54.6401 372.096 54.6401 386.536 70.0601 395.446C85.4801 404.346 110.49 404.346 125.91 395.446C141.33 386.546 141.33 372.106 125.91 363.196ZM97.0201 379.627C93.0501 381.917 86.6201 381.917 82.6601 379.627C78.7001 377.337 78.6901 373.627 82.6601 371.337C86.6301 369.047 93.0601 369.047 97.0201 371.337C100.99 373.627 100.99 377.337 97.0201 379.627Z" fill="#0BE5B3"/>
<path d="M104.77 368.836H83.3399C81.3799 369.286 79.4699 369.837 77.6299 370.477V388.636H104.77V368.836ZM96.8899 383.037C92.9199 385.327 86.4899 385.327 82.5299 383.037C78.5599 380.747 78.5599 377.037 82.5299 374.747C86.4999 372.457 92.9299 372.457 96.8899 374.747C100.86 377.037 100.86 380.747 96.8899 383.037Z" fill="#0BE5B3"/>
<path d="M122.6 365.106C109.01 357.256 86.9701 357.256 73.3701 365.106C59.7701 372.956 59.7801 385.676 73.3701 393.526C86.9601 401.376 109 401.376 122.6 393.526C136.19 385.686 136.19 372.956 122.6 365.106ZM97.0201 379.626C93.0501 381.916 86.6201 381.916 82.6601 379.626C78.7001 377.336 78.6901 373.626 82.6601 371.336C86.6301 369.046 93.0601 369.046 97.0201 371.336C100.99 373.626 100.99 377.336 97.0201 379.626Z" fill="#0B2EE5"/>
<path d="M73.3701 368.056C86.9601 360.206 109 360.206 122.6 368.056C128.75 371.606 132.11 376.156 132.69 380.796C133.4 375.176 130.04 369.406 122.6 365.106C109.01 357.256 86.9701 357.256 73.3701 365.106C65.9201 369.406 62.5701 375.166 63.2801 380.786C63.8601 376.156 67.2201 371.606 73.3701 368.056Z" fill="#1B4559"/>
<path d="M134.24 398.906C132.18 400.956 129.64 402.886 126.6 404.646C123.56 406.396 120.21 407.867 116.66 409.057L124.21 413.417L135.59 413.997L141.22 417.247L138.92 418.577L143.18 421.037L147.77 418.386L155.21 422.687L147.73 427.006L153.23 430.176L158.56 433.256L165.2 429.417L175.05 435.097L171.29 437.267L177.61 440.917L181.37 438.747L184.34 440.457L181.35 446.406L190.92 451.926H226.08L134.24 398.906Z" fill="#0B2EE5"/>
<path d="M134.24 391.187C132.18 393.237 129.64 395.166 126.6 396.926C123.56 398.676 120.21 400.146 116.66 401.336L124.21 405.696L135.59 406.276L141.22 409.526L138.92 410.856L143.18 413.316L147.77 410.667L155.21 414.966L147.73 419.287L153.23 422.457L158.56 425.537L165.2 421.696L175.05 427.376L171.29 429.546L177.61 433.196L181.37 431.026L184.34 432.736L181.35 438.687L190.92 444.207H226.08L134.24 391.187Z" fill="#0BE5B3"/>
<path d="M226.09 444.216H190.93V451.937H226.09V444.216Z" fill="#0B2EE5"/>
<path d="M177.62 440.926V433.207L181.38 431.037V438.756L177.62 440.926Z" fill="#0B2EE5"/>
<path d="M171.3 429.557V437.267L177.62 440.926V433.207L171.3 429.557Z" fill="#0CE3EF"/>
<path d="M165.21 421.696V429.417L158.57 433.256V425.537L165.21 421.696Z" fill="#0B2EE5"/>
<path d="M147.74 419.287V426.997L158.57 433.256V425.537L147.74 419.287Z" fill="#0CE3EF"/>
<path d="M181.38 438.756L181.36 446.417L190.93 451.937V444.216L181.38 438.756Z" fill="#0CE3EF"/>
<path d="M143.18 413.316V421.037L138.92 418.577V410.856L143.18 413.316Z" fill="#0CE3EF"/>
<path d="M124.21 405.696V413.417L135.59 413.997V406.287L124.21 405.696Z" fill="#0B2EE5"/>
<path d="M202.1 438.756L134.85 399.896L138.59 397.736L209.53 438.727L202.1 438.756Z" fill="#0B2EE5"/>
<path d="M138.59 399.606L206.31 438.736L209.53 438.727L138.59 397.736L134.85 399.896L136.47 400.827L138.59 399.606Z" fill="#0B2EE5"/>
<path d="M124.21 413.417V405.696L116.66 401.336V409.057L124.21 413.417Z" fill="#0B2EE5"/>
<path d="M147.77 410.667V418.386L143.18 421.037V413.316L147.77 410.667Z" fill="#0B2EE5"/>
<path d="M122.6 365.107C114.96 360.697 104.66 358.767 94.6799 359.307V362.257C104.66 361.707 114.96 363.647 122.6 368.057C128.75 371.607 132.11 376.157 132.69 380.797C133.4 375.177 130.04 369.407 122.6 365.107Z" fill="#1B4559"/>
<path d="M475.56 187.617L444.89 169.767C442.3 168.277 442.63 165.667 445.62 163.937L474.85 146.906C477.84 145.176 482.36 144.997 484.95 146.487L515.62 164.337C518.21 165.827 517.88 168.437 514.89 170.167L485.66 187.196C482.67 188.916 478.15 189.107 475.56 187.617Z" fill="#1B4559"/>
<path d="M524.98 132.287V124.877L485.64 124.857L485.91 124.847C482.79 123.047 477.34 123.267 473.73 125.347L474.9 124.857L435.52 124.837V132.747C435.43 133.967 436.11 135.147 437.61 136.007L474.59 157.527C477.71 159.327 483.16 159.107 486.77 157.027L522.02 136.487C524.1 135.287 525.1 133.737 524.98 132.287Z" fill="#0B2EE5"/>
<path d="M480.26 123.636C477.98 123.696 475.61 124.267 473.73 125.347L474.9 124.856L435.52 124.836V132.747C435.43 133.967 436.11 135.146 437.61 136.006L474.59 157.526C476.09 158.396 478.13 158.786 480.24 158.736L480.26 123.636Z" fill="#1B4559"/>
<path d="M439.98 124.847H435.52V132.756C435.43 133.976 436.11 135.157 437.61 136.017L439.98 137.386V124.847Z" fill="#1B4559"/>
<path d="M475.38 157.917C478.07 159.067 481.97 159.007 485.11 157.807V147.457H475.38V157.917Z" fill="#1B4559"/>
<path d="M474.59 149.686L437.61 128.166C434.49 126.366 434.88 123.216 438.48 121.136L473.73 100.597C477.33 98.5166 482.79 98.2866 485.91 100.097L522.89 121.617C526.01 123.417 525.62 126.566 522.02 128.646L486.77 149.186C483.17 151.266 477.71 151.486 474.59 149.686Z" fill="#0CE3EF"/>
<path d="M471.77 119.376C469.84 120.476 466.72 120.466 464.8 119.346C462.88 118.226 462.89 116.426 464.82 115.326C466.75 114.226 469.87 114.236 471.79 115.356C473.7 116.476 473.7 118.276 471.77 119.376Z" fill="#1B4559"/>
<path d="M482.94 125.906C481.01 127.006 477.89 126.996 475.97 125.876C474.05 124.756 474.06 122.956 475.99 121.856C477.92 120.756 481.04 120.766 482.96 121.886C484.88 123.006 484.87 124.806 482.94 125.906Z" fill="#1B4559"/>
<path d="M494.12 132.426C492.19 133.526 489.07 133.516 487.15 132.396C485.23 131.276 485.24 129.476 487.17 128.376C489.1 127.276 492.22 127.286 494.14 128.406C496.06 129.526 496.05 131.326 494.12 132.426Z" fill="#1B4559"/>
</svg>
