<svg width="126" height="138" viewBox="0 0 126 138" fill="none" xmlns="http://www.w3.org/2000/svg">
<g filter="url(#filter0_d)">
<path d="M25.7 47.0469V90.417L63.2599 112.107L100.82 90.417V47.0469L63.2599 25.3574L25.7 47.0469Z" fill="url(#paint0_linear)"/>
</g>
<path d="M77.6901 60.2373C77.6901 62.5873 77 64.8473 75.66 66.7773C75.49 67.0273 75.2901 67.2974 75.1201 67.5674C73.3301 70.1474 71.3001 73.0465 71.0301 75.6865C71.5901 75.9965 71.9901 76.6166 71.9901 77.3066V80.3174C71.9901 81.0274 71.5801 81.667 70.9901 81.957V82.667C70.9901 83.867 70.0101 84.8467 68.8101 84.8467H63.4501C62.2501 84.8467 61.2701 83.867 61.2701 82.667V81.957C60.6701 81.667 60.2701 81.0374 60.2701 80.3174V77.3066C60.2701 76.6166 60.68 75.9965 61.23 75.6865C60.96 73.0465 58.93 70.1574 57.16 67.5674C56.97 67.2974 56.79 67.0273 56.6 66.7773C55.27 64.8473 54.5701 62.5973 54.5701 60.2373C54.5701 58.4973 54.96 56.7873 55.73 55.2373L55.7101 55.2168C55.7501 55.1368 55.7901 55.0673 55.8301 54.9873C55.8901 54.8873 55.9701 54.7772 56.0201 54.6572C56.1001 54.4872 56.19 54.3072 56.29 54.1572C56.33 54.0972 56.3901 54.0373 56.4401 53.9873C56.8501 53.3873 57.3101 52.7873 57.8301 52.2373C57.8701 52.1773 57.91 52.1174 57.97 52.0674C58.01 52.0274 58.05 51.9868 58.11 51.9668C59.69 50.3868 61.8501 49.0966 64.7401 48.7666C64.7401 48.7666 64.7601 48.7666 64.7801 48.7666C64.9501 48.7466 65.13 48.7266 65.3 48.7266C65.57 48.6866 65.8401 48.6865 66.1301 48.6865C72.5001 48.6865 77.6901 53.8573 77.6901 60.2373Z" fill="#0CE3EF"/>
<path d="M64.7399 88.707H59.8199C58.9299 88.707 58.2 87.9869 58.2 87.0869V85.6367H59.9899V86.917H64.5599V85.6367H66.3499V87.0869C66.3599 87.9869 65.6299 88.707 64.7399 88.707Z" fill="#0B2EE5"/>
<path d="M65.61 81.0068C66.09 81.0068 66.47 81.3972 66.47 81.8672V83.2773C66.47 83.7573 66.08 84.1367 65.61 84.1367H58.9601C58.4801 84.1367 58.1 83.7473 58.1 83.2773V81.8672C58.1 81.3872 58.4901 81.0068 58.9601 81.0068H65.61ZM65.61 79.2168H58.9601C57.5001 79.2168 56.3101 80.4072 56.3101 81.8672V83.2773C56.3101 84.7373 57.5001 85.9268 58.9601 85.9268H65.61C67.07 85.9268 68.2601 84.7373 68.2601 83.2773V81.8672C68.2501 80.4072 67.07 79.2168 65.61 79.2168Z" fill="#0B2EE5"/>
<path d="M58.1001 81.2661C57.6101 81.2661 57.2101 80.8665 57.2101 80.3765C57.2101 77.1965 55.6201 74.8162 53.9401 72.3062C51.3901 68.5062 48.7601 64.5662 52.3801 58.0962C52.6201 57.6662 53.1601 57.5064 53.6001 57.7564C54.0301 57.9964 54.1801 58.5461 53.9401 58.9761C50.8501 64.4861 52.9701 67.6569 55.4201 71.3169C57.1801 73.9369 58.9901 76.6465 58.9901 80.3765C58.9901 80.8665 58.5901 81.2661 58.1001 81.2661Z" fill="#0B2EE5"/>
<path d="M66.4699 81.2668C65.9799 81.2668 65.5799 80.8671 65.5799 80.3771C65.5799 76.6371 67.4099 73.8075 69.1699 71.0675C71.5899 67.3175 73.6899 64.0672 70.6499 58.9972C65.8199 51.6772 58.1099 55.1568 57.7899 55.3068C57.3399 55.5168 56.8099 55.3271 56.5999 54.8771C56.3899 54.4271 56.5899 53.8967 57.0299 53.6867C57.1199 53.6467 66.4699 49.427 72.1599 58.047C75.7899 64.107 73.1899 68.1373 70.6699 72.0373C69.0399 74.5573 67.3599 77.1571 67.3599 80.3771C67.3599 80.8671 66.9599 81.2668 66.4699 81.2668Z" fill="#0B2EE5"/>
<path d="M50.03 77.2469C49.8 77.2469 49.57 77.1571 49.4 76.9871C49.05 76.6371 49.05 76.0664 49.4 75.7264L51.28 73.8465C51.63 73.4965 52.1899 73.4965 52.5399 73.8465C52.8899 74.1965 52.8899 74.7672 52.5399 75.1072L50.66 76.9871C50.49 77.1571 50.26 77.2469 50.03 77.2469Z" fill="#0B2EE5"/>
<path d="M74.5899 77.2469C74.3599 77.2469 74.1299 77.1571 73.9599 76.9871L72.0799 75.1072C71.7299 74.7572 71.7299 74.1865 72.0799 73.8465C72.4299 73.4965 72.9999 73.4965 73.3399 73.8465L75.2198 75.7264C75.5698 76.0764 75.5698 76.6471 75.2198 76.9871C75.0498 77.1571 74.8199 77.2469 74.5899 77.2469Z" fill="#0B2EE5"/>
<path d="M51.9099 54.4471C51.6799 54.4471 51.45 54.3563 51.28 54.1863L49.4 52.3064C49.05 51.9564 49.05 51.3867 49.4 51.0467C49.75 50.6967 50.32 50.6967 50.66 51.0467L52.5399 52.9266C52.8899 53.2766 52.8899 53.8463 52.5399 54.1863C52.3599 54.3563 52.1399 54.4471 51.9099 54.4471Z" fill="#0B2EE5"/>
<path d="M62.2799 50.2266C61.7899 50.2266 61.3899 49.8269 61.3899 49.3369V46.6768C61.3899 46.1868 61.7899 45.7871 62.2799 45.7871C62.7699 45.7871 63.1699 46.1868 63.1699 46.6768V49.3369C63.1699 49.8269 62.7699 50.2266 62.2799 50.2266Z" fill="#0B2EE5"/>
<path d="M72.7198 54.4471C72.4898 54.4471 72.2599 54.3563 72.0899 54.1863C71.7399 53.8363 71.7399 53.2666 72.0899 52.9266L73.9698 51.0467C74.3198 50.6967 74.8798 50.6967 75.2298 51.0467C75.5798 51.3967 75.5798 51.9664 75.2298 52.3064L73.3498 54.1863C73.1698 54.3563 72.9498 54.4471 72.7198 54.4471Z" fill="#0B2EE5"/>
<path d="M47.52 64.877H44.86C44.37 64.877 43.97 64.4773 43.97 63.9873C43.97 63.4973 44.37 63.0967 44.86 63.0967H47.52C48.01 63.0967 48.41 63.4973 48.41 63.9873C48.41 64.4773 48.02 64.877 47.52 64.877Z" fill="#0B2EE5"/>
<path d="M79.56 64.877H76.91C76.42 64.877 76.02 64.4773 76.02 63.9873C76.02 63.4973 76.42 63.0967 76.91 63.0967H79.56C80.05 63.0967 80.45 63.4973 80.45 63.9873C80.45 64.4773 80.06 64.877 79.56 64.877Z" fill="#0B2EE5"/>
<path d="M54.7099 57.3574C55.1793 57.3574 55.5599 56.9763 55.5599 56.5068C55.5599 56.0374 55.1793 55.6572 54.7099 55.6572C54.2405 55.6572 53.8599 56.0374 53.8599 56.5068C53.8599 56.9763 54.2405 57.3574 54.7099 57.3574Z" fill="#0B2EE5"/>
<defs>
<filter id="filter0_d" x="0.699951" y="0.357422" width="125.12" height="136.75" filterUnits="userSpaceOnUse" color-interpolation-filters="sRGB">
<feFlood flood-opacity="0" result="BackgroundImageFix"/>
<feColorMatrix in="SourceAlpha" type="matrix" values="0 0 0 0 0 0 0 0 0 0 0 0 0 0 0 0 0 0 127 0"/>
<feOffset/>
<feGaussianBlur stdDeviation="12.5"/>
<feColorMatrix type="matrix" values="0 0 0 0 0.0431373 0 0 0 0 0.180392 0 0 0 0 0.898039 0 0 0 0.25 0"/>
<feBlend mode="normal" in2="BackgroundImageFix" result="effect1_dropShadow"/>
<feBlend mode="normal" in="SourceGraphic" in2="effect1_dropShadow" result="shape"/>
</filter>
<linearGradient id="paint0_linear" x1="25.6964" y1="68.729" x2="100.824" y2="68.729" gradientUnits="userSpaceOnUse">
<stop offset="0.1242" stop-color="white"/>
<stop offset="0.9272" stop-color="white"/>
</linearGradient>
</defs>
</svg>
