<svg width="547" height="751" viewBox="0 0 547 751" fill="none" xmlns="http://www.w3.org/2000/svg">
<g clip-path="url(#clip0)">
<path d="M251.98 540.533L116.799 462.473L116.819 272.233L117.028 272.112L281.829 177.176L317.961 156.367L348.166 138.969L383.79 118.446V118.427L383.802 0.876953L281.854 59.6201L281.752 59.6773V59.5629L14.9084 213.439L14.8829 521.248L150.102 599.327L251.98 540.533Z" fill="#E6FCFD"/>
<path d="M412.862 137.667V137.673L377.398 158.108L347.333 175.423L311.372 196.143L445.548 273.675L445.529 463.039L179.963 616.228L179.957 616.235L179.944 733.257L546.968 521.559L547 215.174L412.862 137.667Z" fill="#E6FCFD"/>
<path d="M284.316 440.279L346.462 404.442L346.468 332.755L284.328 296.906L222.182 332.743L222.176 404.429L284.316 440.279Z" fill="#E6FCFD"/>
<path d="M137 615.949L0 536.816L0.0318012 226.954L270.431 71.0259V71.1466L372.481 12.3145V133.975L371.591 134.503L105.497 287.801V475.988L242.44 555.077L137 615.949ZM3.56174 534.763L137 611.819L235.329 555.077L101.917 478.066V285.767L103.017 285.132L368.875 131.999V18.4969L266.869 77.3036V77.1829L3.58718 228.987L3.56174 534.763Z" fill="#E6EAFC"/>
<path d="M165.061 750.877V629.743L165.958 629.229L430.646 476.553V289.242L294.715 210.681L397.979 151.194V149.136L400.651 150.667L535.679 228.688L535.647 537.158L534.757 537.673L165.061 750.877ZM168.636 631.834V744.751L532.092 535.074V230.715L399.773 154.263L301.825 210.687L434.227 287.19V478.606L433.336 479.121L168.636 631.834Z" fill="#E6EAFC"/>
<path d="M271.213 456.875L207.293 420.022V346.283L271.213 309.43L335.134 346.283V419.99L271.213 456.875ZM210.855 417.944L271.213 452.771L331.585 417.957V348.323L271.226 313.496L210.861 348.304L210.855 417.944Z" fill="#E6EAFC"/>
</g>
<defs>
<clipPath id="clip0">
<rect width="547" height="750" fill="white" transform="translate(0 0.876953)"/>
</clipPath>
</defs>
</svg>
