<svg width="178" height="136" viewBox="0 0 178 136" fill="none" xmlns="http://www.w3.org/2000/svg">
<path d="M169.08 59.2969L159.53 53.8467L70.3199 2.86719C67.9499 1.50719 65.2499 0.796875 62.5099 0.796875C57.3799 0.796875 52.5699 3.30684 49.6199 7.50684L44.0499 15.457L40.7499 20.167L40.0199 21.2168L31.2399 33.7666C29.5699 36.1566 28.6799 38.967 28.6799 41.877C28.6799 46.917 31.3899 51.607 35.7499 54.127L56.8499 66.2969L56.5999 66.627L52.4799 72.127C50.6699 74.547 49.67 77.5466 49.67 80.5566C49.67 83.9366 50.9799 87.1267 53.1199 89.6367L52.2099 91.0068L47.3599 98.2773C47.1499 98.5973 46.8099 98.7773 46.4299 98.7773H20.5599H19.45V90.6572V84.7773H13.5699H6.56995H0.689941V90.6572V118.646V124.527H6.56995H13.5699H19.45V118.646V117.547H20.5599H46.4299C53.0899 117.547 59.2799 114.237 62.9699 108.697L67.9999 101.146L69.1099 99.4766C70.3099 99.7866 71.5499 99.9668 72.8199 99.9668C78.1299 99.9668 83.06 97.2367 85.7 92.8467L89.4799 86.5371L90.0999 85.4971L117.61 101.367L123.02 104.487L125.81 98.8965L126.78 96.957L132.06 96.2568C143.65 94.7268 152.39 84.7972 152.39 73.1572C152.39 72.6572 152.34 72.1267 152.28 71.5967L151.94 67.8467L159.22 64.207L169.08 59.2969Z" fill="#0CE3EF"/>
<path d="M26.2701 103.337V131.327H19.2701V103.337H26.2701ZM29.9601 99.6465H26.2601H19.2601H15.5601V103.347V131.337V135.037H19.2601H26.2601H29.9601V131.337V103.347V99.6465Z" fill="#0B2EE5"/>
<path d="M69.8101 106.957L75.8201 110.557L70.7901 118.107C68.1901 122.007 63.8401 124.337 59.1501 124.337H33.2801V117.337H59.1501C61.5001 117.337 63.6801 116.167 64.9701 114.217L69.8101 106.957ZM68.6901 101.977L66.7401 104.907L61.8901 112.177C61.2801 113.097 60.2501 113.646 59.1401 113.646H33.2701H29.5701V117.347V124.347V128.047H33.2701H59.1401C65.0701 128.047 70.57 125.097 73.86 120.167L78.8901 112.617L81.0401 109.387L77.7201 107.396L71.7101 103.797L68.6901 101.977Z" fill="#0B2EE5"/>
<path d="M74.0101 82.8467L97.1501 96.1973L93.3701 102.497C91.7401 105.217 88.6301 106.767 85.5301 106.767C83.9901 106.767 82.4501 106.387 81.1001 105.567L72.2301 100.247C69.7801 98.7771 68.2601 96.0971 68.2601 93.2471C68.2601 91.4871 68.8401 89.7467 69.8901 88.3467L74.0101 82.8467ZM73.0201 78.0068L71.05 80.627L66.9301 86.127C65.4001 88.177 64.5601 90.7071 64.5601 93.2471C64.5601 97.3971 66.7701 101.287 70.3201 103.417L79.1901 108.737C81.0601 109.867 83.2601 110.457 85.5301 110.457C90.0701 110.457 94.2901 108.136 96.5401 104.396L100.32 98.0869L102.25 94.8672L98.9901 92.9873L75.8501 79.6367L73.0201 78.0068Z" fill="#0B2EE5"/>
<path d="M57.5401 37.2773L144.12 87.2266L133.27 108.957L51.3901 61.7168C48.8401 60.2468 47.2601 57.5074 47.2601 54.5674C47.2601 52.8574 47.7801 51.2271 48.7501 49.8271L57.5401 37.2773ZM56.4501 32.3867L54.5101 35.1572L45.7301 47.707C44.3201 49.727 43.5701 52.0974 43.5701 54.5674C43.5701 58.8274 45.86 62.787 49.55 64.917L131.43 112.157L134.83 114.117L136.58 110.607L147.43 88.877L148.98 85.7666L145.97 84.0273L59.3901 34.0771L56.4501 32.3867Z" fill="#0B2EE5"/>
<path d="M75.2 19.3672C76.91 19.3672 78.6 19.817 80.09 20.667L169.3 71.6465L148.85 81.877L61.57 31.5273L67.14 23.5771C68.98 20.9371 71.99 19.3672 75.2 19.3672ZM75.2 15.6768C70.79 15.6768 66.64 17.837 64.11 21.457L58.54 29.4072L56.23 32.707L59.72 34.7266L147 85.0771L148.72 86.0674L150.5 85.1768L170.96 74.9473L177.14 71.8574L171.14 68.4268L81.93 17.4473C79.89 16.2873 77.56 15.6768 75.2 15.6768Z" fill="#0B2EE5"/>
<path d="M159.11 84.5674C159.15 84.9974 159.23 85.4374 159.23 85.8574C159.23 94.7174 152.58 101.987 144.02 103.117L151.34 88.4473L159.11 84.5674ZM162.3 78.8369L157.46 81.2568L149.69 85.1465L148.59 85.6973L148.04 86.7969L140.72 101.467L137.61 107.697L144.51 106.787C155.01 105.397 162.93 96.3974 162.93 85.8574C162.93 85.3574 162.88 84.9174 162.83 84.5674C162.82 84.4574 162.8 84.3473 162.79 84.2373L162.3 78.8369Z" fill="#0B2EE5"/>
<path d="M127.74 96.3467C129.673 96.3467 131.24 94.7797 131.24 92.8467C131.24 90.9137 129.673 89.3467 127.74 89.3467C125.807 89.3467 124.24 90.9137 124.24 92.8467C124.24 94.7797 125.807 96.3467 127.74 96.3467Z" fill="black"/>
</svg>
