<svg width="173" height="191" viewBox="0 0 173 191" fill="none" xmlns="http://www.w3.org/2000/svg">
<g filter="url(#filter0_d)">
<path d="M25.6699 60.127V130.307L86.45 165.396L147.22 130.307V60.127L86.45 25.0371L25.6699 60.127Z" fill="url(#paint0_linear)"/>
</g>
<path d="M122.54 88.3169L118.44 85.9771L80.14 64.0972C79.12 63.5172 77.96 63.207 76.79 63.207C74.59 63.207 72.52 64.2869 71.26 66.0869L68.87 69.4971L67.45 71.5171L67.14 71.9668L63.37 77.3569C62.65 78.3869 62.27 79.5869 62.27 80.8369C62.27 82.9969 63.43 85.0172 65.31 86.0972L74.37 91.3271L74.26 91.4668L72.49 93.8271C71.71 94.8671 71.28 96.1568 71.28 97.4468C71.28 98.8968 71.84 100.267 72.76 101.347L72.37 101.937L70.29 105.057C70.2 105.197 70.06 105.267 69.89 105.267H58.78H58.3V101.777V99.2471H55.77H52.77H50.24V101.777V113.797V116.327H52.77H55.77H58.3V113.797V113.327H58.78H69.89C72.75 113.327 75.4 111.907 76.99 109.527L79.15 106.287L79.63 105.567C80.14 105.697 80.68 105.777 81.22 105.777C83.5 105.777 85.62 104.607 86.75 102.717L88.37 100.007L88.64 99.5571L100.45 106.367L102.77 107.707L103.97 105.307L104.39 104.477L106.65 104.177C111.62 103.517 115.38 99.2568 115.38 94.2568C115.38 94.0368 115.36 93.8169 115.33 93.5869L115.18 91.9771L118.31 90.417L122.54 88.3169Z" fill="#0CE3EF"/>
<path d="M61.2299 107.217V119.237H58.2299V107.217H61.2299ZM63.7599 104.697H61.2299H58.2299H55.7V107.227V119.247V121.777H58.2299H61.2299H63.7599V119.247V107.227V104.697Z" fill="#0B2EE5"/>
<path d="M79.9199 108.777L82.4999 110.327L80.34 113.567C79.22 115.247 77.36 116.247 75.34 116.247H64.2299V113.247H75.34C76.35 113.247 77.28 112.747 77.84 111.907L79.9199 108.777ZM79.1599 105.367L77.8199 107.367L75.7399 110.487C75.6499 110.627 75.51 110.697 75.34 110.697H64.2299H61.7V113.227V116.227V118.757H64.2299H75.34C78.2 118.757 80.8599 117.337 82.4399 114.957L84.5999 111.717L86.0699 109.517L83.7999 108.157L81.2199 106.607L79.1599 105.367Z" fill="#0B2EE5"/>
<path d="M81.73 98.417L91.67 104.147L90.05 106.857C89.35 108.027 88.01 108.687 86.68 108.687C86.02 108.687 85.36 108.527 84.78 108.177L80.97 105.887C79.92 105.257 79.27 104.107 79.27 102.877C79.27 102.127 79.52 101.377 79.97 100.777L81.73 98.417ZM81.05 95.1172L79.71 96.9067L77.94 99.2671C77.16 100.307 76.73 101.597 76.73 102.887C76.73 104.997 77.85 106.977 79.66 108.057L83.47 110.337C84.42 110.907 85.53 111.207 86.67 111.207C88.95 111.207 91.07 110.037 92.2 108.147L93.82 105.437L95.14 103.237L92.91 101.957L82.97 96.2271L81.05 95.1172Z" fill="#0B2EE5"/>
<path d="M74.66 78.8569L111.83 100.297L107.17 109.627L72.02 89.3472C70.93 88.7172 70.25 87.5369 70.25 86.2769C70.25 85.5469 70.47 84.8471 70.89 84.2471L74.66 78.8569ZM73.92 75.5171L72.59 77.417L68.82 82.8071C68.1 83.8371 67.72 85.0371 67.72 86.2871C67.72 88.4471 68.88 90.4669 70.76 91.5469L105.91 111.827L108.23 113.167L109.43 110.767L114.09 101.437L115.15 99.3071L113.09 98.1172L75.92 76.6768L73.92 75.5171Z" fill="#0B2EE5"/>
<path d="M82.24 71.167C82.97 71.167 83.7 71.3571 84.34 71.7271L122.64 93.6069L113.86 97.9971L76.39 76.3867L78.78 72.9771C79.57 71.8471 80.86 71.167 82.24 71.167ZM82.24 68.647C80.04 68.647 77.97 69.7269 76.71 71.5269L74.32 74.937L72.74 77.1968L75.13 78.5771L112.6 100.187L113.78 100.867L115 100.257L123.78 95.8672L128 93.7568L123.9 91.417L85.6 69.5371C84.58 68.9571 83.42 68.647 82.24 68.647Z" fill="#0B2EE5"/>
<path d="M118.26 99.1567C118.28 99.3367 118.31 99.537 118.31 99.707C118.31 103.517 115.45 106.637 111.78 107.117L114.92 100.817L118.26 99.1567ZM120.44 95.2471L117.13 96.9067L113.79 98.5771L113.04 98.957L112.66 99.707L109.52 106.007L107.39 110.267L112.11 109.647C117.08 108.987 120.84 104.727 120.84 99.7271C120.84 99.4571 120.81 99.2271 120.79 99.0571L120.78 98.9468L120.44 95.2471Z" fill="#0B2EE5"/>
<path d="M104.79 104.217C105.618 104.217 106.29 103.545 106.29 102.717C106.29 101.888 105.618 101.217 104.79 101.217C103.961 101.217 103.29 101.888 103.29 102.717C103.29 103.545 103.961 104.217 104.79 104.217Z" fill="#0B2EE5"/>
<defs>
<filter id="filter0_d" x="0.669922" y="0.0371094" width="171.55" height="190.359" filterUnits="userSpaceOnUse" color-interpolation-filters="sRGB">
<feFlood flood-opacity="0" result="BackgroundImageFix"/>
<feColorMatrix in="SourceAlpha" type="matrix" values="0 0 0 0 0 0 0 0 0 0 0 0 0 0 0 0 0 0 127 0"/>
<feOffset/>
<feGaussianBlur stdDeviation="12.5"/>
<feColorMatrix type="matrix" values="0 0 0 0 0.0431373 0 0 0 0 0.180392 0 0 0 0 0.898039 0 0 0 0.35 0"/>
<feBlend mode="normal" in2="BackgroundImageFix" result="effect1_dropShadow"/>
<feBlend mode="normal" in="SourceGraphic" in2="effect1_dropShadow" result="shape"/>
</filter>
<linearGradient id="paint0_linear" x1="25.6677" y1="95.2157" x2="147.224" y2="95.2157" gradientUnits="userSpaceOnUse">
<stop offset="0.1242" stop-color="white"/>
<stop offset="0.9272" stop-color="white"/>
</linearGradient>
</defs>
</svg>
